<?xml version="1.0" encoding="utf-8" standalone="no"?>
<!DOCTYPE svg PUBLIC "-//W3C//DTD SVG 1.1//EN"
  "http://www.w3.org/Graphics/SVG/1.1/DTD/svg11.dtd">
<!-- Created with matplotlib (https://matplotlib.org/) -->
<svg height="360pt" version="1.1" viewBox="0 0 1224 360" width="1224pt" xmlns="http://www.w3.org/2000/svg" xmlns:xlink="http://www.w3.org/1999/xlink">
 <metadata>
  <rdf:RDF xmlns:cc="http://creativecommons.org/ns#" xmlns:dc="http://purl.org/dc/elements/1.1/" xmlns:rdf="http://www.w3.org/1999/02/22-rdf-syntax-ns#">
   <cc:Work>
    <dc:type rdf:resource="http://purl.org/dc/dcmitype/StillImage"/>
    <dc:date>2021-04-17T17:12:23.335397</dc:date>
    <dc:format>image/svg+xml</dc:format>
    <dc:creator>
     <cc:Agent>
      <dc:title>Matplotlib v3.3.2, https://matplotlib.org/</dc:title>
     </cc:Agent>
    </dc:creator>
   </cc:Work>
  </rdf:RDF>
 </metadata>
 <defs>
  <style type="text/css">*{stroke-linecap:butt;stroke-linejoin:round;}</style>
 </defs>
 <g id="figure_1">
  <g id="patch_1">
   <path d="M 0 360 
L 1224 360 
L 1224 0 
L 0 0 
z
" style="fill:none;"/>
  </g>
  <g id="axes_1">
   <g id="patch_2">
    <path d="M 47.3 318.7 
L 404.4 318.7 
L 404.4 10.8 
L 47.3 10.8 
z
" style="fill:#eeeeee;"/>
   </g>
   <g id="matplotlib.axis_1">
    <g id="xtick_1">
     <g id="line2d_1">
      <path clip-path="url(#pbe6cfa004c)" d="M 63.531818 318.7 
L 63.531818 10.8 
" style="fill:none;stroke:#b2b2b2;stroke-dasharray:1.85,0.8;stroke-dashoffset:0;stroke-width:0.5;"/>
     </g>
     <g id="line2d_2">
      <defs>
       <path d="M 0 0 
L 0 -3.5 
" id="m5baf389d14" style="stroke:#000000;stroke-width:0.8;"/>
      </defs>
      <g>
       <use style="stroke:#000000;stroke-width:0.8;" x="63.531818" xlink:href="#m5baf389d14" y="318.7"/>
      </g>
     </g>
     <g id="text_1">
      <!-- 0 -->
      <g transform="translate(60.350568 329.798438)scale(0.1 -0.1)">
       <defs>
        <path d="M 31.78125 66.40625 
Q 24.171875 66.40625 20.328125 58.90625 
Q 16.5 51.421875 16.5 36.375 
Q 16.5 21.390625 20.328125 13.890625 
Q 24.171875 6.390625 31.78125 6.390625 
Q 39.453125 6.390625 43.28125 13.890625 
Q 47.125 21.390625 47.125 36.375 
Q 47.125 51.421875 43.28125 58.90625 
Q 39.453125 66.40625 31.78125 66.40625 
z
M 31.78125 74.21875 
Q 44.046875 74.21875 50.515625 64.515625 
Q 56.984375 54.828125 56.984375 36.375 
Q 56.984375 17.96875 50.515625 8.265625 
Q 44.046875 -1.421875 31.78125 -1.421875 
Q 19.53125 -1.421875 13.0625 8.265625 
Q 6.59375 17.96875 6.59375 36.375 
Q 6.59375 54.828125 13.0625 64.515625 
Q 19.53125 74.21875 31.78125 74.21875 
z
" id="DejaVuSans-48"/>
       </defs>
       <use xlink:href="#DejaVuSans-48"/>
      </g>
     </g>
    </g>
    <g id="xtick_2">
     <g id="line2d_3">
      <path clip-path="url(#pbe6cfa004c)" d="M 129.114922 318.7 
L 129.114922 10.8 
" style="fill:none;stroke:#b2b2b2;stroke-dasharray:1.85,0.8;stroke-dashoffset:0;stroke-width:0.5;"/>
     </g>
     <g id="line2d_4">
      <g>
       <use style="stroke:#000000;stroke-width:0.8;" x="129.114922" xlink:href="#m5baf389d14" y="318.7"/>
      </g>
     </g>
     <g id="text_2">
      <!-- 2 -->
      <g transform="translate(125.933672 329.798438)scale(0.1 -0.1)">
       <defs>
        <path d="M 19.1875 8.296875 
L 53.609375 8.296875 
L 53.609375 0 
L 7.328125 0 
L 7.328125 8.296875 
Q 12.9375 14.109375 22.625 23.890625 
Q 32.328125 33.6875 34.8125 36.53125 
Q 39.546875 41.84375 41.421875 45.53125 
Q 43.3125 49.21875 43.3125 52.78125 
Q 43.3125 58.59375 39.234375 62.25 
Q 35.15625 65.921875 28.609375 65.921875 
Q 23.96875 65.921875 18.8125 64.3125 
Q 13.671875 62.703125 7.8125 59.421875 
L 7.8125 69.390625 
Q 13.765625 71.78125 18.9375 73 
Q 24.125 74.21875 28.421875 74.21875 
Q 39.75 74.21875 46.484375 68.546875 
Q 53.21875 62.890625 53.21875 53.421875 
Q 53.21875 48.921875 51.53125 44.890625 
Q 49.859375 40.875 45.40625 35.40625 
Q 44.1875 33.984375 37.640625 27.21875 
Q 31.109375 20.453125 19.1875 8.296875 
z
" id="DejaVuSans-50"/>
       </defs>
       <use xlink:href="#DejaVuSans-50"/>
      </g>
     </g>
    </g>
    <g id="xtick_3">
     <g id="line2d_5">
      <path clip-path="url(#pbe6cfa004c)" d="M 194.698026 318.7 
L 194.698026 10.8 
" style="fill:none;stroke:#b2b2b2;stroke-dasharray:1.85,0.8;stroke-dashoffset:0;stroke-width:0.5;"/>
     </g>
     <g id="line2d_6">
      <g>
       <use style="stroke:#000000;stroke-width:0.8;" x="194.698026" xlink:href="#m5baf389d14" y="318.7"/>
      </g>
     </g>
     <g id="text_3">
      <!-- 4 -->
      <g transform="translate(191.516776 329.798438)scale(0.1 -0.1)">
       <defs>
        <path d="M 37.796875 64.3125 
L 12.890625 25.390625 
L 37.796875 25.390625 
z
M 35.203125 72.90625 
L 47.609375 72.90625 
L 47.609375 25.390625 
L 58.015625 25.390625 
L 58.015625 17.1875 
L 47.609375 17.1875 
L 47.609375 0 
L 37.796875 0 
L 37.796875 17.1875 
L 4.890625 17.1875 
L 4.890625 26.703125 
z
" id="DejaVuSans-52"/>
       </defs>
       <use xlink:href="#DejaVuSans-52"/>
      </g>
     </g>
    </g>
    <g id="xtick_4">
     <g id="line2d_7">
      <path clip-path="url(#pbe6cfa004c)" d="M 260.281129 318.7 
L 260.281129 10.8 
" style="fill:none;stroke:#b2b2b2;stroke-dasharray:1.85,0.8;stroke-dashoffset:0;stroke-width:0.5;"/>
     </g>
     <g id="line2d_8">
      <g>
       <use style="stroke:#000000;stroke-width:0.8;" x="260.281129" xlink:href="#m5baf389d14" y="318.7"/>
      </g>
     </g>
     <g id="text_4">
      <!-- 6 -->
      <g transform="translate(257.099879 329.798438)scale(0.1 -0.1)">
       <defs>
        <path d="M 33.015625 40.375 
Q 26.375 40.375 22.484375 35.828125 
Q 18.609375 31.296875 18.609375 23.390625 
Q 18.609375 15.53125 22.484375 10.953125 
Q 26.375 6.390625 33.015625 6.390625 
Q 39.65625 6.390625 43.53125 10.953125 
Q 47.40625 15.53125 47.40625 23.390625 
Q 47.40625 31.296875 43.53125 35.828125 
Q 39.65625 40.375 33.015625 40.375 
z
M 52.59375 71.296875 
L 52.59375 62.3125 
Q 48.875 64.0625 45.09375 64.984375 
Q 41.3125 65.921875 37.59375 65.921875 
Q 27.828125 65.921875 22.671875 59.328125 
Q 17.53125 52.734375 16.796875 39.40625 
Q 19.671875 43.65625 24.015625 45.921875 
Q 28.375 48.1875 33.59375 48.1875 
Q 44.578125 48.1875 50.953125 41.515625 
Q 57.328125 34.859375 57.328125 23.390625 
Q 57.328125 12.15625 50.6875 5.359375 
Q 44.046875 -1.421875 33.015625 -1.421875 
Q 20.359375 -1.421875 13.671875 8.265625 
Q 6.984375 17.96875 6.984375 36.375 
Q 6.984375 53.65625 15.1875 63.9375 
Q 23.390625 74.21875 37.203125 74.21875 
Q 40.921875 74.21875 44.703125 73.484375 
Q 48.484375 72.75 52.59375 71.296875 
z
" id="DejaVuSans-54"/>
       </defs>
       <use xlink:href="#DejaVuSans-54"/>
      </g>
     </g>
    </g>
    <g id="xtick_5">
     <g id="line2d_9">
      <path clip-path="url(#pbe6cfa004c)" d="M 325.864233 318.7 
L 325.864233 10.8 
" style="fill:none;stroke:#b2b2b2;stroke-dasharray:1.85,0.8;stroke-dashoffset:0;stroke-width:0.5;"/>
     </g>
     <g id="line2d_10">
      <g>
       <use style="stroke:#000000;stroke-width:0.8;" x="325.864233" xlink:href="#m5baf389d14" y="318.7"/>
      </g>
     </g>
     <g id="text_5">
      <!-- 8 -->
      <g transform="translate(322.682983 329.798438)scale(0.1 -0.1)">
       <defs>
        <path d="M 31.78125 34.625 
Q 24.75 34.625 20.71875 30.859375 
Q 16.703125 27.09375 16.703125 20.515625 
Q 16.703125 13.921875 20.71875 10.15625 
Q 24.75 6.390625 31.78125 6.390625 
Q 38.8125 6.390625 42.859375 10.171875 
Q 46.921875 13.96875 46.921875 20.515625 
Q 46.921875 27.09375 42.890625 30.859375 
Q 38.875 34.625 31.78125 34.625 
z
M 21.921875 38.8125 
Q 15.578125 40.375 12.03125 44.71875 
Q 8.5 49.078125 8.5 55.328125 
Q 8.5 64.0625 14.71875 69.140625 
Q 20.953125 74.21875 31.78125 74.21875 
Q 42.671875 74.21875 48.875 69.140625 
Q 55.078125 64.0625 55.078125 55.328125 
Q 55.078125 49.078125 51.53125 44.71875 
Q 48 40.375 41.703125 38.8125 
Q 48.828125 37.15625 52.796875 32.3125 
Q 56.78125 27.484375 56.78125 20.515625 
Q 56.78125 9.90625 50.3125 4.234375 
Q 43.84375 -1.421875 31.78125 -1.421875 
Q 19.734375 -1.421875 13.25 4.234375 
Q 6.78125 9.90625 6.78125 20.515625 
Q 6.78125 27.484375 10.78125 32.3125 
Q 14.796875 37.15625 21.921875 38.8125 
z
M 18.3125 54.390625 
Q 18.3125 48.734375 21.84375 45.5625 
Q 25.390625 42.390625 31.78125 42.390625 
Q 38.140625 42.390625 41.71875 45.5625 
Q 45.3125 48.734375 45.3125 54.390625 
Q 45.3125 60.0625 41.71875 63.234375 
Q 38.140625 66.40625 31.78125 66.40625 
Q 25.390625 66.40625 21.84375 63.234375 
Q 18.3125 60.0625 18.3125 54.390625 
z
" id="DejaVuSans-56"/>
       </defs>
       <use xlink:href="#DejaVuSans-56"/>
      </g>
     </g>
    </g>
    <g id="xtick_6">
     <g id="line2d_11">
      <path clip-path="url(#pbe6cfa004c)" d="M 391.447337 318.7 
L 391.447337 10.8 
" style="fill:none;stroke:#b2b2b2;stroke-dasharray:1.85,0.8;stroke-dashoffset:0;stroke-width:0.5;"/>
     </g>
     <g id="line2d_12">
      <g>
       <use style="stroke:#000000;stroke-width:0.8;" x="391.447337" xlink:href="#m5baf389d14" y="318.7"/>
      </g>
     </g>
     <g id="text_6">
      <!-- 10 -->
      <g transform="translate(385.084837 329.798438)scale(0.1 -0.1)">
       <defs>
        <path d="M 12.40625 8.296875 
L 28.515625 8.296875 
L 28.515625 63.921875 
L 10.984375 60.40625 
L 10.984375 69.390625 
L 28.421875 72.90625 
L 38.28125 72.90625 
L 38.28125 8.296875 
L 54.390625 8.296875 
L 54.390625 0 
L 12.40625 0 
z
" id="DejaVuSans-49"/>
       </defs>
       <use xlink:href="#DejaVuSans-49"/>
       <use x="63.623047" xlink:href="#DejaVuSans-48"/>
      </g>
     </g>
    </g>
    <g id="text_7">
     <!-- X -->
     <g transform="translate(221.74 344.99625)scale(0.12 -0.12)">
      <defs>
       <path d="M 6.296875 72.90625 
L 16.890625 72.90625 
L 35.015625 45.796875 
L 53.21875 72.90625 
L 63.8125 72.90625 
L 40.375 37.890625 
L 65.375 0 
L 54.78125 0 
L 34.28125 31 
L 13.625 0 
L 2.984375 0 
L 29 38.921875 
z
" id="DejaVuSans-88"/>
      </defs>
      <use xlink:href="#DejaVuSans-88"/>
     </g>
    </g>
   </g>
   <g id="matplotlib.axis_2">
    <g id="ytick_1">
     <g id="line2d_13">
      <path clip-path="url(#pbe6cfa004c)" d="M 47.3 274.682321 
L 404.4 274.682321 
" style="fill:none;stroke:#b2b2b2;stroke-dasharray:1.85,0.8;stroke-dashoffset:0;stroke-width:0.5;"/>
     </g>
     <g id="line2d_14">
      <defs>
       <path d="M 0 0 
L 3.5 0 
" id="m42f89328a6" style="stroke:#000000;stroke-width:0.8;"/>
      </defs>
      <g>
       <use style="stroke:#000000;stroke-width:0.8;" x="47.3" xlink:href="#m42f89328a6" y="274.682321"/>
      </g>
     </g>
     <g id="text_8">
      <!-- 0.5 -->
      <g transform="translate(27.896875 278.48154)scale(0.1 -0.1)">
       <defs>
        <path d="M 10.6875 12.40625 
L 21 12.40625 
L 21 0 
L 10.6875 0 
z
" id="DejaVuSans-46"/>
        <path d="M 10.796875 72.90625 
L 49.515625 72.90625 
L 49.515625 64.59375 
L 19.828125 64.59375 
L 19.828125 46.734375 
Q 21.96875 47.46875 24.109375 47.828125 
Q 26.265625 48.1875 28.421875 48.1875 
Q 40.625 48.1875 47.75 41.5 
Q 54.890625 34.8125 54.890625 23.390625 
Q 54.890625 11.625 47.5625 5.09375 
Q 40.234375 -1.421875 26.90625 -1.421875 
Q 22.3125 -1.421875 17.546875 -0.640625 
Q 12.796875 0.140625 7.71875 1.703125 
L 7.71875 11.625 
Q 12.109375 9.234375 16.796875 8.0625 
Q 21.484375 6.890625 26.703125 6.890625 
Q 35.15625 6.890625 40.078125 11.328125 
Q 45.015625 15.765625 45.015625 23.390625 
Q 45.015625 31 40.078125 35.4375 
Q 35.15625 39.890625 26.703125 39.890625 
Q 22.75 39.890625 18.8125 39.015625 
Q 14.890625 38.140625 10.796875 36.28125 
z
" id="DejaVuSans-53"/>
       </defs>
       <use xlink:href="#DejaVuSans-48"/>
       <use x="63.623047" xlink:href="#DejaVuSans-46"/>
       <use x="95.410156" xlink:href="#DejaVuSans-53"/>
      </g>
     </g>
    </g>
    <g id="ytick_2">
     <g id="line2d_15">
      <path clip-path="url(#pbe6cfa004c)" d="M 47.3 226.859255 
L 404.4 226.859255 
" style="fill:none;stroke:#b2b2b2;stroke-dasharray:1.85,0.8;stroke-dashoffset:0;stroke-width:0.5;"/>
     </g>
     <g id="line2d_16">
      <g>
       <use style="stroke:#000000;stroke-width:0.8;" x="47.3" xlink:href="#m42f89328a6" y="226.859255"/>
      </g>
     </g>
     <g id="text_9">
      <!-- 1.0 -->
      <g transform="translate(27.896875 230.658474)scale(0.1 -0.1)">
       <use xlink:href="#DejaVuSans-49"/>
       <use x="63.623047" xlink:href="#DejaVuSans-46"/>
       <use x="95.410156" xlink:href="#DejaVuSans-48"/>
      </g>
     </g>
    </g>
    <g id="ytick_3">
     <g id="line2d_17">
      <path clip-path="url(#pbe6cfa004c)" d="M 47.3 179.036189 
L 404.4 179.036189 
" style="fill:none;stroke:#b2b2b2;stroke-dasharray:1.85,0.8;stroke-dashoffset:0;stroke-width:0.5;"/>
     </g>
     <g id="line2d_18">
      <g>
       <use style="stroke:#000000;stroke-width:0.8;" x="47.3" xlink:href="#m42f89328a6" y="179.036189"/>
      </g>
     </g>
     <g id="text_10">
      <!-- 1.5 -->
      <g transform="translate(27.896875 182.835407)scale(0.1 -0.1)">
       <use xlink:href="#DejaVuSans-49"/>
       <use x="63.623047" xlink:href="#DejaVuSans-46"/>
       <use x="95.410156" xlink:href="#DejaVuSans-53"/>
      </g>
     </g>
    </g>
    <g id="ytick_4">
     <g id="line2d_19">
      <path clip-path="url(#pbe6cfa004c)" d="M 47.3 131.213122 
L 404.4 131.213122 
" style="fill:none;stroke:#b2b2b2;stroke-dasharray:1.85,0.8;stroke-dashoffset:0;stroke-width:0.5;"/>
     </g>
     <g id="line2d_20">
      <g>
       <use style="stroke:#000000;stroke-width:0.8;" x="47.3" xlink:href="#m42f89328a6" y="131.213122"/>
      </g>
     </g>
     <g id="text_11">
      <!-- 2.0 -->
      <g transform="translate(27.896875 135.012341)scale(0.1 -0.1)">
       <use xlink:href="#DejaVuSans-50"/>
       <use x="63.623047" xlink:href="#DejaVuSans-46"/>
       <use x="95.410156" xlink:href="#DejaVuSans-48"/>
      </g>
     </g>
    </g>
    <g id="ytick_5">
     <g id="line2d_21">
      <path clip-path="url(#pbe6cfa004c)" d="M 47.3 83.390056 
L 404.4 83.390056 
" style="fill:none;stroke:#b2b2b2;stroke-dasharray:1.85,0.8;stroke-dashoffset:0;stroke-width:0.5;"/>
     </g>
     <g id="line2d_22">
      <g>
       <use style="stroke:#000000;stroke-width:0.8;" x="47.3" xlink:href="#m42f89328a6" y="83.390056"/>
      </g>
     </g>
     <g id="text_12">
      <!-- 2.5 -->
      <g transform="translate(27.896875 87.189275)scale(0.1 -0.1)">
       <use xlink:href="#DejaVuSans-50"/>
       <use x="63.623047" xlink:href="#DejaVuSans-46"/>
       <use x="95.410156" xlink:href="#DejaVuSans-53"/>
      </g>
     </g>
    </g>
    <g id="ytick_6">
     <g id="line2d_23">
      <path clip-path="url(#pbe6cfa004c)" d="M 47.3 35.56699 
L 404.4 35.56699 
" style="fill:none;stroke:#b2b2b2;stroke-dasharray:1.85,0.8;stroke-dashoffset:0;stroke-width:0.5;"/>
     </g>
     <g id="line2d_24">
      <g>
       <use style="stroke:#000000;stroke-width:0.8;" x="47.3" xlink:href="#m42f89328a6" y="35.56699"/>
      </g>
     </g>
     <g id="text_13">
      <!-- 3.0 -->
      <g transform="translate(27.896875 39.366209)scale(0.1 -0.1)">
       <defs>
        <path d="M 40.578125 39.3125 
Q 47.65625 37.796875 51.625 33 
Q 55.609375 28.21875 55.609375 21.1875 
Q 55.609375 10.40625 48.1875 4.484375 
Q 40.765625 -1.421875 27.09375 -1.421875 
Q 22.515625 -1.421875 17.65625 -0.515625 
Q 12.796875 0.390625 7.625 2.203125 
L 7.625 11.71875 
Q 11.71875 9.328125 16.59375 8.109375 
Q 21.484375 6.890625 26.8125 6.890625 
Q 36.078125 6.890625 40.9375 10.546875 
Q 45.796875 14.203125 45.796875 21.1875 
Q 45.796875 27.640625 41.28125 31.265625 
Q 36.765625 34.90625 28.71875 34.90625 
L 20.21875 34.90625 
L 20.21875 43.015625 
L 29.109375 43.015625 
Q 36.375 43.015625 40.234375 45.921875 
Q 44.09375 48.828125 44.09375 54.296875 
Q 44.09375 59.90625 40.109375 62.90625 
Q 36.140625 65.921875 28.71875 65.921875 
Q 24.65625 65.921875 20.015625 65.03125 
Q 15.375 64.15625 9.8125 62.3125 
L 9.8125 71.09375 
Q 15.4375 72.65625 20.34375 73.4375 
Q 25.25 74.21875 29.59375 74.21875 
Q 40.828125 74.21875 47.359375 69.109375 
Q 53.90625 64.015625 53.90625 55.328125 
Q 53.90625 49.265625 50.4375 45.09375 
Q 46.96875 40.921875 40.578125 39.3125 
z
" id="DejaVuSans-51"/>
       </defs>
       <use xlink:href="#DejaVuSans-51"/>
       <use x="63.623047" xlink:href="#DejaVuSans-46"/>
       <use x="95.410156" xlink:href="#DejaVuSans-48"/>
      </g>
     </g>
    </g>
    <g id="text_14">
     <!-- Y -->
     <g transform="translate(21.40125 168.414688)rotate(-90)scale(0.12 -0.12)">
      <defs>
       <path d="M -0.203125 72.90625 
L 10.40625 72.90625 
L 30.609375 42.921875 
L 50.6875 72.90625 
L 61.28125 72.90625 
L 35.5 34.71875 
L 35.5 0 
L 25.59375 0 
L 25.59375 34.71875 
z
" id="DejaVuSans-89"/>
      </defs>
      <use xlink:href="#DejaVuSans-89"/>
     </g>
    </g>
   </g>
   <g id="line2d_25">
    <defs>
     <path d="M 0 3 
C 0.795609 3 1.55874 2.683901 2.12132 2.12132 
C 2.683901 1.55874 3 0.795609 3 0 
C 3 -0.795609 2.683901 -1.55874 2.12132 -2.12132 
C 1.55874 -2.683901 0.795609 -3 0 -3 
C -0.795609 -3 -1.55874 -2.683901 -2.12132 -2.12132 
C -2.683901 -1.55874 -3 -0.795609 -3 0 
C -3 0.795609 -2.683901 1.55874 -2.12132 2.12132 
C -1.55874 2.683901 -0.795609 3 0 3 
z
" id="maae57e5423" style="stroke:#348abd;"/>
    </defs>
    <g clip-path="url(#pbe6cfa004c)">
     <use style="fill:#348abd;stroke:#348abd;" x="63.531818" xlink:href="#maae57e5423" y="271.420749"/>
     <use style="fill:#348abd;stroke:#348abd;" x="96.32337" xlink:href="#maae57e5423" y="260.532601"/>
     <use style="fill:#348abd;stroke:#348abd;" x="129.114922" xlink:href="#maae57e5423" y="249.991125"/>
     <use style="fill:#348abd;stroke:#348abd;" x="161.906474" xlink:href="#maae57e5423" y="223.103166"/>
     <use style="fill:#348abd;stroke:#348abd;" x="194.698026" xlink:href="#maae57e5423" y="209.591563"/>
     <use style="fill:#348abd;stroke:#348abd;" x="227.489578" xlink:href="#maae57e5423" y="188.457493"/>
     <use style="fill:#348abd;stroke:#348abd;" x="260.281129" xlink:href="#maae57e5423" y="160.065418"/>
     <use style="fill:#348abd;stroke:#348abd;" x="293.072681" xlink:href="#maae57e5423" y="116.204003"/>
     <use style="fill:#348abd;stroke:#348abd;" x="325.864233" xlink:href="#maae57e5423" y="76.532686"/>
     <use style="fill:#348abd;stroke:#348abd;" x="358.655785" xlink:href="#maae57e5423" y="33.053357"/>
    </g>
   </g>
   <g id="line2d_26">
    <path clip-path="url(#pbe6cfa004c)" d="M 63.531818 304.704545 
L 66.810973 301.877181 
L 70.090129 299.049816 
L 73.369284 296.222452 
L 76.648439 293.395087 
L 79.927594 290.567723 
L 83.206749 287.740358 
L 86.485904 284.912994 
L 89.76506 282.085629 
L 93.044215 279.258264 
L 96.32337 276.4309 
L 99.602525 273.603535 
L 102.88168 270.776171 
L 106.160836 267.948806 
L 109.439991 265.121442 
L 112.719146 262.294077 
L 115.998301 259.466713 
L 119.277456 256.639348 
L 122.556612 253.811983 
L 125.835767 250.984619 
L 129.114922 248.157254 
L 132.394077 245.32989 
L 135.673232 242.502525 
L 138.952388 239.675161 
L 142.231543 236.847796 
L 145.510698 234.020432 
L 148.789853 231.193067 
L 152.069008 228.365702 
L 155.348163 225.538338 
L 158.627319 222.710973 
L 161.906474 219.883609 
L 165.185629 217.056244 
L 168.464784 214.22888 
L 171.743939 211.401515 
L 175.023095 208.574151 
L 178.30225 205.746786 
L 181.581405 202.919421 
L 184.86056 200.092057 
L 188.139715 197.264692 
L 191.418871 194.437328 
L 194.698026 191.609963 
L 197.977181 188.782599 
L 201.256336 185.955234 
L 204.535491 183.12787 
L 207.814646 180.300505 
L 211.093802 177.47314 
L 214.372957 174.645776 
L 217.652112 171.818411 
L 220.931267 168.991047 
L 224.210422 166.163682 
L 227.489578 163.336318 
L 230.768733 160.508953 
L 234.047888 157.681589 
L 237.327043 154.854224 
L 240.606198 152.02686 
L 243.885354 149.199495 
L 247.164509 146.37213 
L 250.443664 143.544766 
L 253.722819 140.717401 
L 257.001974 137.890037 
L 260.281129 135.062672 
L 263.560285 132.235308 
L 266.83944 129.407943 
L 270.118595 126.580579 
L 273.39775 123.753214 
L 276.676905 120.925849 
L 279.956061 118.098485 
L 283.235216 115.27112 
L 286.514371 112.443756 
L 289.793526 109.616391 
L 293.072681 106.789027 
L 296.351837 103.961662 
L 299.630992 101.134298 
L 302.910147 98.306933 
L 306.189302 95.479568 
L 309.468457 92.652204 
L 312.747612 89.824839 
L 316.026768 86.997475 
L 319.305923 84.17011 
L 322.585078 81.342746 
L 325.864233 78.515381 
L 329.143388 75.688017 
L 332.422544 72.860652 
L 335.701699 70.033287 
L 338.980854 67.205923 
L 342.260009 64.378558 
L 345.539164 61.551194 
L 348.81832 58.723829 
L 352.097475 55.896465 
L 355.37663 53.0691 
L 358.655785 50.241736 
L 361.93494 47.414371 
L 365.214096 44.587006 
L 368.493251 41.759642 
L 371.772406 38.932277 
L 375.051561 36.104913 
L 378.330716 33.277548 
L 381.609871 30.450184 
L 384.889027 27.622819 
L 388.168182 24.795455 
" style="fill:none;stroke:#a60628;stroke-linecap:square;stroke-width:2;"/>
   </g>
   <g id="patch_3">
    <path d="M 47.3 318.7 
L 47.3 10.8 
" style="fill:none;stroke:#bcbcbc;stroke-linecap:square;stroke-linejoin:miter;stroke-width:0.8;"/>
   </g>
   <g id="patch_4">
    <path d="M 404.4 318.7 
L 404.4 10.8 
" style="fill:none;stroke:#bcbcbc;stroke-linecap:square;stroke-linejoin:miter;stroke-width:0.8;"/>
   </g>
   <g id="patch_5">
    <path d="M 47.3 318.7 
L 404.4 318.7 
" style="fill:none;stroke:#bcbcbc;stroke-linecap:square;stroke-linejoin:miter;stroke-width:0.8;"/>
   </g>
   <g id="patch_6">
    <path d="M 47.3 10.8 
L 404.4 10.8 
" style="fill:none;stroke:#bcbcbc;stroke-linecap:square;stroke-linejoin:miter;stroke-width:0.8;"/>
   </g>
   <g id="legend_1">
    <g id="patch_7">
     <path d="M 54.3 48.15625 
L 238.7625 48.15625 
Q 240.7625 48.15625 240.7625 46.15625 
L 240.7625 17.8 
Q 240.7625 15.8 238.7625 15.8 
L 54.3 15.8 
Q 52.3 15.8 52.3 17.8 
L 52.3 46.15625 
Q 52.3 48.15625 54.3 48.15625 
z
" style="fill:#eeeeee;opacity:0.8;stroke:#cccccc;stroke-linejoin:miter;stroke-width:0.5;"/>
    </g>
    <g id="line2d_27"/>
    <g id="line2d_28">
     <g>
      <use style="fill:#348abd;stroke:#348abd;" x="66.3" xlink:href="#maae57e5423" y="23.898438"/>
     </g>
    </g>
    <g id="text_15">
     <!-- Экспериментальные данные -->
     <g transform="translate(84.3 27.398438)scale(0.1 -0.1)">
      <defs>
       <path d="M 5.421875 15.921875 
Q 15.71875 6.6875 28.21875 6.6875 
Q 41.109375 6.6875 46.921875 13.625 
Q 52.734375 20.5625 53.8125 32.234375 
L 14.84375 32.234375 
L 14.84375 40.53125 
L 53.8125 40.53125 
Q 52.734375 52.203125 46.921875 59.15625 
Q 41.109375 66.109375 28.21875 66.109375 
Q 15.71875 66.109375 5.421875 56.890625 
L 5.421875 67.28125 
Q 15.578125 74.21875 28.8125 74.21875 
Q 45.171875 74.21875 54.6875 64.078125 
Q 64.203125 53.953125 64.203125 36.421875 
Q 64.203125 18.84375 54.6875 8.703125 
Q 45.171875 -1.421875 28.8125 -1.421875 
Q 15.765625 -1.421875 5.421875 5.609375 
z
" id="DejaVuSans-1069"/>
       <path d="M 9.078125 54.6875 
L 18.015625 54.6875 
L 18.015625 29 
L 43.359375 54.6875 
L 54.390625 54.6875 
L 33.5 33.546875 
L 57.078125 0 
L 47.015625 0 
L 27.640625 27.59375 
L 18.015625 17.828125 
L 18.015625 0 
L 9.078125 0 
z
" id="DejaVuSans-1082"/>
       <path d="M 48.78125 52.59375 
L 48.78125 44.1875 
Q 44.96875 46.296875 41.140625 47.34375 
Q 37.3125 48.390625 33.40625 48.390625 
Q 24.65625 48.390625 19.8125 42.84375 
Q 14.984375 37.3125 14.984375 27.296875 
Q 14.984375 17.28125 19.8125 11.734375 
Q 24.65625 6.203125 33.40625 6.203125 
Q 37.3125 6.203125 41.140625 7.25 
Q 44.96875 8.296875 48.78125 10.40625 
L 48.78125 2.09375 
Q 45.015625 0.34375 40.984375 -0.53125 
Q 36.96875 -1.421875 32.421875 -1.421875 
Q 20.0625 -1.421875 12.78125 6.34375 
Q 5.515625 14.109375 5.515625 27.296875 
Q 5.515625 40.671875 12.859375 48.328125 
Q 20.21875 56 33.015625 56 
Q 37.15625 56 41.109375 55.140625 
Q 45.0625 54.296875 48.78125 52.59375 
z
" id="DejaVuSans-1089"/>
       <path d="M 56.296875 54.6875 
L 56.296875 0 
L 47.265625 0 
L 47.265625 47.515625 
L 18.109375 47.515625 
L 18.109375 0 
L 9.078125 0 
L 9.078125 54.6875 
z
" id="DejaVuSans-1087"/>
       <path d="M 56.203125 29.59375 
L 56.203125 25.203125 
L 14.890625 25.203125 
Q 15.484375 15.921875 20.484375 11.0625 
Q 25.484375 6.203125 34.421875 6.203125 
Q 39.59375 6.203125 44.453125 7.46875 
Q 49.3125 8.734375 54.109375 11.28125 
L 54.109375 2.78125 
Q 49.265625 0.734375 44.1875 -0.34375 
Q 39.109375 -1.421875 33.890625 -1.421875 
Q 20.796875 -1.421875 13.15625 6.1875 
Q 5.515625 13.8125 5.515625 26.8125 
Q 5.515625 40.234375 12.765625 48.109375 
Q 20.015625 56 32.328125 56 
Q 43.359375 56 49.78125 48.890625 
Q 56.203125 41.796875 56.203125 29.59375 
z
M 47.21875 32.234375 
Q 47.125 39.59375 43.09375 43.984375 
Q 39.0625 48.390625 32.421875 48.390625 
Q 24.90625 48.390625 20.390625 44.140625 
Q 15.875 39.890625 15.1875 32.171875 
z
" id="DejaVuSans-1077"/>
       <path d="M 18.109375 8.203125 
L 18.109375 -20.796875 
L 9.078125 -20.796875 
L 9.078125 54.6875 
L 18.109375 54.6875 
L 18.109375 46.390625 
Q 20.953125 51.265625 25.265625 53.625 
Q 29.59375 56 35.59375 56 
Q 45.5625 56 51.78125 48.09375 
Q 58.015625 40.1875 58.015625 27.296875 
Q 58.015625 14.40625 51.78125 6.484375 
Q 45.5625 -1.421875 35.59375 -1.421875 
Q 29.59375 -1.421875 25.265625 0.953125 
Q 20.953125 3.328125 18.109375 8.203125 
z
M 48.6875 27.296875 
Q 48.6875 37.203125 44.609375 42.84375 
Q 40.53125 48.484375 33.40625 48.484375 
Q 26.265625 48.484375 22.1875 42.84375 
Q 18.109375 37.203125 18.109375 27.296875 
Q 18.109375 17.390625 22.1875 11.75 
Q 26.265625 6.109375 33.40625 6.109375 
Q 40.53125 6.109375 44.609375 11.75 
Q 48.6875 17.390625 48.6875 27.296875 
z
" id="DejaVuSans-1088"/>
       <path d="M 55.90625 54.6875 
L 55.90625 0 
L 46.96875 0 
L 46.96875 43.890625 
L 20.609375 0 
L 9.078125 0 
L 9.078125 54.6875 
L 18.015625 54.6875 
L 18.015625 10.890625 
L 44.34375 54.6875 
z
" id="DejaVuSans-1080"/>
       <path d="M 9.078125 54.6875 
L 22.21875 54.6875 
L 37.75 18.0625 
L 53.328125 54.6875 
L 66.359375 54.6875 
L 66.359375 0 
L 57.328125 0 
L 57.328125 46.09375 
L 42.234375 10.5 
L 33.25 10.5 
L 18.109375 46.09375 
L 18.109375 0 
L 9.078125 0 
z
" id="DejaVuSans-1084"/>
       <path d="M 9.078125 54.6875 
L 18.109375 54.6875 
L 18.109375 32.375 
L 47.265625 32.375 
L 47.265625 54.6875 
L 56.296875 54.6875 
L 56.296875 0 
L 47.265625 0 
L 47.265625 25.203125 
L 18.109375 25.203125 
L 18.109375 0 
L 9.078125 0 
z
" id="DejaVuSans-1085"/>
       <path d="M 2.9375 54.6875 
L 55.328125 54.6875 
L 55.328125 47.515625 
L 33.546875 47.515625 
L 33.546875 0 
L 24.703125 0 
L 24.703125 47.515625 
L 2.9375 47.515625 
z
" id="DejaVuSans-1090"/>
       <path d="M 34.28125 27.484375 
Q 23.390625 27.484375 19.1875 25 
Q 14.984375 22.515625 14.984375 16.5 
Q 14.984375 11.71875 18.140625 8.90625 
Q 21.296875 6.109375 26.703125 6.109375 
Q 34.1875 6.109375 38.703125 11.40625 
Q 43.21875 16.703125 43.21875 25.484375 
L 43.21875 27.484375 
z
M 52.203125 31.203125 
L 52.203125 0 
L 43.21875 0 
L 43.21875 8.296875 
Q 40.140625 3.328125 35.546875 0.953125 
Q 30.953125 -1.421875 24.3125 -1.421875 
Q 15.921875 -1.421875 10.953125 3.296875 
Q 6 8.015625 6 15.921875 
Q 6 25.140625 12.171875 29.828125 
Q 18.359375 34.515625 30.609375 34.515625 
L 43.21875 34.515625 
L 43.21875 35.40625 
Q 43.21875 41.609375 39.140625 45 
Q 35.0625 48.390625 27.6875 48.390625 
Q 23 48.390625 18.546875 47.265625 
Q 14.109375 46.140625 10.015625 43.890625 
L 10.015625 52.203125 
Q 14.9375 54.109375 19.578125 55.046875 
Q 24.21875 56 28.609375 56 
Q 40.484375 56 46.34375 49.84375 
Q 52.203125 43.703125 52.203125 31.203125 
z
" id="DejaVuSans-1072"/>
       <path d="M 3.71875 0 
L 3.71875 7.46875 
Q 12.59375 8.84375 15.328125 14.984375 
Q 18.65625 23.640625 18.65625 45.75 
L 18.65625 54.6875 
L 55.609375 54.6875 
L 55.609375 0 
L 46.625 0 
L 46.625 47.515625 
L 27.640625 47.515625 
L 27.640625 42.09375 
Q 27.640625 21 23.34375 11.53125 
Q 18.75 1.421875 3.71875 0 
z
" id="DejaVuSans-1083"/>
       <path d="M 43.453125 16.21875 
Q 43.453125 20.609375 40.25 22.90625 
Q 37.0625 25.203125 30.90625 25.203125 
L 18.109375 25.203125 
L 18.109375 7.171875 
L 30.90625 7.171875 
Q 37.0625 7.171875 40.25 9.484375 
Q 43.453125 11.8125 43.453125 16.21875 
z
M 9.078125 54.6875 
L 18.109375 54.6875 
L 18.109375 32.375 
L 31.296875 32.375 
Q 41.75 32.375 47.390625 28.390625 
Q 53.03125 24.421875 53.03125 16.21875 
Q 53.03125 8.015625 47.390625 4 
Q 41.75 0 31.296875 0 
L 9.078125 0 
z
" id="DejaVuSans-1100"/>
       <path d="M 61.078125 54.6875 
L 70.0625 54.6875 
L 70.0625 0 
L 61.078125 0 
z
M 65.578125 56 
z
M 43.453125 16.21875 
Q 43.453125 20.609375 40.25 22.90625 
Q 37.0625 25.203125 30.90625 25.203125 
L 18.109375 25.203125 
L 18.109375 7.171875 
L 30.90625 7.171875 
Q 37.0625 7.171875 40.25 9.484375 
Q 43.453125 11.8125 43.453125 16.21875 
z
M 9.078125 54.6875 
L 18.109375 54.6875 
L 18.109375 32.375 
L 31.296875 32.375 
Q 41.75 32.375 47.390625 28.390625 
Q 53.03125 24.421875 53.03125 16.21875 
Q 53.03125 8.015625 47.390625 4 
Q 41.75 0 31.296875 0 
L 9.078125 0 
z
" id="DejaVuSans-1099"/>
       <path id="DejaVuSans-32"/>
       <path d="M 21.625 7.171875 
L 47.703125 7.171875 
L 47.703125 47.515625 
L 28.8125 47.515625 
L 28.8125 40.671875 
Q 28.8125 20.5625 23.046875 9.8125 
z
M 8.59375 7.171875 
Q 13.03125 9.125 14.984375 13.28125 
Q 19.78125 23.578125 19.78125 44.34375 
L 19.78125 54.6875 
L 56.734375 54.6875 
L 56.734375 7.171875 
L 63.921875 7.171875 
L 63.921875 -13.8125 
L 56.734375 -13.8125 
L 56.734375 0 
L 12.40625 0 
L 12.40625 -13.8125 
L 5.21875 -13.8125 
L 5.21875 7.171875 
z
" id="DejaVuSans-1076"/>
      </defs>
      <use xlink:href="#DejaVuSans-1069"/>
      <use x="69.824219" xlink:href="#DejaVuSans-1082"/>
      <use x="130.224609" xlink:href="#DejaVuSans-1089"/>
      <use x="185.205078" xlink:href="#DejaVuSans-1087"/>
      <use x="250.585938" xlink:href="#DejaVuSans-1077"/>
      <use x="312.109375" xlink:href="#DejaVuSans-1088"/>
      <use x="375.585938" xlink:href="#DejaVuSans-1080"/>
      <use x="440.576172" xlink:href="#DejaVuSans-1084"/>
      <use x="516.015625" xlink:href="#DejaVuSans-1077"/>
      <use x="577.539062" xlink:href="#DejaVuSans-1085"/>
      <use x="642.919922" xlink:href="#DejaVuSans-1090"/>
      <use x="701.171875" xlink:href="#DejaVuSans-1072"/>
      <use x="762.451172" xlink:href="#DejaVuSans-1083"/>
      <use x="826.367188" xlink:href="#DejaVuSans-1100"/>
      <use x="885.302734" xlink:href="#DejaVuSans-1085"/>
      <use x="950.683594" xlink:href="#DejaVuSans-1099"/>
      <use x="1029.638672" xlink:href="#DejaVuSans-1077"/>
      <use x="1091.162109" xlink:href="#DejaVuSans-32"/>
      <use x="1122.949219" xlink:href="#DejaVuSans-1076"/>
      <use x="1192.089844" xlink:href="#DejaVuSans-1072"/>
      <use x="1253.369141" xlink:href="#DejaVuSans-1085"/>
      <use x="1318.75" xlink:href="#DejaVuSans-1085"/>
      <use x="1384.130859" xlink:href="#DejaVuSans-1099"/>
      <use x="1463.085938" xlink:href="#DejaVuSans-1077"/>
     </g>
    </g>
    <g id="line2d_29">
     <path d="M 56.3 38.576563 
L 76.3 38.576563 
" style="fill:none;stroke:#a60628;stroke-linecap:square;stroke-width:2;"/>
    </g>
    <g id="line2d_30"/>
    <g id="text_16">
     <!-- Линейная аппроксимация -->
     <g transform="translate(84.3 42.076563)scale(0.1 -0.1)">
      <defs>
       <path d="M 4.109375 0 
L 4.109375 8.296875 
Q 14.703125 10.59375 17.71875 18.609375 
Q 21.96875 31.203125 21.96875 60.5 
L 21.96875 72.90625 
L 65.328125 72.90625 
L 65.328125 0 
L 55.46875 0 
L 55.46875 64.59375 
L 31.78125 64.59375 
L 31.78125 55.609375 
Q 31.78125 27.984375 26.8125 15.09375 
Q 22.015625 2.734375 4.109375 0 
z
" id="DejaVuSans-1051"/>
       <path d="M 55.90625 54.6875 
L 55.90625 0 
L 46.96875 0 
L 46.96875 43.890625 
L 20.609375 0 
L 9.078125 0 
L 9.078125 54.6875 
L 18.015625 54.6875 
L 18.015625 10.890625 
L 44.34375 54.6875 
z
M 17.234375 75.96875 
L 23 75.96875 
Q 23.53125 72.3125 25.890625 70.46875 
Q 28.265625 68.640625 32.515625 68.640625 
Q 36.71875 68.640625 39.0625 70.453125 
Q 41.40625 72.265625 42.046875 75.96875 
L 47.796875 75.96875 
Q 47.3125 68.984375 43.453125 65.46875 
Q 39.59375 61.953125 32.515625 61.953125 
Q 25.4375 61.953125 21.578125 65.46875 
Q 17.71875 68.984375 17.234375 75.96875 
z
" id="DejaVuSans-1081"/>
       <path d="M 18.453125 38.921875 
Q 18.453125 34.859375 21.578125 32.5625 
Q 24.703125 30.28125 30.515625 30.28125 
L 42.625 30.28125 
L 42.625 47.515625 
L 30.515625 47.515625 
Q 24.703125 47.515625 21.578125 45.265625 
Q 18.453125 43.015625 18.453125 38.921875 
z
M 5.671875 0 
L 22.359375 23.96875 
Q 16.703125 25.25 12.9375 28.59375 
Q 9.1875 31.9375 9.1875 38.921875 
Q 9.1875 46.828125 14.421875 50.75 
Q 19.671875 54.6875 30.28125 54.6875 
L 51.65625 54.6875 
L 51.65625 0 
L 42.625 0 
L 42.625 23.09375 
L 31.453125 23.09375 
L 15.328125 0 
z
" id="DejaVuSans-1103"/>
       <path d="M 30.609375 48.390625 
Q 23.390625 48.390625 19.1875 42.75 
Q 14.984375 37.109375 14.984375 27.296875 
Q 14.984375 17.484375 19.15625 11.84375 
Q 23.34375 6.203125 30.609375 6.203125 
Q 37.796875 6.203125 41.984375 11.859375 
Q 46.1875 17.53125 46.1875 27.296875 
Q 46.1875 37.015625 41.984375 42.703125 
Q 37.796875 48.390625 30.609375 48.390625 
z
M 30.609375 56 
Q 42.328125 56 49.015625 48.375 
Q 55.71875 40.765625 55.71875 27.296875 
Q 55.71875 13.875 49.015625 6.21875 
Q 42.328125 -1.421875 30.609375 -1.421875 
Q 18.84375 -1.421875 12.171875 6.21875 
Q 5.515625 13.875 5.515625 27.296875 
Q 5.515625 40.765625 12.171875 48.375 
Q 18.84375 56 30.609375 56 
z
" id="DejaVuSans-1086"/>
       <path d="M 56.296875 0 
L 9.078125 0 
L 9.078125 54.6875 
L 18.109375 54.6875 
L 18.109375 7.171875 
L 47.265625 7.171875 
L 47.265625 54.6875 
L 56.296875 54.6875 
L 56.296875 7.171875 
L 63.484375 7.171875 
L 63.484375 -13.8125 
L 56.296875 -13.8125 
z
" id="DejaVuSans-1094"/>
      </defs>
      <use xlink:href="#DejaVuSans-1051"/>
      <use x="75.195312" xlink:href="#DejaVuSans-1080"/>
      <use x="140.185547" xlink:href="#DejaVuSans-1085"/>
      <use x="205.566406" xlink:href="#DejaVuSans-1077"/>
      <use x="267.089844" xlink:href="#DejaVuSans-1081"/>
      <use x="332.080078" xlink:href="#DejaVuSans-1085"/>
      <use x="397.460938" xlink:href="#DejaVuSans-1072"/>
      <use x="458.740234" xlink:href="#DejaVuSans-1103"/>
      <use x="518.896484" xlink:href="#DejaVuSans-32"/>
      <use x="550.683594" xlink:href="#DejaVuSans-1072"/>
      <use x="611.962891" xlink:href="#DejaVuSans-1087"/>
      <use x="677.34375" xlink:href="#DejaVuSans-1087"/>
      <use x="742.724609" xlink:href="#DejaVuSans-1088"/>
      <use x="806.201172" xlink:href="#DejaVuSans-1086"/>
      <use x="867.382812" xlink:href="#DejaVuSans-1082"/>
      <use x="927.783203" xlink:href="#DejaVuSans-1089"/>
      <use x="982.763672" xlink:href="#DejaVuSans-1080"/>
      <use x="1047.753906" xlink:href="#DejaVuSans-1084"/>
      <use x="1123.193359" xlink:href="#DejaVuSans-1072"/>
      <use x="1184.472656" xlink:href="#DejaVuSans-1094"/>
      <use x="1252.539062" xlink:href="#DejaVuSans-1080"/>
      <use x="1317.529297" xlink:href="#DejaVuSans-1103"/>
     </g>
    </g>
   </g>
  </g>
  <g id="axes_2">
   <g id="patch_8">
    <path d="M 451.7 318.7 
L 808.8 318.7 
L 808.8 10.8 
L 451.7 10.8 
z
" style="fill:#eeeeee;"/>
   </g>
   <g id="matplotlib.axis_3">
    <g id="xtick_7">
     <g id="line2d_31">
      <path clip-path="url(#pb6017f7702)" d="M 467.931818 318.7 
L 467.931818 10.8 
" style="fill:none;stroke:#b2b2b2;stroke-dasharray:1.85,0.8;stroke-dashoffset:0;stroke-width:0.5;"/>
     </g>
     <g id="line2d_32">
      <g>
       <use style="stroke:#000000;stroke-width:0.8;" x="467.931818" xlink:href="#m5baf389d14" y="318.7"/>
      </g>
     </g>
     <g id="text_17">
      <!-- 0 -->
      <g transform="translate(464.750568 329.798438)scale(0.1 -0.1)">
       <use xlink:href="#DejaVuSans-48"/>
      </g>
     </g>
    </g>
    <g id="xtick_8">
     <g id="line2d_33">
      <path clip-path="url(#pb6017f7702)" d="M 533.514922 318.7 
L 533.514922 10.8 
" style="fill:none;stroke:#b2b2b2;stroke-dasharray:1.85,0.8;stroke-dashoffset:0;stroke-width:0.5;"/>
     </g>
     <g id="line2d_34">
      <g>
       <use style="stroke:#000000;stroke-width:0.8;" x="533.514922" xlink:href="#m5baf389d14" y="318.7"/>
      </g>
     </g>
     <g id="text_18">
      <!-- 2 -->
      <g transform="translate(530.333672 329.798438)scale(0.1 -0.1)">
       <use xlink:href="#DejaVuSans-50"/>
      </g>
     </g>
    </g>
    <g id="xtick_9">
     <g id="line2d_35">
      <path clip-path="url(#pb6017f7702)" d="M 599.098026 318.7 
L 599.098026 10.8 
" style="fill:none;stroke:#b2b2b2;stroke-dasharray:1.85,0.8;stroke-dashoffset:0;stroke-width:0.5;"/>
     </g>
     <g id="line2d_36">
      <g>
       <use style="stroke:#000000;stroke-width:0.8;" x="599.098026" xlink:href="#m5baf389d14" y="318.7"/>
      </g>
     </g>
     <g id="text_19">
      <!-- 4 -->
      <g transform="translate(595.916776 329.798438)scale(0.1 -0.1)">
       <use xlink:href="#DejaVuSans-52"/>
      </g>
     </g>
    </g>
    <g id="xtick_10">
     <g id="line2d_37">
      <path clip-path="url(#pb6017f7702)" d="M 664.681129 318.7 
L 664.681129 10.8 
" style="fill:none;stroke:#b2b2b2;stroke-dasharray:1.85,0.8;stroke-dashoffset:0;stroke-width:0.5;"/>
     </g>
     <g id="line2d_38">
      <g>
       <use style="stroke:#000000;stroke-width:0.8;" x="664.681129" xlink:href="#m5baf389d14" y="318.7"/>
      </g>
     </g>
     <g id="text_20">
      <!-- 6 -->
      <g transform="translate(661.499879 329.798438)scale(0.1 -0.1)">
       <use xlink:href="#DejaVuSans-54"/>
      </g>
     </g>
    </g>
    <g id="xtick_11">
     <g id="line2d_39">
      <path clip-path="url(#pb6017f7702)" d="M 730.264233 318.7 
L 730.264233 10.8 
" style="fill:none;stroke:#b2b2b2;stroke-dasharray:1.85,0.8;stroke-dashoffset:0;stroke-width:0.5;"/>
     </g>
     <g id="line2d_40">
      <g>
       <use style="stroke:#000000;stroke-width:0.8;" x="730.264233" xlink:href="#m5baf389d14" y="318.7"/>
      </g>
     </g>
     <g id="text_21">
      <!-- 8 -->
      <g transform="translate(727.082983 329.798438)scale(0.1 -0.1)">
       <use xlink:href="#DejaVuSans-56"/>
      </g>
     </g>
    </g>
    <g id="xtick_12">
     <g id="line2d_41">
      <path clip-path="url(#pb6017f7702)" d="M 795.847337 318.7 
L 795.847337 10.8 
" style="fill:none;stroke:#b2b2b2;stroke-dasharray:1.85,0.8;stroke-dashoffset:0;stroke-width:0.5;"/>
     </g>
     <g id="line2d_42">
      <g>
       <use style="stroke:#000000;stroke-width:0.8;" x="795.847337" xlink:href="#m5baf389d14" y="318.7"/>
      </g>
     </g>
     <g id="text_22">
      <!-- 10 -->
      <g transform="translate(789.484837 329.798438)scale(0.1 -0.1)">
       <use xlink:href="#DejaVuSans-49"/>
       <use x="63.623047" xlink:href="#DejaVuSans-48"/>
      </g>
     </g>
    </g>
    <g id="text_23">
     <!-- X -->
     <g transform="translate(626.14 344.99625)scale(0.12 -0.12)">
      <use xlink:href="#DejaVuSans-88"/>
     </g>
    </g>
   </g>
   <g id="matplotlib.axis_4">
    <g id="ytick_7">
     <g id="line2d_43">
      <path clip-path="url(#pb6017f7702)" d="M 451.7 307.753297 
L 808.8 307.753297 
" style="fill:none;stroke:#b2b2b2;stroke-dasharray:1.85,0.8;stroke-dashoffset:0;stroke-width:0.5;"/>
     </g>
     <g id="line2d_44">
      <g>
       <use style="stroke:#000000;stroke-width:0.8;" x="451.7" xlink:href="#m42f89328a6" y="307.753297"/>
      </g>
     </g>
     <g id="text_24">
      <!-- 0.5 -->
      <g transform="translate(432.296875 311.552516)scale(0.1 -0.1)">
       <use xlink:href="#DejaVuSans-48"/>
       <use x="63.623047" xlink:href="#DejaVuSans-46"/>
       <use x="95.410156" xlink:href="#DejaVuSans-53"/>
      </g>
     </g>
    </g>
    <g id="ytick_8">
     <g id="line2d_45">
      <path clip-path="url(#pb6017f7702)" d="M 451.7 263.05072 
L 808.8 263.05072 
" style="fill:none;stroke:#b2b2b2;stroke-dasharray:1.85,0.8;stroke-dashoffset:0;stroke-width:0.5;"/>
     </g>
     <g id="line2d_46">
      <g>
       <use style="stroke:#000000;stroke-width:0.8;" x="451.7" xlink:href="#m42f89328a6" y="263.05072"/>
      </g>
     </g>
     <g id="text_25">
      <!-- 1.0 -->
      <g transform="translate(432.296875 266.849939)scale(0.1 -0.1)">
       <use xlink:href="#DejaVuSans-49"/>
       <use x="63.623047" xlink:href="#DejaVuSans-46"/>
       <use x="95.410156" xlink:href="#DejaVuSans-48"/>
      </g>
     </g>
    </g>
    <g id="ytick_9">
     <g id="line2d_47">
      <path clip-path="url(#pb6017f7702)" d="M 451.7 218.348143 
L 808.8 218.348143 
" style="fill:none;stroke:#b2b2b2;stroke-dasharray:1.85,0.8;stroke-dashoffset:0;stroke-width:0.5;"/>
     </g>
     <g id="line2d_48">
      <g>
       <use style="stroke:#000000;stroke-width:0.8;" x="451.7" xlink:href="#m42f89328a6" y="218.348143"/>
      </g>
     </g>
     <g id="text_26">
      <!-- 1.5 -->
      <g transform="translate(432.296875 222.147362)scale(0.1 -0.1)">
       <use xlink:href="#DejaVuSans-49"/>
       <use x="63.623047" xlink:href="#DejaVuSans-46"/>
       <use x="95.410156" xlink:href="#DejaVuSans-53"/>
      </g>
     </g>
    </g>
    <g id="ytick_10">
     <g id="line2d_49">
      <path clip-path="url(#pb6017f7702)" d="M 451.7 173.645566 
L 808.8 173.645566 
" style="fill:none;stroke:#b2b2b2;stroke-dasharray:1.85,0.8;stroke-dashoffset:0;stroke-width:0.5;"/>
     </g>
     <g id="line2d_50">
      <g>
       <use style="stroke:#000000;stroke-width:0.8;" x="451.7" xlink:href="#m42f89328a6" y="173.645566"/>
      </g>
     </g>
     <g id="text_27">
      <!-- 2.0 -->
      <g transform="translate(432.296875 177.444785)scale(0.1 -0.1)">
       <use xlink:href="#DejaVuSans-50"/>
       <use x="63.623047" xlink:href="#DejaVuSans-46"/>
       <use x="95.410156" xlink:href="#DejaVuSans-48"/>
      </g>
     </g>
    </g>
    <g id="ytick_11">
     <g id="line2d_51">
      <path clip-path="url(#pb6017f7702)" d="M 451.7 128.942989 
L 808.8 128.942989 
" style="fill:none;stroke:#b2b2b2;stroke-dasharray:1.85,0.8;stroke-dashoffset:0;stroke-width:0.5;"/>
     </g>
     <g id="line2d_52">
      <g>
       <use style="stroke:#000000;stroke-width:0.8;" x="451.7" xlink:href="#m42f89328a6" y="128.942989"/>
      </g>
     </g>
     <g id="text_28">
      <!-- 2.5 -->
      <g transform="translate(432.296875 132.742208)scale(0.1 -0.1)">
       <use xlink:href="#DejaVuSans-50"/>
       <use x="63.623047" xlink:href="#DejaVuSans-46"/>
       <use x="95.410156" xlink:href="#DejaVuSans-53"/>
      </g>
     </g>
    </g>
    <g id="ytick_12">
     <g id="line2d_53">
      <path clip-path="url(#pb6017f7702)" d="M 451.7 84.240412 
L 808.8 84.240412 
" style="fill:none;stroke:#b2b2b2;stroke-dasharray:1.85,0.8;stroke-dashoffset:0;stroke-width:0.5;"/>
     </g>
     <g id="line2d_54">
      <g>
       <use style="stroke:#000000;stroke-width:0.8;" x="451.7" xlink:href="#m42f89328a6" y="84.240412"/>
      </g>
     </g>
     <g id="text_29">
      <!-- 3.0 -->
      <g transform="translate(432.296875 88.039631)scale(0.1 -0.1)">
       <use xlink:href="#DejaVuSans-51"/>
       <use x="63.623047" xlink:href="#DejaVuSans-46"/>
       <use x="95.410156" xlink:href="#DejaVuSans-48"/>
      </g>
     </g>
    </g>
    <g id="ytick_13">
     <g id="line2d_55">
      <path clip-path="url(#pb6017f7702)" d="M 451.7 39.537835 
L 808.8 39.537835 
" style="fill:none;stroke:#b2b2b2;stroke-dasharray:1.85,0.8;stroke-dashoffset:0;stroke-width:0.5;"/>
     </g>
     <g id="line2d_56">
      <g>
       <use style="stroke:#000000;stroke-width:0.8;" x="451.7" xlink:href="#m42f89328a6" y="39.537835"/>
      </g>
     </g>
     <g id="text_30">
      <!-- 3.5 -->
      <g transform="translate(432.296875 43.337053)scale(0.1 -0.1)">
       <use xlink:href="#DejaVuSans-51"/>
       <use x="63.623047" xlink:href="#DejaVuSans-46"/>
       <use x="95.410156" xlink:href="#DejaVuSans-53"/>
      </g>
     </g>
    </g>
    <g id="text_31">
     <!-- Y -->
     <g transform="translate(425.80125 168.414688)rotate(-90)scale(0.12 -0.12)">
      <use xlink:href="#DejaVuSans-89"/>
     </g>
    </g>
   </g>
   <g id="line2d_57">
    <g clip-path="url(#pb6017f7702)">
     <use style="fill:#348abd;stroke:#348abd;" x="467.931818" xlink:href="#maae57e5423" y="304.704545"/>
     <use style="fill:#348abd;stroke:#348abd;" x="500.72337" xlink:href="#maae57e5423" y="294.526856"/>
     <use style="fill:#348abd;stroke:#348abd;" x="533.514922" xlink:href="#maae57e5423" y="284.67322"/>
     <use style="fill:#348abd;stroke:#348abd;" x="566.306474" xlink:href="#maae57e5423" y="259.539718"/>
     <use style="fill:#348abd;stroke:#348abd;" x="599.098026" xlink:href="#maae57e5423" y="246.909758"/>
     <use style="fill:#348abd;stroke:#348abd;" x="631.889578" xlink:href="#maae57e5423" y="227.154701"/>
     <use style="fill:#348abd;stroke:#348abd;" x="664.681129" xlink:href="#maae57e5423" y="200.615228"/>
     <use style="fill:#348abd;stroke:#348abd;" x="697.472681" xlink:href="#maae57e5423" y="159.615803"/>
     <use style="fill:#348abd;stroke:#348abd;" x="730.264233" xlink:href="#maae57e5423" y="122.533067"/>
     <use style="fill:#348abd;stroke:#348abd;" x="763.055785" xlink:href="#maae57e5423" y="81.890795"/>
    </g>
   </g>
   <g id="line2d_58">
    <path clip-path="url(#pb6017f7702)" d="M 467.931818 303.229904 
L 471.210973 302.278292 
L 474.490129 301.308283 
L 477.769284 300.319523 
L 481.048439 299.311648 
L 484.327594 298.284289 
L 487.606749 297.237071 
L 490.885904 296.169608 
L 494.16506 295.081509 
L 497.444215 293.972375 
L 500.72337 292.841801 
L 504.002525 291.68937 
L 507.28168 290.514662 
L 510.560836 289.317244 
L 513.839991 288.096679 
L 517.119146 286.852518 
L 520.398301 285.584306 
L 523.677456 284.291577 
L 526.956612 282.973858 
L 530.235767 281.630666 
L 533.514922 280.261507 
L 536.794077 278.865881 
L 540.073232 277.443275 
L 543.352388 275.993167 
L 546.631543 274.515027 
L 549.910698 273.008313 
L 553.189853 271.472471 
L 556.469008 269.906939 
L 559.748163 268.311143 
L 563.027319 266.684498 
L 566.306474 265.026408 
L 569.585629 263.336264 
L 572.864784 261.613447 
L 576.143939 259.857325 
L 579.423095 258.067255 
L 582.70225 256.24258 
L 585.981405 254.382631 
L 589.26056 252.486727 
L 592.539715 250.554171 
L 595.818871 248.584257 
L 599.098026 246.576262 
L 602.377181 244.529448 
L 605.656336 242.443067 
L 608.935491 240.316353 
L 612.214646 238.148526 
L 615.493802 235.938792 
L 618.772957 233.68634 
L 622.052112 231.390345 
L 625.331267 229.049965 
L 628.610422 226.664342 
L 631.889578 224.232601 
L 635.168733 221.753851 
L 638.447888 219.227183 
L 641.727043 216.65167 
L 645.006198 214.026369 
L 648.285354 211.350317 
L 651.564509 208.622533 
L 654.843664 205.842017 
L 658.122819 203.007749 
L 661.401974 200.11869 
L 664.681129 197.173782 
L 667.960285 194.171944 
L 671.23944 191.112076 
L 674.518595 187.993056 
L 677.79775 184.81374 
L 681.076905 181.572964 
L 684.356061 178.269538 
L 687.635216 174.902253 
L 690.914371 171.469872 
L 694.193526 167.971139 
L 697.472681 164.404769 
L 700.751837 160.769457 
L 704.030992 157.063868 
L 707.310147 153.286644 
L 710.589302 149.436402 
L 713.868457 145.511728 
L 717.147612 141.511184 
L 720.426768 137.433303 
L 723.705923 133.276591 
L 726.985078 129.039524 
L 730.264233 124.720547 
L 733.543388 120.318079 
L 736.822544 115.830503 
L 740.101699 111.256177 
L 743.380854 106.593421 
L 746.660009 101.840527 
L 749.939164 96.995753 
L 753.21832 92.057322 
L 756.497475 87.023424 
L 759.77663 81.892212 
L 763.055785 76.661807 
L 766.33494 71.33029 
L 769.614096 65.895707 
L 772.893251 60.356064 
L 776.172406 54.709333 
L 779.451561 48.953441 
L 782.730716 43.086279 
L 786.009871 37.105696 
L 789.289027 31.0095 
L 792.568182 24.795455 
" style="fill:none;stroke:#a60628;stroke-linecap:square;stroke-width:2;"/>
   </g>
   <g id="patch_9">
    <path d="M 451.7 318.7 
L 451.7 10.8 
" style="fill:none;stroke:#bcbcbc;stroke-linecap:square;stroke-linejoin:miter;stroke-width:0.8;"/>
   </g>
   <g id="patch_10">
    <path d="M 808.8 318.7 
L 808.8 10.8 
" style="fill:none;stroke:#bcbcbc;stroke-linecap:square;stroke-linejoin:miter;stroke-width:0.8;"/>
   </g>
   <g id="patch_11">
    <path d="M 451.7 318.7 
L 808.8 318.7 
" style="fill:none;stroke:#bcbcbc;stroke-linecap:square;stroke-linejoin:miter;stroke-width:0.8;"/>
   </g>
   <g id="patch_12">
    <path d="M 451.7 10.8 
L 808.8 10.8 
" style="fill:none;stroke:#bcbcbc;stroke-linecap:square;stroke-linejoin:miter;stroke-width:0.8;"/>
   </g>
   <g id="legend_2">
    <g id="patch_13">
     <path d="M 458.7 48.15625 
L 677.384375 48.15625 
Q 679.384375 48.15625 679.384375 46.15625 
L 679.384375 17.8 
Q 679.384375 15.8 677.384375 15.8 
L 458.7 15.8 
Q 456.7 15.8 456.7 17.8 
L 456.7 46.15625 
Q 456.7 48.15625 458.7 48.15625 
z
" style="fill:#eeeeee;opacity:0.8;stroke:#cccccc;stroke-linejoin:miter;stroke-width:0.5;"/>
    </g>
    <g id="line2d_59"/>
    <g id="line2d_60">
     <g>
      <use style="fill:#348abd;stroke:#348abd;" x="470.7" xlink:href="#maae57e5423" y="23.898438"/>
     </g>
    </g>
    <g id="text_32">
     <!-- Экспериментальные данные -->
     <g transform="translate(488.7 27.398438)scale(0.1 -0.1)">
      <use xlink:href="#DejaVuSans-1069"/>
      <use x="69.824219" xlink:href="#DejaVuSans-1082"/>
      <use x="130.224609" xlink:href="#DejaVuSans-1089"/>
      <use x="185.205078" xlink:href="#DejaVuSans-1087"/>
      <use x="250.585938" xlink:href="#DejaVuSans-1077"/>
      <use x="312.109375" xlink:href="#DejaVuSans-1088"/>
      <use x="375.585938" xlink:href="#DejaVuSans-1080"/>
      <use x="440.576172" xlink:href="#DejaVuSans-1084"/>
      <use x="516.015625" xlink:href="#DejaVuSans-1077"/>
      <use x="577.539062" xlink:href="#DejaVuSans-1085"/>
      <use x="642.919922" xlink:href="#DejaVuSans-1090"/>
      <use x="701.171875" xlink:href="#DejaVuSans-1072"/>
      <use x="762.451172" xlink:href="#DejaVuSans-1083"/>
      <use x="826.367188" xlink:href="#DejaVuSans-1100"/>
      <use x="885.302734" xlink:href="#DejaVuSans-1085"/>
      <use x="950.683594" xlink:href="#DejaVuSans-1099"/>
      <use x="1029.638672" xlink:href="#DejaVuSans-1077"/>
      <use x="1091.162109" xlink:href="#DejaVuSans-32"/>
      <use x="1122.949219" xlink:href="#DejaVuSans-1076"/>
      <use x="1192.089844" xlink:href="#DejaVuSans-1072"/>
      <use x="1253.369141" xlink:href="#DejaVuSans-1085"/>
      <use x="1318.75" xlink:href="#DejaVuSans-1085"/>
      <use x="1384.130859" xlink:href="#DejaVuSans-1099"/>
      <use x="1463.085938" xlink:href="#DejaVuSans-1077"/>
     </g>
    </g>
    <g id="line2d_61">
     <path d="M 460.7 38.576563 
L 480.7 38.576563 
" style="fill:none;stroke:#a60628;stroke-linecap:square;stroke-width:2;"/>
    </g>
    <g id="line2d_62"/>
    <g id="text_33">
     <!-- Экспоненциальная аппроксимация -->
     <g transform="translate(488.7 42.076563)scale(0.1 -0.1)">
      <use xlink:href="#DejaVuSans-1069"/>
      <use x="69.824219" xlink:href="#DejaVuSans-1082"/>
      <use x="130.224609" xlink:href="#DejaVuSans-1089"/>
      <use x="185.205078" xlink:href="#DejaVuSans-1087"/>
      <use x="250.585938" xlink:href="#DejaVuSans-1086"/>
      <use x="311.767578" xlink:href="#DejaVuSans-1085"/>
      <use x="377.148438" xlink:href="#DejaVuSans-1077"/>
      <use x="438.671875" xlink:href="#DejaVuSans-1085"/>
      <use x="504.052734" xlink:href="#DejaVuSans-1094"/>
      <use x="572.119141" xlink:href="#DejaVuSans-1080"/>
      <use x="637.109375" xlink:href="#DejaVuSans-1072"/>
      <use x="698.388672" xlink:href="#DejaVuSans-1083"/>
      <use x="762.304688" xlink:href="#DejaVuSans-1100"/>
      <use x="821.240234" xlink:href="#DejaVuSans-1085"/>
      <use x="886.621094" xlink:href="#DejaVuSans-1072"/>
      <use x="947.900391" xlink:href="#DejaVuSans-1103"/>
      <use x="1008.056641" xlink:href="#DejaVuSans-32"/>
      <use x="1039.84375" xlink:href="#DejaVuSans-1072"/>
      <use x="1101.123047" xlink:href="#DejaVuSans-1087"/>
      <use x="1166.503906" xlink:href="#DejaVuSans-1087"/>
      <use x="1231.884766" xlink:href="#DejaVuSans-1088"/>
      <use x="1295.361328" xlink:href="#DejaVuSans-1086"/>
      <use x="1356.542969" xlink:href="#DejaVuSans-1082"/>
      <use x="1416.943359" xlink:href="#DejaVuSans-1089"/>
      <use x="1471.923828" xlink:href="#DejaVuSans-1080"/>
      <use x="1536.914062" xlink:href="#DejaVuSans-1084"/>
      <use x="1612.353516" xlink:href="#DejaVuSans-1072"/>
      <use x="1673.632812" xlink:href="#DejaVuSans-1094"/>
      <use x="1741.699219" xlink:href="#DejaVuSans-1080"/>
      <use x="1806.689453" xlink:href="#DejaVuSans-1103"/>
     </g>
    </g>
   </g>
  </g>
  <g id="axes_3">
   <g id="patch_14">
    <path d="M 856.1 318.7 
L 1213.2 318.7 
L 1213.2 10.8 
L 856.1 10.8 
z
" style="fill:#eeeeee;"/>
   </g>
   <g id="matplotlib.axis_5">
    <g id="xtick_13">
     <g id="line2d_63">
      <path clip-path="url(#p2048c58819)" d="M 872.331818 318.7 
L 872.331818 10.8 
" style="fill:none;stroke:#b2b2b2;stroke-dasharray:1.85,0.8;stroke-dashoffset:0;stroke-width:0.5;"/>
     </g>
     <g id="line2d_64">
      <g>
       <use style="stroke:#000000;stroke-width:0.8;" x="872.331818" xlink:href="#m5baf389d14" y="318.7"/>
      </g>
     </g>
     <g id="text_34">
      <!-- 0 -->
      <g transform="translate(869.150568 329.798438)scale(0.1 -0.1)">
       <use xlink:href="#DejaVuSans-48"/>
      </g>
     </g>
    </g>
    <g id="xtick_14">
     <g id="line2d_65">
      <path clip-path="url(#p2048c58819)" d="M 937.914922 318.7 
L 937.914922 10.8 
" style="fill:none;stroke:#b2b2b2;stroke-dasharray:1.85,0.8;stroke-dashoffset:0;stroke-width:0.5;"/>
     </g>
     <g id="line2d_66">
      <g>
       <use style="stroke:#000000;stroke-width:0.8;" x="937.914922" xlink:href="#m5baf389d14" y="318.7"/>
      </g>
     </g>
     <g id="text_35">
      <!-- 2 -->
      <g transform="translate(934.733672 329.798438)scale(0.1 -0.1)">
       <use xlink:href="#DejaVuSans-50"/>
      </g>
     </g>
    </g>
    <g id="xtick_15">
     <g id="line2d_67">
      <path clip-path="url(#p2048c58819)" d="M 1003.498026 318.7 
L 1003.498026 10.8 
" style="fill:none;stroke:#b2b2b2;stroke-dasharray:1.85,0.8;stroke-dashoffset:0;stroke-width:0.5;"/>
     </g>
     <g id="line2d_68">
      <g>
       <use style="stroke:#000000;stroke-width:0.8;" x="1003.498026" xlink:href="#m5baf389d14" y="318.7"/>
      </g>
     </g>
     <g id="text_36">
      <!-- 4 -->
      <g transform="translate(1000.316776 329.798438)scale(0.1 -0.1)">
       <use xlink:href="#DejaVuSans-52"/>
      </g>
     </g>
    </g>
    <g id="xtick_16">
     <g id="line2d_69">
      <path clip-path="url(#p2048c58819)" d="M 1069.081129 318.7 
L 1069.081129 10.8 
" style="fill:none;stroke:#b2b2b2;stroke-dasharray:1.85,0.8;stroke-dashoffset:0;stroke-width:0.5;"/>
     </g>
     <g id="line2d_70">
      <g>
       <use style="stroke:#000000;stroke-width:0.8;" x="1069.081129" xlink:href="#m5baf389d14" y="318.7"/>
      </g>
     </g>
     <g id="text_37">
      <!-- 6 -->
      <g transform="translate(1065.899879 329.798438)scale(0.1 -0.1)">
       <use xlink:href="#DejaVuSans-54"/>
      </g>
     </g>
    </g>
    <g id="xtick_17">
     <g id="line2d_71">
      <path clip-path="url(#p2048c58819)" d="M 1134.664233 318.7 
L 1134.664233 10.8 
" style="fill:none;stroke:#b2b2b2;stroke-dasharray:1.85,0.8;stroke-dashoffset:0;stroke-width:0.5;"/>
     </g>
     <g id="line2d_72">
      <g>
       <use style="stroke:#000000;stroke-width:0.8;" x="1134.664233" xlink:href="#m5baf389d14" y="318.7"/>
      </g>
     </g>
     <g id="text_38">
      <!-- 8 -->
      <g transform="translate(1131.482983 329.798438)scale(0.1 -0.1)">
       <use xlink:href="#DejaVuSans-56"/>
      </g>
     </g>
    </g>
    <g id="xtick_18">
     <g id="line2d_73">
      <path clip-path="url(#p2048c58819)" d="M 1200.247337 318.7 
L 1200.247337 10.8 
" style="fill:none;stroke:#b2b2b2;stroke-dasharray:1.85,0.8;stroke-dashoffset:0;stroke-width:0.5;"/>
     </g>
     <g id="line2d_74">
      <g>
       <use style="stroke:#000000;stroke-width:0.8;" x="1200.247337" xlink:href="#m5baf389d14" y="318.7"/>
      </g>
     </g>
     <g id="text_39">
      <!-- 10 -->
      <g transform="translate(1193.884837 329.798438)scale(0.1 -0.1)">
       <use xlink:href="#DejaVuSans-49"/>
       <use x="63.623047" xlink:href="#DejaVuSans-48"/>
      </g>
     </g>
    </g>
    <g id="text_40">
     <!-- X -->
     <g transform="translate(1030.54 344.99625)scale(0.12 -0.12)">
      <use xlink:href="#DejaVuSans-88"/>
     </g>
    </g>
   </g>
   <g id="matplotlib.axis_6">
    <g id="ytick_14">
     <g id="line2d_75">
      <path clip-path="url(#p2048c58819)" d="M 856.1 304.704545 
L 1213.2 304.704545 
" style="fill:none;stroke:#b2b2b2;stroke-dasharray:1.85,0.8;stroke-dashoffset:0;stroke-width:0.5;"/>
     </g>
     <g id="line2d_76">
      <g>
       <use style="stroke:#000000;stroke-width:0.8;" x="856.1" xlink:href="#m42f89328a6" y="304.704545"/>
      </g>
     </g>
     <g id="text_41">
      <!-- 0.0 -->
      <g transform="translate(836.696875 308.503764)scale(0.1 -0.1)">
       <use xlink:href="#DejaVuSans-48"/>
       <use x="63.623047" xlink:href="#DejaVuSans-46"/>
       <use x="95.410156" xlink:href="#DejaVuSans-48"/>
      </g>
     </g>
    </g>
    <g id="ytick_15">
     <g id="line2d_77">
      <path clip-path="url(#p2048c58819)" d="M 856.1 261.745166 
L 1213.2 261.745166 
" style="fill:none;stroke:#b2b2b2;stroke-dasharray:1.85,0.8;stroke-dashoffset:0;stroke-width:0.5;"/>
     </g>
     <g id="line2d_78">
      <g>
       <use style="stroke:#000000;stroke-width:0.8;" x="856.1" xlink:href="#m42f89328a6" y="261.745166"/>
      </g>
     </g>
     <g id="text_42">
      <!-- 0.5 -->
      <g transform="translate(836.696875 265.544385)scale(0.1 -0.1)">
       <use xlink:href="#DejaVuSans-48"/>
       <use x="63.623047" xlink:href="#DejaVuSans-46"/>
       <use x="95.410156" xlink:href="#DejaVuSans-53"/>
      </g>
     </g>
    </g>
    <g id="ytick_16">
     <g id="line2d_79">
      <path clip-path="url(#p2048c58819)" d="M 856.1 218.785787 
L 1213.2 218.785787 
" style="fill:none;stroke:#b2b2b2;stroke-dasharray:1.85,0.8;stroke-dashoffset:0;stroke-width:0.5;"/>
     </g>
     <g id="line2d_80">
      <g>
       <use style="stroke:#000000;stroke-width:0.8;" x="856.1" xlink:href="#m42f89328a6" y="218.785787"/>
      </g>
     </g>
     <g id="text_43">
      <!-- 1.0 -->
      <g transform="translate(836.696875 222.585006)scale(0.1 -0.1)">
       <use xlink:href="#DejaVuSans-49"/>
       <use x="63.623047" xlink:href="#DejaVuSans-46"/>
       <use x="95.410156" xlink:href="#DejaVuSans-48"/>
      </g>
     </g>
    </g>
    <g id="ytick_17">
     <g id="line2d_81">
      <path clip-path="url(#p2048c58819)" d="M 856.1 175.826408 
L 1213.2 175.826408 
" style="fill:none;stroke:#b2b2b2;stroke-dasharray:1.85,0.8;stroke-dashoffset:0;stroke-width:0.5;"/>
     </g>
     <g id="line2d_82">
      <g>
       <use style="stroke:#000000;stroke-width:0.8;" x="856.1" xlink:href="#m42f89328a6" y="175.826408"/>
      </g>
     </g>
     <g id="text_44">
      <!-- 1.5 -->
      <g transform="translate(836.696875 179.625627)scale(0.1 -0.1)">
       <use xlink:href="#DejaVuSans-49"/>
       <use x="63.623047" xlink:href="#DejaVuSans-46"/>
       <use x="95.410156" xlink:href="#DejaVuSans-53"/>
      </g>
     </g>
    </g>
    <g id="ytick_18">
     <g id="line2d_83">
      <path clip-path="url(#p2048c58819)" d="M 856.1 132.867029 
L 1213.2 132.867029 
" style="fill:none;stroke:#b2b2b2;stroke-dasharray:1.85,0.8;stroke-dashoffset:0;stroke-width:0.5;"/>
     </g>
     <g id="line2d_84">
      <g>
       <use style="stroke:#000000;stroke-width:0.8;" x="856.1" xlink:href="#m42f89328a6" y="132.867029"/>
      </g>
     </g>
     <g id="text_45">
      <!-- 2.0 -->
      <g transform="translate(836.696875 136.666248)scale(0.1 -0.1)">
       <use xlink:href="#DejaVuSans-50"/>
       <use x="63.623047" xlink:href="#DejaVuSans-46"/>
       <use x="95.410156" xlink:href="#DejaVuSans-48"/>
      </g>
     </g>
    </g>
    <g id="ytick_19">
     <g id="line2d_85">
      <path clip-path="url(#p2048c58819)" d="M 856.1 89.90765 
L 1213.2 89.90765 
" style="fill:none;stroke:#b2b2b2;stroke-dasharray:1.85,0.8;stroke-dashoffset:0;stroke-width:0.5;"/>
     </g>
     <g id="line2d_86">
      <g>
       <use style="stroke:#000000;stroke-width:0.8;" x="856.1" xlink:href="#m42f89328a6" y="89.90765"/>
      </g>
     </g>
     <g id="text_46">
      <!-- 2.5 -->
      <g transform="translate(836.696875 93.706869)scale(0.1 -0.1)">
       <use xlink:href="#DejaVuSans-50"/>
       <use x="63.623047" xlink:href="#DejaVuSans-46"/>
       <use x="95.410156" xlink:href="#DejaVuSans-53"/>
      </g>
     </g>
    </g>
    <g id="ytick_20">
     <g id="line2d_87">
      <path clip-path="url(#p2048c58819)" d="M 856.1 46.948271 
L 1213.2 46.948271 
" style="fill:none;stroke:#b2b2b2;stroke-dasharray:1.85,0.8;stroke-dashoffset:0;stroke-width:0.5;"/>
     </g>
     <g id="line2d_88">
      <g>
       <use style="stroke:#000000;stroke-width:0.8;" x="856.1" xlink:href="#m42f89328a6" y="46.948271"/>
      </g>
     </g>
     <g id="text_47">
      <!-- 3.0 -->
      <g transform="translate(836.696875 50.747489)scale(0.1 -0.1)">
       <use xlink:href="#DejaVuSans-51"/>
       <use x="63.623047" xlink:href="#DejaVuSans-46"/>
       <use x="95.410156" xlink:href="#DejaVuSans-48"/>
      </g>
     </g>
    </g>
    <g id="text_48">
     <!-- Y -->
     <g transform="translate(830.20125 168.414688)rotate(-90)scale(0.12 -0.12)">
      <use xlink:href="#DejaVuSans-89"/>
     </g>
    </g>
   </g>
   <g id="line2d_89">
    <g clip-path="url(#p2048c58819)">
     <use style="fill:#348abd;stroke:#348abd;" x="872.331818" xlink:href="#maae57e5423" y="258.815302"/>
     <use style="fill:#348abd;stroke:#348abd;" x="905.12337" xlink:href="#maae57e5423" y="249.034497"/>
     <use style="fill:#348abd;stroke:#348abd;" x="937.914922" xlink:href="#maae57e5423" y="239.565107"/>
     <use style="fill:#348abd;stroke:#348abd;" x="970.706474" xlink:href="#maae57e5423" y="215.411699"/>
     <use style="fill:#348abd;stroke:#348abd;" x="1003.498026" xlink:href="#maae57e5423" y="203.274249"/>
     <use style="fill:#348abd;stroke:#348abd;" x="1036.289578" xlink:href="#maae57e5423" y="184.28955"/>
     <use style="fill:#348abd;stroke:#348abd;" x="1069.081129" xlink:href="#maae57e5423" y="158.784997"/>
     <use style="fill:#348abd;stroke:#348abd;" x="1101.872681" xlink:href="#maae57e5423" y="119.384363"/>
     <use style="fill:#348abd;stroke:#348abd;" x="1134.664233" xlink:href="#maae57e5423" y="83.747686"/>
     <use style="fill:#348abd;stroke:#348abd;" x="1167.455785" xlink:href="#maae57e5423" y="44.690278"/>
    </g>
   </g>
   <g id="line2d_90">
    <path clip-path="url(#p2048c58819)" d="M 872.331818 304.704545 
L 875.610973 302.468214 
L 878.890129 300.070834 
L 882.169284 297.608654 
L 885.448439 295.103427 
L 888.727594 292.565695 
L 892.006749 290.001755 
L 895.285904 287.415814 
L 898.56506 284.810888 
L 901.844215 282.189248 
L 905.12337 279.55267 
L 908.402525 276.90258 
L 911.68168 274.240149 
L 914.960836 271.566359 
L 918.239991 268.882042 
L 921.519146 266.187913 
L 924.798301 263.484596 
L 928.077456 260.772637 
L 931.356612 258.05252 
L 934.635767 255.324676 
L 937.914922 252.589491 
L 941.194077 249.847316 
L 944.473232 247.098466 
L 947.752388 244.34323 
L 951.031543 241.581871 
L 954.310698 238.814633 
L 957.589853 236.041739 
L 960.869008 233.263395 
L 964.148163 230.479794 
L 967.427319 227.691113 
L 970.706474 224.89752 
L 973.985629 222.099169 
L 977.264784 219.296207 
L 980.543939 216.488771 
L 983.823095 213.676988 
L 987.10225 210.860982 
L 990.381405 208.040866 
L 993.66056 205.216749 
L 996.939715 202.388733 
L 1000.218871 199.556916 
L 1003.498026 196.721391 
L 1006.777181 193.882246 
L 1010.056336 191.039563 
L 1013.335491 188.193425 
L 1016.614646 185.343906 
L 1019.893802 182.49108 
L 1023.172957 179.635016 
L 1026.452112 176.775782 
L 1029.731267 173.913441 
L 1033.010422 171.048055 
L 1036.289578 168.179683 
L 1039.568733 165.308382 
L 1042.847888 162.434206 
L 1046.127043 159.557207 
L 1049.406198 156.677437 
L 1052.685354 153.794943 
L 1055.964509 150.909774 
L 1059.243664 148.021974 
L 1062.522819 145.131587 
L 1065.801974 142.238656 
L 1069.081129 139.343221 
L 1072.360285 136.445322 
L 1075.63944 133.544997 
L 1078.918595 130.642284 
L 1082.19775 127.737219 
L 1085.476905 124.829836 
L 1088.756061 121.92017 
L 1092.035216 119.008252 
L 1095.314371 116.094116 
L 1098.593526 113.177791 
L 1101.872681 110.259309 
L 1105.151837 107.338698 
L 1108.430992 104.415988 
L 1111.710147 101.491204 
L 1114.989302 98.564375 
L 1118.268457 95.635527 
L 1121.547612 92.704685 
L 1124.826768 89.771875 
L 1128.105923 86.83712 
L 1131.385078 83.900444 
L 1134.664233 80.96187 
L 1137.943388 78.021421 
L 1141.222544 75.079119 
L 1144.501699 72.134985 
L 1147.780854 69.18904 
L 1151.060009 66.241305 
L 1154.339164 63.291799 
L 1157.61832 60.340543 
L 1160.897475 57.387555 
L 1164.17663 54.432853 
L 1167.455785 51.476457 
L 1170.73494 48.518384 
L 1174.014096 45.558652 
L 1177.293251 42.597277 
L 1180.572406 39.634276 
L 1183.851561 36.669667 
L 1187.130716 33.703464 
L 1190.409871 30.735685 
L 1193.689027 27.766343 
L 1196.968182 24.795455 
" style="fill:none;stroke:#a60628;stroke-linecap:square;stroke-width:2;"/>
   </g>
   <g id="patch_15">
    <path d="M 856.1 318.7 
L 856.1 10.8 
" style="fill:none;stroke:#bcbcbc;stroke-linecap:square;stroke-linejoin:miter;stroke-width:0.8;"/>
   </g>
   <g id="patch_16">
    <path d="M 1213.2 318.7 
L 1213.2 10.8 
" style="fill:none;stroke:#bcbcbc;stroke-linecap:square;stroke-linejoin:miter;stroke-width:0.8;"/>
   </g>
   <g id="patch_17">
    <path d="M 856.1 318.7 
L 1213.2 318.7 
" style="fill:none;stroke:#bcbcbc;stroke-linecap:square;stroke-linejoin:miter;stroke-width:0.8;"/>
   </g>
   <g id="patch_18">
    <path d="M 856.1 10.8 
L 1213.2 10.8 
" style="fill:none;stroke:#bcbcbc;stroke-linecap:square;stroke-linejoin:miter;stroke-width:0.8;"/>
   </g>
   <g id="legend_3">
    <g id="patch_19">
     <path d="M 863.1 48.15625 
L 1047.5625 48.15625 
Q 1049.5625 48.15625 1049.5625 46.15625 
L 1049.5625 17.8 
Q 1049.5625 15.8 1047.5625 15.8 
L 863.1 15.8 
Q 861.1 15.8 861.1 17.8 
L 861.1 46.15625 
Q 861.1 48.15625 863.1 48.15625 
z
" style="fill:#eeeeee;opacity:0.8;stroke:#cccccc;stroke-linejoin:miter;stroke-width:0.5;"/>
    </g>
    <g id="line2d_91"/>
    <g id="line2d_92">
     <g>
      <use style="fill:#348abd;stroke:#348abd;" x="875.1" xlink:href="#maae57e5423" y="23.898438"/>
     </g>
    </g>
    <g id="text_49">
     <!-- Экспериментальные данные -->
     <g transform="translate(893.1 27.398438)scale(0.1 -0.1)">
      <use xlink:href="#DejaVuSans-1069"/>
      <use x="69.824219" xlink:href="#DejaVuSans-1082"/>
      <use x="130.224609" xlink:href="#DejaVuSans-1089"/>
      <use x="185.205078" xlink:href="#DejaVuSans-1087"/>
      <use x="250.585938" xlink:href="#DejaVuSans-1077"/>
      <use x="312.109375" xlink:href="#DejaVuSans-1088"/>
      <use x="375.585938" xlink:href="#DejaVuSans-1080"/>
      <use x="440.576172" xlink:href="#DejaVuSans-1084"/>
      <use x="516.015625" xlink:href="#DejaVuSans-1077"/>
      <use x="577.539062" xlink:href="#DejaVuSans-1085"/>
      <use x="642.919922" xlink:href="#DejaVuSans-1090"/>
      <use x="701.171875" xlink:href="#DejaVuSans-1072"/>
      <use x="762.451172" xlink:href="#DejaVuSans-1083"/>
      <use x="826.367188" xlink:href="#DejaVuSans-1100"/>
      <use x="885.302734" xlink:href="#DejaVuSans-1085"/>
      <use x="950.683594" xlink:href="#DejaVuSans-1099"/>
      <use x="1029.638672" xlink:href="#DejaVuSans-1077"/>
      <use x="1091.162109" xlink:href="#DejaVuSans-32"/>
      <use x="1122.949219" xlink:href="#DejaVuSans-1076"/>
      <use x="1192.089844" xlink:href="#DejaVuSans-1072"/>
      <use x="1253.369141" xlink:href="#DejaVuSans-1085"/>
      <use x="1318.75" xlink:href="#DejaVuSans-1085"/>
      <use x="1384.130859" xlink:href="#DejaVuSans-1099"/>
      <use x="1463.085938" xlink:href="#DejaVuSans-1077"/>
     </g>
    </g>
    <g id="line2d_93">
     <path d="M 865.1 38.576563 
L 885.1 38.576563 
" style="fill:none;stroke:#a60628;stroke-linecap:square;stroke-width:2;"/>
    </g>
    <g id="line2d_94"/>
    <g id="text_50">
     <!-- Степенная аппроксимация -->
     <g transform="translate(893.1 42.076563)scale(0.1 -0.1)">
      <defs>
       <path d="M 64.40625 67.28125 
L 64.40625 56.890625 
Q 59.421875 61.53125 53.78125 63.8125 
Q 48.140625 66.109375 41.796875 66.109375 
Q 29.296875 66.109375 22.65625 58.46875 
Q 16.015625 50.828125 16.015625 36.375 
Q 16.015625 21.96875 22.65625 14.328125 
Q 29.296875 6.6875 41.796875 6.6875 
Q 48.140625 6.6875 53.78125 8.984375 
Q 59.421875 11.28125 64.40625 15.921875 
L 64.40625 5.609375 
Q 59.234375 2.09375 53.4375 0.328125 
Q 47.65625 -1.421875 41.21875 -1.421875 
Q 24.65625 -1.421875 15.125 8.703125 
Q 5.609375 18.84375 5.609375 36.375 
Q 5.609375 53.953125 15.125 64.078125 
Q 24.65625 74.21875 41.21875 74.21875 
Q 47.75 74.21875 53.53125 72.484375 
Q 59.328125 70.75 64.40625 67.28125 
z
" id="DejaVuSans-1057"/>
      </defs>
      <use xlink:href="#DejaVuSans-1057"/>
      <use x="69.824219" xlink:href="#DejaVuSans-1090"/>
      <use x="128.076172" xlink:href="#DejaVuSans-1077"/>
      <use x="189.599609" xlink:href="#DejaVuSans-1087"/>
      <use x="254.980469" xlink:href="#DejaVuSans-1077"/>
      <use x="316.503906" xlink:href="#DejaVuSans-1085"/>
      <use x="381.884766" xlink:href="#DejaVuSans-1085"/>
      <use x="447.265625" xlink:href="#DejaVuSans-1072"/>
      <use x="508.544922" xlink:href="#DejaVuSans-1103"/>
      <use x="568.701172" xlink:href="#DejaVuSans-32"/>
      <use x="600.488281" xlink:href="#DejaVuSans-1072"/>
      <use x="661.767578" xlink:href="#DejaVuSans-1087"/>
      <use x="727.148438" xlink:href="#DejaVuSans-1087"/>
      <use x="792.529297" xlink:href="#DejaVuSans-1088"/>
      <use x="856.005859" xlink:href="#DejaVuSans-1086"/>
      <use x="917.1875" xlink:href="#DejaVuSans-1082"/>
      <use x="977.587891" xlink:href="#DejaVuSans-1089"/>
      <use x="1032.568359" xlink:href="#DejaVuSans-1080"/>
      <use x="1097.558594" xlink:href="#DejaVuSans-1084"/>
      <use x="1172.998047" xlink:href="#DejaVuSans-1072"/>
      <use x="1234.277344" xlink:href="#DejaVuSans-1094"/>
      <use x="1302.34375" xlink:href="#DejaVuSans-1080"/>
      <use x="1367.333984" xlink:href="#DejaVuSans-1103"/>
     </g>
    </g>
   </g>
  </g>
 </g>
 <defs>
  <clipPath id="pbe6cfa004c">
   <rect height="307.9" width="357.1" x="47.3" y="10.8"/>
  </clipPath>
  <clipPath id="pb6017f7702">
   <rect height="307.9" width="357.1" x="451.7" y="10.8"/>
  </clipPath>
  <clipPath id="p2048c58819">
   <rect height="307.9" width="357.1" x="856.1" y="10.8"/>
  </clipPath>
 </defs>
</svg>
