<?xml version="1.0" encoding="utf-8" standalone="no"?>
<!DOCTYPE svg PUBLIC "-//W3C//DTD SVG 1.1//EN"
  "http://www.w3.org/Graphics/SVG/1.1/DTD/svg11.dtd">
<!-- Created with matplotlib (https://matplotlib.org/) -->
<svg height="360pt" version="1.1" viewBox="0 0 1224 360" width="1224pt" xmlns="http://www.w3.org/2000/svg" xmlns:xlink="http://www.w3.org/1999/xlink">
 <metadata>
  <rdf:RDF xmlns:cc="http://creativecommons.org/ns#" xmlns:dc="http://purl.org/dc/elements/1.1/" xmlns:rdf="http://www.w3.org/1999/02/22-rdf-syntax-ns#">
   <cc:Work>
    <dc:type rdf:resource="http://purl.org/dc/dcmitype/StillImage"/>
    <dc:date>2021-04-17T17:12:25.101182</dc:date>
    <dc:format>image/svg+xml</dc:format>
    <dc:creator>
     <cc:Agent>
      <dc:title>Matplotlib v3.3.2, https://matplotlib.org/</dc:title>
     </cc:Agent>
    </dc:creator>
   </cc:Work>
  </rdf:RDF>
 </metadata>
 <defs>
  <style type="text/css">*{stroke-linecap:butt;stroke-linejoin:round;}</style>
 </defs>
 <g id="figure_1">
  <g id="patch_1">
   <path d="M 0 360 
L 1224 360 
L 1224 0 
L 0 0 
z
" style="fill:none;"/>
  </g>
  <g id="axes_1">
   <g id="patch_2">
    <path d="M 46.05 318.7 
L 405.665152 318.7 
L 405.665152 10.8 
L 46.05 10.8 
z
" style="fill:#eeeeee;"/>
   </g>
   <g id="matplotlib.axis_1">
    <g id="xtick_1">
     <g id="line2d_1">
      <path clip-path="url(#pda03a83a44)" d="M 62.396143 318.7 
L 62.396143 10.8 
" style="fill:none;stroke:#b2b2b2;stroke-dasharray:1.85,0.8;stroke-dashoffset:0;stroke-width:0.5;"/>
     </g>
     <g id="line2d_2">
      <defs>
       <path d="M 0 0 
L 0 -3.5 
" id="mdac5c5ef8d" style="stroke:#000000;stroke-width:0.8;"/>
      </defs>
      <g>
       <use style="stroke:#000000;stroke-width:0.8;" x="62.396143" xlink:href="#mdac5c5ef8d" y="318.7"/>
      </g>
     </g>
     <g id="text_1">
      <!-- 300 -->
      <g transform="translate(52.852393 329.798438)scale(0.1 -0.1)">
       <defs>
        <path d="M 40.578125 39.3125 
Q 47.65625 37.796875 51.625 33 
Q 55.609375 28.21875 55.609375 21.1875 
Q 55.609375 10.40625 48.1875 4.484375 
Q 40.765625 -1.421875 27.09375 -1.421875 
Q 22.515625 -1.421875 17.65625 -0.515625 
Q 12.796875 0.390625 7.625 2.203125 
L 7.625 11.71875 
Q 11.71875 9.328125 16.59375 8.109375 
Q 21.484375 6.890625 26.8125 6.890625 
Q 36.078125 6.890625 40.9375 10.546875 
Q 45.796875 14.203125 45.796875 21.1875 
Q 45.796875 27.640625 41.28125 31.265625 
Q 36.765625 34.90625 28.71875 34.90625 
L 20.21875 34.90625 
L 20.21875 43.015625 
L 29.109375 43.015625 
Q 36.375 43.015625 40.234375 45.921875 
Q 44.09375 48.828125 44.09375 54.296875 
Q 44.09375 59.90625 40.109375 62.90625 
Q 36.140625 65.921875 28.71875 65.921875 
Q 24.65625 65.921875 20.015625 65.03125 
Q 15.375 64.15625 9.8125 62.3125 
L 9.8125 71.09375 
Q 15.4375 72.65625 20.34375 73.4375 
Q 25.25 74.21875 29.59375 74.21875 
Q 40.828125 74.21875 47.359375 69.109375 
Q 53.90625 64.015625 53.90625 55.328125 
Q 53.90625 49.265625 50.4375 45.09375 
Q 46.96875 40.921875 40.578125 39.3125 
z
" id="DejaVuSans-51"/>
        <path d="M 31.78125 66.40625 
Q 24.171875 66.40625 20.328125 58.90625 
Q 16.5 51.421875 16.5 36.375 
Q 16.5 21.390625 20.328125 13.890625 
Q 24.171875 6.390625 31.78125 6.390625 
Q 39.453125 6.390625 43.28125 13.890625 
Q 47.125 21.390625 47.125 36.375 
Q 47.125 51.421875 43.28125 58.90625 
Q 39.453125 66.40625 31.78125 66.40625 
z
M 31.78125 74.21875 
Q 44.046875 74.21875 50.515625 64.515625 
Q 56.984375 54.828125 56.984375 36.375 
Q 56.984375 17.96875 50.515625 8.265625 
Q 44.046875 -1.421875 31.78125 -1.421875 
Q 19.53125 -1.421875 13.0625 8.265625 
Q 6.59375 17.96875 6.59375 36.375 
Q 6.59375 54.828125 13.0625 64.515625 
Q 19.53125 74.21875 31.78125 74.21875 
z
" id="DejaVuSans-48"/>
       </defs>
       <use xlink:href="#DejaVuSans-51"/>
       <use x="63.623047" xlink:href="#DejaVuSans-48"/>
       <use x="127.246094" xlink:href="#DejaVuSans-48"/>
      </g>
     </g>
    </g>
    <g id="xtick_2">
     <g id="line2d_3">
      <path clip-path="url(#pda03a83a44)" d="M 109.09941 318.7 
L 109.09941 10.8 
" style="fill:none;stroke:#b2b2b2;stroke-dasharray:1.85,0.8;stroke-dashoffset:0;stroke-width:0.5;"/>
     </g>
     <g id="line2d_4">
      <g>
       <use style="stroke:#000000;stroke-width:0.8;" x="109.09941" xlink:href="#mdac5c5ef8d" y="318.7"/>
      </g>
     </g>
     <g id="text_2">
      <!-- 400 -->
      <g transform="translate(99.55566 329.798438)scale(0.1 -0.1)">
       <defs>
        <path d="M 37.796875 64.3125 
L 12.890625 25.390625 
L 37.796875 25.390625 
z
M 35.203125 72.90625 
L 47.609375 72.90625 
L 47.609375 25.390625 
L 58.015625 25.390625 
L 58.015625 17.1875 
L 47.609375 17.1875 
L 47.609375 0 
L 37.796875 0 
L 37.796875 17.1875 
L 4.890625 17.1875 
L 4.890625 26.703125 
z
" id="DejaVuSans-52"/>
       </defs>
       <use xlink:href="#DejaVuSans-52"/>
       <use x="63.623047" xlink:href="#DejaVuSans-48"/>
       <use x="127.246094" xlink:href="#DejaVuSans-48"/>
      </g>
     </g>
    </g>
    <g id="xtick_3">
     <g id="line2d_5">
      <path clip-path="url(#pda03a83a44)" d="M 155.802676 318.7 
L 155.802676 10.8 
" style="fill:none;stroke:#b2b2b2;stroke-dasharray:1.85,0.8;stroke-dashoffset:0;stroke-width:0.5;"/>
     </g>
     <g id="line2d_6">
      <g>
       <use style="stroke:#000000;stroke-width:0.8;" x="155.802676" xlink:href="#mdac5c5ef8d" y="318.7"/>
      </g>
     </g>
     <g id="text_3">
      <!-- 500 -->
      <g transform="translate(146.258926 329.798438)scale(0.1 -0.1)">
       <defs>
        <path d="M 10.796875 72.90625 
L 49.515625 72.90625 
L 49.515625 64.59375 
L 19.828125 64.59375 
L 19.828125 46.734375 
Q 21.96875 47.46875 24.109375 47.828125 
Q 26.265625 48.1875 28.421875 48.1875 
Q 40.625 48.1875 47.75 41.5 
Q 54.890625 34.8125 54.890625 23.390625 
Q 54.890625 11.625 47.5625 5.09375 
Q 40.234375 -1.421875 26.90625 -1.421875 
Q 22.3125 -1.421875 17.546875 -0.640625 
Q 12.796875 0.140625 7.71875 1.703125 
L 7.71875 11.625 
Q 12.109375 9.234375 16.796875 8.0625 
Q 21.484375 6.890625 26.703125 6.890625 
Q 35.15625 6.890625 40.078125 11.328125 
Q 45.015625 15.765625 45.015625 23.390625 
Q 45.015625 31 40.078125 35.4375 
Q 35.15625 39.890625 26.703125 39.890625 
Q 22.75 39.890625 18.8125 39.015625 
Q 14.890625 38.140625 10.796875 36.28125 
z
" id="DejaVuSans-53"/>
       </defs>
       <use xlink:href="#DejaVuSans-53"/>
       <use x="63.623047" xlink:href="#DejaVuSans-48"/>
       <use x="127.246094" xlink:href="#DejaVuSans-48"/>
      </g>
     </g>
    </g>
    <g id="xtick_4">
     <g id="line2d_7">
      <path clip-path="url(#pda03a83a44)" d="M 202.505943 318.7 
L 202.505943 10.8 
" style="fill:none;stroke:#b2b2b2;stroke-dasharray:1.85,0.8;stroke-dashoffset:0;stroke-width:0.5;"/>
     </g>
     <g id="line2d_8">
      <g>
       <use style="stroke:#000000;stroke-width:0.8;" x="202.505943" xlink:href="#mdac5c5ef8d" y="318.7"/>
      </g>
     </g>
     <g id="text_4">
      <!-- 600 -->
      <g transform="translate(192.962193 329.798438)scale(0.1 -0.1)">
       <defs>
        <path d="M 33.015625 40.375 
Q 26.375 40.375 22.484375 35.828125 
Q 18.609375 31.296875 18.609375 23.390625 
Q 18.609375 15.53125 22.484375 10.953125 
Q 26.375 6.390625 33.015625 6.390625 
Q 39.65625 6.390625 43.53125 10.953125 
Q 47.40625 15.53125 47.40625 23.390625 
Q 47.40625 31.296875 43.53125 35.828125 
Q 39.65625 40.375 33.015625 40.375 
z
M 52.59375 71.296875 
L 52.59375 62.3125 
Q 48.875 64.0625 45.09375 64.984375 
Q 41.3125 65.921875 37.59375 65.921875 
Q 27.828125 65.921875 22.671875 59.328125 
Q 17.53125 52.734375 16.796875 39.40625 
Q 19.671875 43.65625 24.015625 45.921875 
Q 28.375 48.1875 33.59375 48.1875 
Q 44.578125 48.1875 50.953125 41.515625 
Q 57.328125 34.859375 57.328125 23.390625 
Q 57.328125 12.15625 50.6875 5.359375 
Q 44.046875 -1.421875 33.015625 -1.421875 
Q 20.359375 -1.421875 13.671875 8.265625 
Q 6.984375 17.96875 6.984375 36.375 
Q 6.984375 53.65625 15.1875 63.9375 
Q 23.390625 74.21875 37.203125 74.21875 
Q 40.921875 74.21875 44.703125 73.484375 
Q 48.484375 72.75 52.59375 71.296875 
z
" id="DejaVuSans-54"/>
       </defs>
       <use xlink:href="#DejaVuSans-54"/>
       <use x="63.623047" xlink:href="#DejaVuSans-48"/>
       <use x="127.246094" xlink:href="#DejaVuSans-48"/>
      </g>
     </g>
    </g>
    <g id="xtick_5">
     <g id="line2d_9">
      <path clip-path="url(#pda03a83a44)" d="M 249.209209 318.7 
L 249.209209 10.8 
" style="fill:none;stroke:#b2b2b2;stroke-dasharray:1.85,0.8;stroke-dashoffset:0;stroke-width:0.5;"/>
     </g>
     <g id="line2d_10">
      <g>
       <use style="stroke:#000000;stroke-width:0.8;" x="249.209209" xlink:href="#mdac5c5ef8d" y="318.7"/>
      </g>
     </g>
     <g id="text_5">
      <!-- 700 -->
      <g transform="translate(239.665459 329.798438)scale(0.1 -0.1)">
       <defs>
        <path d="M 8.203125 72.90625 
L 55.078125 72.90625 
L 55.078125 68.703125 
L 28.609375 0 
L 18.3125 0 
L 43.21875 64.59375 
L 8.203125 64.59375 
z
" id="DejaVuSans-55"/>
       </defs>
       <use xlink:href="#DejaVuSans-55"/>
       <use x="63.623047" xlink:href="#DejaVuSans-48"/>
       <use x="127.246094" xlink:href="#DejaVuSans-48"/>
      </g>
     </g>
    </g>
    <g id="xtick_6">
     <g id="line2d_11">
      <path clip-path="url(#pda03a83a44)" d="M 295.912475 318.7 
L 295.912475 10.8 
" style="fill:none;stroke:#b2b2b2;stroke-dasharray:1.85,0.8;stroke-dashoffset:0;stroke-width:0.5;"/>
     </g>
     <g id="line2d_12">
      <g>
       <use style="stroke:#000000;stroke-width:0.8;" x="295.912475" xlink:href="#mdac5c5ef8d" y="318.7"/>
      </g>
     </g>
     <g id="text_6">
      <!-- 800 -->
      <g transform="translate(286.368725 329.798438)scale(0.1 -0.1)">
       <defs>
        <path d="M 31.78125 34.625 
Q 24.75 34.625 20.71875 30.859375 
Q 16.703125 27.09375 16.703125 20.515625 
Q 16.703125 13.921875 20.71875 10.15625 
Q 24.75 6.390625 31.78125 6.390625 
Q 38.8125 6.390625 42.859375 10.171875 
Q 46.921875 13.96875 46.921875 20.515625 
Q 46.921875 27.09375 42.890625 30.859375 
Q 38.875 34.625 31.78125 34.625 
z
M 21.921875 38.8125 
Q 15.578125 40.375 12.03125 44.71875 
Q 8.5 49.078125 8.5 55.328125 
Q 8.5 64.0625 14.71875 69.140625 
Q 20.953125 74.21875 31.78125 74.21875 
Q 42.671875 74.21875 48.875 69.140625 
Q 55.078125 64.0625 55.078125 55.328125 
Q 55.078125 49.078125 51.53125 44.71875 
Q 48 40.375 41.703125 38.8125 
Q 48.828125 37.15625 52.796875 32.3125 
Q 56.78125 27.484375 56.78125 20.515625 
Q 56.78125 9.90625 50.3125 4.234375 
Q 43.84375 -1.421875 31.78125 -1.421875 
Q 19.734375 -1.421875 13.25 4.234375 
Q 6.78125 9.90625 6.78125 20.515625 
Q 6.78125 27.484375 10.78125 32.3125 
Q 14.796875 37.15625 21.921875 38.8125 
z
M 18.3125 54.390625 
Q 18.3125 48.734375 21.84375 45.5625 
Q 25.390625 42.390625 31.78125 42.390625 
Q 38.140625 42.390625 41.71875 45.5625 
Q 45.3125 48.734375 45.3125 54.390625 
Q 45.3125 60.0625 41.71875 63.234375 
Q 38.140625 66.40625 31.78125 66.40625 
Q 25.390625 66.40625 21.84375 63.234375 
Q 18.3125 60.0625 18.3125 54.390625 
z
" id="DejaVuSans-56"/>
       </defs>
       <use xlink:href="#DejaVuSans-56"/>
       <use x="63.623047" xlink:href="#DejaVuSans-48"/>
       <use x="127.246094" xlink:href="#DejaVuSans-48"/>
      </g>
     </g>
    </g>
    <g id="xtick_7">
     <g id="line2d_13">
      <path clip-path="url(#pda03a83a44)" d="M 342.615742 318.7 
L 342.615742 10.8 
" style="fill:none;stroke:#b2b2b2;stroke-dasharray:1.85,0.8;stroke-dashoffset:0;stroke-width:0.5;"/>
     </g>
     <g id="line2d_14">
      <g>
       <use style="stroke:#000000;stroke-width:0.8;" x="342.615742" xlink:href="#mdac5c5ef8d" y="318.7"/>
      </g>
     </g>
     <g id="text_7">
      <!-- 900 -->
      <g transform="translate(333.071992 329.798438)scale(0.1 -0.1)">
       <defs>
        <path d="M 10.984375 1.515625 
L 10.984375 10.5 
Q 14.703125 8.734375 18.5 7.8125 
Q 22.3125 6.890625 25.984375 6.890625 
Q 35.75 6.890625 40.890625 13.453125 
Q 46.046875 20.015625 46.78125 33.40625 
Q 43.953125 29.203125 39.59375 26.953125 
Q 35.25 24.703125 29.984375 24.703125 
Q 19.046875 24.703125 12.671875 31.3125 
Q 6.296875 37.9375 6.296875 49.421875 
Q 6.296875 60.640625 12.9375 67.421875 
Q 19.578125 74.21875 30.609375 74.21875 
Q 43.265625 74.21875 49.921875 64.515625 
Q 56.59375 54.828125 56.59375 36.375 
Q 56.59375 19.140625 48.40625 8.859375 
Q 40.234375 -1.421875 26.421875 -1.421875 
Q 22.703125 -1.421875 18.890625 -0.6875 
Q 15.09375 0.046875 10.984375 1.515625 
z
M 30.609375 32.421875 
Q 37.25 32.421875 41.125 36.953125 
Q 45.015625 41.5 45.015625 49.421875 
Q 45.015625 57.28125 41.125 61.84375 
Q 37.25 66.40625 30.609375 66.40625 
Q 23.96875 66.40625 20.09375 61.84375 
Q 16.21875 57.28125 16.21875 49.421875 
Q 16.21875 41.5 20.09375 36.953125 
Q 23.96875 32.421875 30.609375 32.421875 
z
" id="DejaVuSans-57"/>
       </defs>
       <use xlink:href="#DejaVuSans-57"/>
       <use x="63.623047" xlink:href="#DejaVuSans-48"/>
       <use x="127.246094" xlink:href="#DejaVuSans-48"/>
      </g>
     </g>
    </g>
    <g id="xtick_8">
     <g id="line2d_15">
      <path clip-path="url(#pda03a83a44)" d="M 389.319008 318.7 
L 389.319008 10.8 
" style="fill:none;stroke:#b2b2b2;stroke-dasharray:1.85,0.8;stroke-dashoffset:0;stroke-width:0.5;"/>
     </g>
     <g id="line2d_16">
      <g>
       <use style="stroke:#000000;stroke-width:0.8;" x="389.319008" xlink:href="#mdac5c5ef8d" y="318.7"/>
      </g>
     </g>
     <g id="text_8">
      <!-- 1000 -->
      <g transform="translate(376.594008 329.798438)scale(0.1 -0.1)">
       <defs>
        <path d="M 12.40625 8.296875 
L 28.515625 8.296875 
L 28.515625 63.921875 
L 10.984375 60.40625 
L 10.984375 69.390625 
L 28.421875 72.90625 
L 38.28125 72.90625 
L 38.28125 8.296875 
L 54.390625 8.296875 
L 54.390625 0 
L 12.40625 0 
z
" id="DejaVuSans-49"/>
       </defs>
       <use xlink:href="#DejaVuSans-49"/>
       <use x="63.623047" xlink:href="#DejaVuSans-48"/>
       <use x="127.246094" xlink:href="#DejaVuSans-48"/>
       <use x="190.869141" xlink:href="#DejaVuSans-48"/>
      </g>
     </g>
    </g>
    <g id="text_9">
     <!-- Temperature, K -->
     <g transform="translate(180.105701 344.99625)scale(0.12 -0.12)">
      <defs>
       <path d="M -0.296875 72.90625 
L 61.375 72.90625 
L 61.375 64.59375 
L 35.5 64.59375 
L 35.5 0 
L 25.59375 0 
L 25.59375 64.59375 
L -0.296875 64.59375 
z
" id="DejaVuSans-84"/>
       <path d="M 56.203125 29.59375 
L 56.203125 25.203125 
L 14.890625 25.203125 
Q 15.484375 15.921875 20.484375 11.0625 
Q 25.484375 6.203125 34.421875 6.203125 
Q 39.59375 6.203125 44.453125 7.46875 
Q 49.3125 8.734375 54.109375 11.28125 
L 54.109375 2.78125 
Q 49.265625 0.734375 44.1875 -0.34375 
Q 39.109375 -1.421875 33.890625 -1.421875 
Q 20.796875 -1.421875 13.15625 6.1875 
Q 5.515625 13.8125 5.515625 26.8125 
Q 5.515625 40.234375 12.765625 48.109375 
Q 20.015625 56 32.328125 56 
Q 43.359375 56 49.78125 48.890625 
Q 56.203125 41.796875 56.203125 29.59375 
z
M 47.21875 32.234375 
Q 47.125 39.59375 43.09375 43.984375 
Q 39.0625 48.390625 32.421875 48.390625 
Q 24.90625 48.390625 20.390625 44.140625 
Q 15.875 39.890625 15.1875 32.171875 
z
" id="DejaVuSans-101"/>
       <path d="M 52 44.1875 
Q 55.375 50.25 60.0625 53.125 
Q 64.75 56 71.09375 56 
Q 79.640625 56 84.28125 50.015625 
Q 88.921875 44.046875 88.921875 33.015625 
L 88.921875 0 
L 79.890625 0 
L 79.890625 32.71875 
Q 79.890625 40.578125 77.09375 44.375 
Q 74.3125 48.1875 68.609375 48.1875 
Q 61.625 48.1875 57.5625 43.546875 
Q 53.515625 38.921875 53.515625 30.90625 
L 53.515625 0 
L 44.484375 0 
L 44.484375 32.71875 
Q 44.484375 40.625 41.703125 44.40625 
Q 38.921875 48.1875 33.109375 48.1875 
Q 26.21875 48.1875 22.15625 43.53125 
Q 18.109375 38.875 18.109375 30.90625 
L 18.109375 0 
L 9.078125 0 
L 9.078125 54.6875 
L 18.109375 54.6875 
L 18.109375 46.1875 
Q 21.1875 51.21875 25.484375 53.609375 
Q 29.78125 56 35.6875 56 
Q 41.65625 56 45.828125 52.96875 
Q 50 49.953125 52 44.1875 
z
" id="DejaVuSans-109"/>
       <path d="M 18.109375 8.203125 
L 18.109375 -20.796875 
L 9.078125 -20.796875 
L 9.078125 54.6875 
L 18.109375 54.6875 
L 18.109375 46.390625 
Q 20.953125 51.265625 25.265625 53.625 
Q 29.59375 56 35.59375 56 
Q 45.5625 56 51.78125 48.09375 
Q 58.015625 40.1875 58.015625 27.296875 
Q 58.015625 14.40625 51.78125 6.484375 
Q 45.5625 -1.421875 35.59375 -1.421875 
Q 29.59375 -1.421875 25.265625 0.953125 
Q 20.953125 3.328125 18.109375 8.203125 
z
M 48.6875 27.296875 
Q 48.6875 37.203125 44.609375 42.84375 
Q 40.53125 48.484375 33.40625 48.484375 
Q 26.265625 48.484375 22.1875 42.84375 
Q 18.109375 37.203125 18.109375 27.296875 
Q 18.109375 17.390625 22.1875 11.75 
Q 26.265625 6.109375 33.40625 6.109375 
Q 40.53125 6.109375 44.609375 11.75 
Q 48.6875 17.390625 48.6875 27.296875 
z
" id="DejaVuSans-112"/>
       <path d="M 41.109375 46.296875 
Q 39.59375 47.171875 37.8125 47.578125 
Q 36.03125 48 33.890625 48 
Q 26.265625 48 22.1875 43.046875 
Q 18.109375 38.09375 18.109375 28.8125 
L 18.109375 0 
L 9.078125 0 
L 9.078125 54.6875 
L 18.109375 54.6875 
L 18.109375 46.1875 
Q 20.953125 51.171875 25.484375 53.578125 
Q 30.03125 56 36.53125 56 
Q 37.453125 56 38.578125 55.875 
Q 39.703125 55.765625 41.0625 55.515625 
z
" id="DejaVuSans-114"/>
       <path d="M 34.28125 27.484375 
Q 23.390625 27.484375 19.1875 25 
Q 14.984375 22.515625 14.984375 16.5 
Q 14.984375 11.71875 18.140625 8.90625 
Q 21.296875 6.109375 26.703125 6.109375 
Q 34.1875 6.109375 38.703125 11.40625 
Q 43.21875 16.703125 43.21875 25.484375 
L 43.21875 27.484375 
z
M 52.203125 31.203125 
L 52.203125 0 
L 43.21875 0 
L 43.21875 8.296875 
Q 40.140625 3.328125 35.546875 0.953125 
Q 30.953125 -1.421875 24.3125 -1.421875 
Q 15.921875 -1.421875 10.953125 3.296875 
Q 6 8.015625 6 15.921875 
Q 6 25.140625 12.171875 29.828125 
Q 18.359375 34.515625 30.609375 34.515625 
L 43.21875 34.515625 
L 43.21875 35.40625 
Q 43.21875 41.609375 39.140625 45 
Q 35.0625 48.390625 27.6875 48.390625 
Q 23 48.390625 18.546875 47.265625 
Q 14.109375 46.140625 10.015625 43.890625 
L 10.015625 52.203125 
Q 14.9375 54.109375 19.578125 55.046875 
Q 24.21875 56 28.609375 56 
Q 40.484375 56 46.34375 49.84375 
Q 52.203125 43.703125 52.203125 31.203125 
z
" id="DejaVuSans-97"/>
       <path d="M 18.3125 70.21875 
L 18.3125 54.6875 
L 36.8125 54.6875 
L 36.8125 47.703125 
L 18.3125 47.703125 
L 18.3125 18.015625 
Q 18.3125 11.328125 20.140625 9.421875 
Q 21.96875 7.515625 27.59375 7.515625 
L 36.8125 7.515625 
L 36.8125 0 
L 27.59375 0 
Q 17.1875 0 13.234375 3.875 
Q 9.28125 7.765625 9.28125 18.015625 
L 9.28125 47.703125 
L 2.6875 47.703125 
L 2.6875 54.6875 
L 9.28125 54.6875 
L 9.28125 70.21875 
z
" id="DejaVuSans-116"/>
       <path d="M 8.5 21.578125 
L 8.5 54.6875 
L 17.484375 54.6875 
L 17.484375 21.921875 
Q 17.484375 14.15625 20.5 10.265625 
Q 23.53125 6.390625 29.59375 6.390625 
Q 36.859375 6.390625 41.078125 11.03125 
Q 45.3125 15.671875 45.3125 23.6875 
L 45.3125 54.6875 
L 54.296875 54.6875 
L 54.296875 0 
L 45.3125 0 
L 45.3125 8.40625 
Q 42.046875 3.421875 37.71875 1 
Q 33.40625 -1.421875 27.6875 -1.421875 
Q 18.265625 -1.421875 13.375 4.4375 
Q 8.5 10.296875 8.5 21.578125 
z
M 31.109375 56 
z
" id="DejaVuSans-117"/>
       <path d="M 11.71875 12.40625 
L 22.015625 12.40625 
L 22.015625 4 
L 14.015625 -11.625 
L 7.71875 -11.625 
L 11.71875 4 
z
" id="DejaVuSans-44"/>
       <path id="DejaVuSans-32"/>
       <path d="M 9.8125 72.90625 
L 19.671875 72.90625 
L 19.671875 42.09375 
L 52.390625 72.90625 
L 65.09375 72.90625 
L 28.90625 38.921875 
L 67.671875 0 
L 54.6875 0 
L 19.671875 35.109375 
L 19.671875 0 
L 9.8125 0 
z
" id="DejaVuSans-75"/>
      </defs>
      <use xlink:href="#DejaVuSans-84"/>
      <use x="44.083984" xlink:href="#DejaVuSans-101"/>
      <use x="105.607422" xlink:href="#DejaVuSans-109"/>
      <use x="203.019531" xlink:href="#DejaVuSans-112"/>
      <use x="266.496094" xlink:href="#DejaVuSans-101"/>
      <use x="328.019531" xlink:href="#DejaVuSans-114"/>
      <use x="369.132812" xlink:href="#DejaVuSans-97"/>
      <use x="430.412109" xlink:href="#DejaVuSans-116"/>
      <use x="469.621094" xlink:href="#DejaVuSans-117"/>
      <use x="533" xlink:href="#DejaVuSans-114"/>
      <use x="571.863281" xlink:href="#DejaVuSans-101"/>
      <use x="633.386719" xlink:href="#DejaVuSans-44"/>
      <use x="665.173828" xlink:href="#DejaVuSans-32"/>
      <use x="696.960938" xlink:href="#DejaVuSans-75"/>
     </g>
    </g>
   </g>
   <g id="matplotlib.axis_2">
    <g id="ytick_1">
     <g id="line2d_17">
      <path clip-path="url(#pda03a83a44)" d="M 46.05 317.146201 
L 405.665152 317.146201 
" style="fill:none;stroke:#b2b2b2;stroke-dasharray:1.85,0.8;stroke-dashoffset:0;stroke-width:0.5;"/>
     </g>
     <g id="line2d_18">
      <defs>
       <path d="M 0 0 
L 3.5 0 
" id="m5aaa977320" style="stroke:#000000;stroke-width:0.8;"/>
      </defs>
      <g>
       <use style="stroke:#000000;stroke-width:0.8;" x="46.05" xlink:href="#m5aaa977320" y="317.146201"/>
      </g>
     </g>
     <g id="text_10">
      <!-- −5 -->
      <g transform="translate(27.807812 320.945419)scale(0.1 -0.1)">
       <defs>
        <path d="M 10.59375 35.5 
L 73.1875 35.5 
L 73.1875 27.203125 
L 10.59375 27.203125 
z
" id="DejaVuSans-8722"/>
       </defs>
       <use xlink:href="#DejaVuSans-8722"/>
       <use x="83.789062" xlink:href="#DejaVuSans-53"/>
      </g>
     </g>
    </g>
    <g id="ytick_2">
     <g id="line2d_19">
      <path clip-path="url(#pda03a83a44)" d="M 46.05 274.923389 
L 405.665152 274.923389 
" style="fill:none;stroke:#b2b2b2;stroke-dasharray:1.85,0.8;stroke-dashoffset:0;stroke-width:0.5;"/>
     </g>
     <g id="line2d_20">
      <g>
       <use style="stroke:#000000;stroke-width:0.8;" x="46.05" xlink:href="#m5aaa977320" y="274.923389"/>
      </g>
     </g>
     <g id="text_11">
      <!-- 0 -->
      <g transform="translate(36.1875 278.722608)scale(0.1 -0.1)">
       <use xlink:href="#DejaVuSans-48"/>
      </g>
     </g>
    </g>
    <g id="ytick_3">
     <g id="line2d_21">
      <path clip-path="url(#pda03a83a44)" d="M 46.05 232.700578 
L 405.665152 232.700578 
" style="fill:none;stroke:#b2b2b2;stroke-dasharray:1.85,0.8;stroke-dashoffset:0;stroke-width:0.5;"/>
     </g>
     <g id="line2d_22">
      <g>
       <use style="stroke:#000000;stroke-width:0.8;" x="46.05" xlink:href="#m5aaa977320" y="232.700578"/>
      </g>
     </g>
     <g id="text_12">
      <!-- 5 -->
      <g transform="translate(36.1875 236.499797)scale(0.1 -0.1)">
       <use xlink:href="#DejaVuSans-53"/>
      </g>
     </g>
    </g>
    <g id="ytick_4">
     <g id="line2d_23">
      <path clip-path="url(#pda03a83a44)" d="M 46.05 190.477766 
L 405.665152 190.477766 
" style="fill:none;stroke:#b2b2b2;stroke-dasharray:1.85,0.8;stroke-dashoffset:0;stroke-width:0.5;"/>
     </g>
     <g id="line2d_24">
      <g>
       <use style="stroke:#000000;stroke-width:0.8;" x="46.05" xlink:href="#m5aaa977320" y="190.477766"/>
      </g>
     </g>
     <g id="text_13">
      <!-- 10 -->
      <g transform="translate(29.825 194.276985)scale(0.1 -0.1)">
       <use xlink:href="#DejaVuSans-49"/>
       <use x="63.623047" xlink:href="#DejaVuSans-48"/>
      </g>
     </g>
    </g>
    <g id="ytick_5">
     <g id="line2d_25">
      <path clip-path="url(#pda03a83a44)" d="M 46.05 148.254955 
L 405.665152 148.254955 
" style="fill:none;stroke:#b2b2b2;stroke-dasharray:1.85,0.8;stroke-dashoffset:0;stroke-width:0.5;"/>
     </g>
     <g id="line2d_26">
      <g>
       <use style="stroke:#000000;stroke-width:0.8;" x="46.05" xlink:href="#m5aaa977320" y="148.254955"/>
      </g>
     </g>
     <g id="text_14">
      <!-- 15 -->
      <g transform="translate(29.825 152.054174)scale(0.1 -0.1)">
       <use xlink:href="#DejaVuSans-49"/>
       <use x="63.623047" xlink:href="#DejaVuSans-53"/>
      </g>
     </g>
    </g>
    <g id="ytick_6">
     <g id="line2d_27">
      <path clip-path="url(#pda03a83a44)" d="M 46.05 106.032144 
L 405.665152 106.032144 
" style="fill:none;stroke:#b2b2b2;stroke-dasharray:1.85,0.8;stroke-dashoffset:0;stroke-width:0.5;"/>
     </g>
     <g id="line2d_28">
      <g>
       <use style="stroke:#000000;stroke-width:0.8;" x="46.05" xlink:href="#m5aaa977320" y="106.032144"/>
      </g>
     </g>
     <g id="text_15">
      <!-- 20 -->
      <g transform="translate(29.825 109.831362)scale(0.1 -0.1)">
       <defs>
        <path d="M 19.1875 8.296875 
L 53.609375 8.296875 
L 53.609375 0 
L 7.328125 0 
L 7.328125 8.296875 
Q 12.9375 14.109375 22.625 23.890625 
Q 32.328125 33.6875 34.8125 36.53125 
Q 39.546875 41.84375 41.421875 45.53125 
Q 43.3125 49.21875 43.3125 52.78125 
Q 43.3125 58.59375 39.234375 62.25 
Q 35.15625 65.921875 28.609375 65.921875 
Q 23.96875 65.921875 18.8125 64.3125 
Q 13.671875 62.703125 7.8125 59.421875 
L 7.8125 69.390625 
Q 13.765625 71.78125 18.9375 73 
Q 24.125 74.21875 28.421875 74.21875 
Q 39.75 74.21875 46.484375 68.546875 
Q 53.21875 62.890625 53.21875 53.421875 
Q 53.21875 48.921875 51.53125 44.890625 
Q 49.859375 40.875 45.40625 35.40625 
Q 44.1875 33.984375 37.640625 27.21875 
Q 31.109375 20.453125 19.1875 8.296875 
z
" id="DejaVuSans-50"/>
       </defs>
       <use xlink:href="#DejaVuSans-50"/>
       <use x="63.623047" xlink:href="#DejaVuSans-48"/>
      </g>
     </g>
    </g>
    <g id="ytick_7">
     <g id="line2d_29">
      <path clip-path="url(#pda03a83a44)" d="M 46.05 63.809332 
L 405.665152 63.809332 
" style="fill:none;stroke:#b2b2b2;stroke-dasharray:1.85,0.8;stroke-dashoffset:0;stroke-width:0.5;"/>
     </g>
     <g id="line2d_30">
      <g>
       <use style="stroke:#000000;stroke-width:0.8;" x="46.05" xlink:href="#m5aaa977320" y="63.809332"/>
      </g>
     </g>
     <g id="text_16">
      <!-- 25 -->
      <g transform="translate(29.825 67.608551)scale(0.1 -0.1)">
       <use xlink:href="#DejaVuSans-50"/>
       <use x="63.623047" xlink:href="#DejaVuSans-53"/>
      </g>
     </g>
    </g>
    <g id="ytick_8">
     <g id="line2d_31">
      <path clip-path="url(#pda03a83a44)" d="M 46.05 21.586521 
L 405.665152 21.586521 
" style="fill:none;stroke:#b2b2b2;stroke-dasharray:1.85,0.8;stroke-dashoffset:0;stroke-width:0.5;"/>
     </g>
     <g id="line2d_32">
      <g>
       <use style="stroke:#000000;stroke-width:0.8;" x="46.05" xlink:href="#m5aaa977320" y="21.586521"/>
      </g>
     </g>
     <g id="text_17">
      <!-- 30 -->
      <g transform="translate(29.825 25.38574)scale(0.1 -0.1)">
       <use xlink:href="#DejaVuSans-51"/>
       <use x="63.623047" xlink:href="#DejaVuSans-48"/>
      </g>
     </g>
    </g>
    <g id="text_18">
     <!-- $\Delta$ H -->
     <g transform="translate(21.312187 176.21)rotate(-90)scale(0.12 -0.12)">
      <defs>
       <path d="M 5.421875 0 
Q 4.59375 0 4.59375 0.78125 
Q 4.640625 0.875 4.65625 0.921875 
Q 4.6875 0.984375 4.6875 1.125 
L 39.109375 70.515625 
Q 39.546875 71.578125 40.921875 71.578125 
L 42.28125 71.578125 
Q 43.65625 71.578125 44.09375 70.515625 
L 78.515625 1.125 
Q 78.5625 1.03125 78.578125 0.953125 
Q 78.609375 0.875 78.609375 0.78125 
Q 78.609375 0 77.78125 0 
z
M 12.015625 8.015625 
L 64.703125 8.015625 
L 38.375 61.078125 
z
" id="Cmr10-162"/>
       <path d="M 9.8125 72.90625 
L 19.671875 72.90625 
L 19.671875 43.015625 
L 55.515625 43.015625 
L 55.515625 72.90625 
L 65.375 72.90625 
L 65.375 0 
L 55.515625 0 
L 55.515625 34.71875 
L 19.671875 34.71875 
L 19.671875 0 
L 9.8125 0 
z
" id="DejaVuSans-72"/>
      </defs>
      <use transform="translate(0 0.09375)" xlink:href="#Cmr10-162"/>
      <use transform="translate(83.300781 0.09375)" xlink:href="#DejaVuSans-32"/>
      <use transform="translate(115.087891 0.09375)" xlink:href="#DejaVuSans-72"/>
     </g>
    </g>
   </g>
   <g id="line2d_33">
    <defs>
     <path d="M 0 3 
C 0.795609 3 1.55874 2.683901 2.12132 2.12132 
C 2.683901 1.55874 3 0.795609 3 0 
C 3 -0.795609 2.683901 -1.55874 2.12132 -2.12132 
C 1.55874 -2.683901 0.795609 -3 0 -3 
C -0.795609 -3 -1.55874 -2.683901 -2.12132 -2.12132 
C -2.683901 -1.55874 -3 -0.795609 -3 0 
C -3 0.795609 -2.683901 1.55874 -2.12132 2.12132 
C -1.55874 2.683901 -0.795609 3 0 3 
z
" id="mb305780592" style="stroke:#348abd;"/>
    </defs>
    <g clip-path="url(#pda03a83a44)">
     <use style="fill:#348abd;stroke:#348abd;" x="62.396143" xlink:href="#mb305780592" y="24.795455"/>
     <use style="fill:#348abd;stroke:#348abd;" x="109.09941" xlink:href="#mb305780592" y="90.156367"/>
     <use style="fill:#348abd;stroke:#348abd;" x="155.802676" xlink:href="#mb305780592" y="143.863783"/>
     <use style="fill:#348abd;stroke:#348abd;" x="202.505943" xlink:href="#mb305780592" y="187.268833"/>
     <use style="fill:#348abd;stroke:#348abd;" x="249.209209" xlink:href="#mb305780592" y="220.878191"/>
     <use style="fill:#348abd;stroke:#348abd;" x="295.912475" xlink:href="#mb305780592" y="246.634106"/>
     <use style="fill:#348abd;stroke:#348abd;" x="342.615742" xlink:href="#mb305780592" y="265.381034"/>
     <use style="fill:#348abd;stroke:#348abd;" x="389.319008" xlink:href="#mb305780592" y="273.150031"/>
    </g>
   </g>
   <g id="line2d_34">
    <path clip-path="url(#pda03a83a44)" d="M 62.396143 58.327404 
L 85.747776 75.925771 
L 109.09941 93.524138 
L 132.451043 111.122506 
L 155.802676 128.720873 
L 179.154309 146.31924 
L 202.505943 163.917607 
L 225.857576 181.515975 
L 249.209209 199.114342 
L 272.560842 216.712709 
L 295.912475 234.311076 
L 319.264109 251.909444 
L 342.615742 269.507811 
L 365.967375 287.106178 
L 389.319008 304.704545 
" style="fill:none;stroke:#a60628;stroke-linecap:square;stroke-width:2;"/>
   </g>
   <g id="patch_3">
    <path d="M 46.05 318.7 
L 46.05 10.8 
" style="fill:none;stroke:#bcbcbc;stroke-linecap:square;stroke-linejoin:miter;stroke-width:0.8;"/>
   </g>
   <g id="patch_4">
    <path d="M 405.665152 318.7 
L 405.665152 10.8 
" style="fill:none;stroke:#bcbcbc;stroke-linecap:square;stroke-linejoin:miter;stroke-width:0.8;"/>
   </g>
   <g id="patch_5">
    <path d="M 46.05 318.7 
L 405.665152 318.7 
" style="fill:none;stroke:#bcbcbc;stroke-linecap:square;stroke-linejoin:miter;stroke-width:0.8;"/>
   </g>
   <g id="patch_6">
    <path d="M 46.05 10.8 
L 405.665152 10.8 
" style="fill:none;stroke:#bcbcbc;stroke-linecap:square;stroke-linejoin:miter;stroke-width:0.8;"/>
   </g>
   <g id="legend_1">
    <g id="patch_7">
     <path d="M 214.202652 48.15625 
L 398.665152 48.15625 
Q 400.665152 48.15625 400.665152 46.15625 
L 400.665152 17.8 
Q 400.665152 15.8 398.665152 15.8 
L 214.202652 15.8 
Q 212.202652 15.8 212.202652 17.8 
L 212.202652 46.15625 
Q 212.202652 48.15625 214.202652 48.15625 
z
" style="fill:#eeeeee;opacity:0.8;stroke:#cccccc;stroke-linejoin:miter;stroke-width:0.5;"/>
    </g>
    <g id="line2d_35"/>
    <g id="line2d_36">
     <g>
      <use style="fill:#348abd;stroke:#348abd;" x="226.202652" xlink:href="#mb305780592" y="23.898438"/>
     </g>
    </g>
    <g id="text_19">
     <!-- Экспериментальные данные -->
     <g transform="translate(244.202652 27.398438)scale(0.1 -0.1)">
      <defs>
       <path d="M 5.421875 15.921875 
Q 15.71875 6.6875 28.21875 6.6875 
Q 41.109375 6.6875 46.921875 13.625 
Q 52.734375 20.5625 53.8125 32.234375 
L 14.84375 32.234375 
L 14.84375 40.53125 
L 53.8125 40.53125 
Q 52.734375 52.203125 46.921875 59.15625 
Q 41.109375 66.109375 28.21875 66.109375 
Q 15.71875 66.109375 5.421875 56.890625 
L 5.421875 67.28125 
Q 15.578125 74.21875 28.8125 74.21875 
Q 45.171875 74.21875 54.6875 64.078125 
Q 64.203125 53.953125 64.203125 36.421875 
Q 64.203125 18.84375 54.6875 8.703125 
Q 45.171875 -1.421875 28.8125 -1.421875 
Q 15.765625 -1.421875 5.421875 5.609375 
z
" id="DejaVuSans-1069"/>
       <path d="M 9.078125 54.6875 
L 18.015625 54.6875 
L 18.015625 29 
L 43.359375 54.6875 
L 54.390625 54.6875 
L 33.5 33.546875 
L 57.078125 0 
L 47.015625 0 
L 27.640625 27.59375 
L 18.015625 17.828125 
L 18.015625 0 
L 9.078125 0 
z
" id="DejaVuSans-1082"/>
       <path d="M 48.78125 52.59375 
L 48.78125 44.1875 
Q 44.96875 46.296875 41.140625 47.34375 
Q 37.3125 48.390625 33.40625 48.390625 
Q 24.65625 48.390625 19.8125 42.84375 
Q 14.984375 37.3125 14.984375 27.296875 
Q 14.984375 17.28125 19.8125 11.734375 
Q 24.65625 6.203125 33.40625 6.203125 
Q 37.3125 6.203125 41.140625 7.25 
Q 44.96875 8.296875 48.78125 10.40625 
L 48.78125 2.09375 
Q 45.015625 0.34375 40.984375 -0.53125 
Q 36.96875 -1.421875 32.421875 -1.421875 
Q 20.0625 -1.421875 12.78125 6.34375 
Q 5.515625 14.109375 5.515625 27.296875 
Q 5.515625 40.671875 12.859375 48.328125 
Q 20.21875 56 33.015625 56 
Q 37.15625 56 41.109375 55.140625 
Q 45.0625 54.296875 48.78125 52.59375 
z
" id="DejaVuSans-1089"/>
       <path d="M 56.296875 54.6875 
L 56.296875 0 
L 47.265625 0 
L 47.265625 47.515625 
L 18.109375 47.515625 
L 18.109375 0 
L 9.078125 0 
L 9.078125 54.6875 
z
" id="DejaVuSans-1087"/>
       <path d="M 56.203125 29.59375 
L 56.203125 25.203125 
L 14.890625 25.203125 
Q 15.484375 15.921875 20.484375 11.0625 
Q 25.484375 6.203125 34.421875 6.203125 
Q 39.59375 6.203125 44.453125 7.46875 
Q 49.3125 8.734375 54.109375 11.28125 
L 54.109375 2.78125 
Q 49.265625 0.734375 44.1875 -0.34375 
Q 39.109375 -1.421875 33.890625 -1.421875 
Q 20.796875 -1.421875 13.15625 6.1875 
Q 5.515625 13.8125 5.515625 26.8125 
Q 5.515625 40.234375 12.765625 48.109375 
Q 20.015625 56 32.328125 56 
Q 43.359375 56 49.78125 48.890625 
Q 56.203125 41.796875 56.203125 29.59375 
z
M 47.21875 32.234375 
Q 47.125 39.59375 43.09375 43.984375 
Q 39.0625 48.390625 32.421875 48.390625 
Q 24.90625 48.390625 20.390625 44.140625 
Q 15.875 39.890625 15.1875 32.171875 
z
" id="DejaVuSans-1077"/>
       <path d="M 18.109375 8.203125 
L 18.109375 -20.796875 
L 9.078125 -20.796875 
L 9.078125 54.6875 
L 18.109375 54.6875 
L 18.109375 46.390625 
Q 20.953125 51.265625 25.265625 53.625 
Q 29.59375 56 35.59375 56 
Q 45.5625 56 51.78125 48.09375 
Q 58.015625 40.1875 58.015625 27.296875 
Q 58.015625 14.40625 51.78125 6.484375 
Q 45.5625 -1.421875 35.59375 -1.421875 
Q 29.59375 -1.421875 25.265625 0.953125 
Q 20.953125 3.328125 18.109375 8.203125 
z
M 48.6875 27.296875 
Q 48.6875 37.203125 44.609375 42.84375 
Q 40.53125 48.484375 33.40625 48.484375 
Q 26.265625 48.484375 22.1875 42.84375 
Q 18.109375 37.203125 18.109375 27.296875 
Q 18.109375 17.390625 22.1875 11.75 
Q 26.265625 6.109375 33.40625 6.109375 
Q 40.53125 6.109375 44.609375 11.75 
Q 48.6875 17.390625 48.6875 27.296875 
z
" id="DejaVuSans-1088"/>
       <path d="M 55.90625 54.6875 
L 55.90625 0 
L 46.96875 0 
L 46.96875 43.890625 
L 20.609375 0 
L 9.078125 0 
L 9.078125 54.6875 
L 18.015625 54.6875 
L 18.015625 10.890625 
L 44.34375 54.6875 
z
" id="DejaVuSans-1080"/>
       <path d="M 9.078125 54.6875 
L 22.21875 54.6875 
L 37.75 18.0625 
L 53.328125 54.6875 
L 66.359375 54.6875 
L 66.359375 0 
L 57.328125 0 
L 57.328125 46.09375 
L 42.234375 10.5 
L 33.25 10.5 
L 18.109375 46.09375 
L 18.109375 0 
L 9.078125 0 
z
" id="DejaVuSans-1084"/>
       <path d="M 9.078125 54.6875 
L 18.109375 54.6875 
L 18.109375 32.375 
L 47.265625 32.375 
L 47.265625 54.6875 
L 56.296875 54.6875 
L 56.296875 0 
L 47.265625 0 
L 47.265625 25.203125 
L 18.109375 25.203125 
L 18.109375 0 
L 9.078125 0 
z
" id="DejaVuSans-1085"/>
       <path d="M 2.9375 54.6875 
L 55.328125 54.6875 
L 55.328125 47.515625 
L 33.546875 47.515625 
L 33.546875 0 
L 24.703125 0 
L 24.703125 47.515625 
L 2.9375 47.515625 
z
" id="DejaVuSans-1090"/>
       <path d="M 34.28125 27.484375 
Q 23.390625 27.484375 19.1875 25 
Q 14.984375 22.515625 14.984375 16.5 
Q 14.984375 11.71875 18.140625 8.90625 
Q 21.296875 6.109375 26.703125 6.109375 
Q 34.1875 6.109375 38.703125 11.40625 
Q 43.21875 16.703125 43.21875 25.484375 
L 43.21875 27.484375 
z
M 52.203125 31.203125 
L 52.203125 0 
L 43.21875 0 
L 43.21875 8.296875 
Q 40.140625 3.328125 35.546875 0.953125 
Q 30.953125 -1.421875 24.3125 -1.421875 
Q 15.921875 -1.421875 10.953125 3.296875 
Q 6 8.015625 6 15.921875 
Q 6 25.140625 12.171875 29.828125 
Q 18.359375 34.515625 30.609375 34.515625 
L 43.21875 34.515625 
L 43.21875 35.40625 
Q 43.21875 41.609375 39.140625 45 
Q 35.0625 48.390625 27.6875 48.390625 
Q 23 48.390625 18.546875 47.265625 
Q 14.109375 46.140625 10.015625 43.890625 
L 10.015625 52.203125 
Q 14.9375 54.109375 19.578125 55.046875 
Q 24.21875 56 28.609375 56 
Q 40.484375 56 46.34375 49.84375 
Q 52.203125 43.703125 52.203125 31.203125 
z
" id="DejaVuSans-1072"/>
       <path d="M 3.71875 0 
L 3.71875 7.46875 
Q 12.59375 8.84375 15.328125 14.984375 
Q 18.65625 23.640625 18.65625 45.75 
L 18.65625 54.6875 
L 55.609375 54.6875 
L 55.609375 0 
L 46.625 0 
L 46.625 47.515625 
L 27.640625 47.515625 
L 27.640625 42.09375 
Q 27.640625 21 23.34375 11.53125 
Q 18.75 1.421875 3.71875 0 
z
" id="DejaVuSans-1083"/>
       <path d="M 43.453125 16.21875 
Q 43.453125 20.609375 40.25 22.90625 
Q 37.0625 25.203125 30.90625 25.203125 
L 18.109375 25.203125 
L 18.109375 7.171875 
L 30.90625 7.171875 
Q 37.0625 7.171875 40.25 9.484375 
Q 43.453125 11.8125 43.453125 16.21875 
z
M 9.078125 54.6875 
L 18.109375 54.6875 
L 18.109375 32.375 
L 31.296875 32.375 
Q 41.75 32.375 47.390625 28.390625 
Q 53.03125 24.421875 53.03125 16.21875 
Q 53.03125 8.015625 47.390625 4 
Q 41.75 0 31.296875 0 
L 9.078125 0 
z
" id="DejaVuSans-1100"/>
       <path d="M 61.078125 54.6875 
L 70.0625 54.6875 
L 70.0625 0 
L 61.078125 0 
z
M 65.578125 56 
z
M 43.453125 16.21875 
Q 43.453125 20.609375 40.25 22.90625 
Q 37.0625 25.203125 30.90625 25.203125 
L 18.109375 25.203125 
L 18.109375 7.171875 
L 30.90625 7.171875 
Q 37.0625 7.171875 40.25 9.484375 
Q 43.453125 11.8125 43.453125 16.21875 
z
M 9.078125 54.6875 
L 18.109375 54.6875 
L 18.109375 32.375 
L 31.296875 32.375 
Q 41.75 32.375 47.390625 28.390625 
Q 53.03125 24.421875 53.03125 16.21875 
Q 53.03125 8.015625 47.390625 4 
Q 41.75 0 31.296875 0 
L 9.078125 0 
z
" id="DejaVuSans-1099"/>
       <path d="M 21.625 7.171875 
L 47.703125 7.171875 
L 47.703125 47.515625 
L 28.8125 47.515625 
L 28.8125 40.671875 
Q 28.8125 20.5625 23.046875 9.8125 
z
M 8.59375 7.171875 
Q 13.03125 9.125 14.984375 13.28125 
Q 19.78125 23.578125 19.78125 44.34375 
L 19.78125 54.6875 
L 56.734375 54.6875 
L 56.734375 7.171875 
L 63.921875 7.171875 
L 63.921875 -13.8125 
L 56.734375 -13.8125 
L 56.734375 0 
L 12.40625 0 
L 12.40625 -13.8125 
L 5.21875 -13.8125 
L 5.21875 7.171875 
z
" id="DejaVuSans-1076"/>
      </defs>
      <use xlink:href="#DejaVuSans-1069"/>
      <use x="69.824219" xlink:href="#DejaVuSans-1082"/>
      <use x="130.224609" xlink:href="#DejaVuSans-1089"/>
      <use x="185.205078" xlink:href="#DejaVuSans-1087"/>
      <use x="250.585938" xlink:href="#DejaVuSans-1077"/>
      <use x="312.109375" xlink:href="#DejaVuSans-1088"/>
      <use x="375.585938" xlink:href="#DejaVuSans-1080"/>
      <use x="440.576172" xlink:href="#DejaVuSans-1084"/>
      <use x="516.015625" xlink:href="#DejaVuSans-1077"/>
      <use x="577.539062" xlink:href="#DejaVuSans-1085"/>
      <use x="642.919922" xlink:href="#DejaVuSans-1090"/>
      <use x="701.171875" xlink:href="#DejaVuSans-1072"/>
      <use x="762.451172" xlink:href="#DejaVuSans-1083"/>
      <use x="826.367188" xlink:href="#DejaVuSans-1100"/>
      <use x="885.302734" xlink:href="#DejaVuSans-1085"/>
      <use x="950.683594" xlink:href="#DejaVuSans-1099"/>
      <use x="1029.638672" xlink:href="#DejaVuSans-1077"/>
      <use x="1091.162109" xlink:href="#DejaVuSans-32"/>
      <use x="1122.949219" xlink:href="#DejaVuSans-1076"/>
      <use x="1192.089844" xlink:href="#DejaVuSans-1072"/>
      <use x="1253.369141" xlink:href="#DejaVuSans-1085"/>
      <use x="1318.75" xlink:href="#DejaVuSans-1085"/>
      <use x="1384.130859" xlink:href="#DejaVuSans-1099"/>
      <use x="1463.085938" xlink:href="#DejaVuSans-1077"/>
     </g>
    </g>
    <g id="line2d_37">
     <path d="M 216.202652 38.576563 
L 236.202652 38.576563 
" style="fill:none;stroke:#a60628;stroke-linecap:square;stroke-width:2;"/>
    </g>
    <g id="line2d_38"/>
    <g id="text_20">
     <!-- Линейная аппроксимация -->
     <g transform="translate(244.202652 42.076563)scale(0.1 -0.1)">
      <defs>
       <path d="M 4.109375 0 
L 4.109375 8.296875 
Q 14.703125 10.59375 17.71875 18.609375 
Q 21.96875 31.203125 21.96875 60.5 
L 21.96875 72.90625 
L 65.328125 72.90625 
L 65.328125 0 
L 55.46875 0 
L 55.46875 64.59375 
L 31.78125 64.59375 
L 31.78125 55.609375 
Q 31.78125 27.984375 26.8125 15.09375 
Q 22.015625 2.734375 4.109375 0 
z
" id="DejaVuSans-1051"/>
       <path d="M 55.90625 54.6875 
L 55.90625 0 
L 46.96875 0 
L 46.96875 43.890625 
L 20.609375 0 
L 9.078125 0 
L 9.078125 54.6875 
L 18.015625 54.6875 
L 18.015625 10.890625 
L 44.34375 54.6875 
z
M 17.234375 75.96875 
L 23 75.96875 
Q 23.53125 72.3125 25.890625 70.46875 
Q 28.265625 68.640625 32.515625 68.640625 
Q 36.71875 68.640625 39.0625 70.453125 
Q 41.40625 72.265625 42.046875 75.96875 
L 47.796875 75.96875 
Q 47.3125 68.984375 43.453125 65.46875 
Q 39.59375 61.953125 32.515625 61.953125 
Q 25.4375 61.953125 21.578125 65.46875 
Q 17.71875 68.984375 17.234375 75.96875 
z
" id="DejaVuSans-1081"/>
       <path d="M 18.453125 38.921875 
Q 18.453125 34.859375 21.578125 32.5625 
Q 24.703125 30.28125 30.515625 30.28125 
L 42.625 30.28125 
L 42.625 47.515625 
L 30.515625 47.515625 
Q 24.703125 47.515625 21.578125 45.265625 
Q 18.453125 43.015625 18.453125 38.921875 
z
M 5.671875 0 
L 22.359375 23.96875 
Q 16.703125 25.25 12.9375 28.59375 
Q 9.1875 31.9375 9.1875 38.921875 
Q 9.1875 46.828125 14.421875 50.75 
Q 19.671875 54.6875 30.28125 54.6875 
L 51.65625 54.6875 
L 51.65625 0 
L 42.625 0 
L 42.625 23.09375 
L 31.453125 23.09375 
L 15.328125 0 
z
" id="DejaVuSans-1103"/>
       <path d="M 30.609375 48.390625 
Q 23.390625 48.390625 19.1875 42.75 
Q 14.984375 37.109375 14.984375 27.296875 
Q 14.984375 17.484375 19.15625 11.84375 
Q 23.34375 6.203125 30.609375 6.203125 
Q 37.796875 6.203125 41.984375 11.859375 
Q 46.1875 17.53125 46.1875 27.296875 
Q 46.1875 37.015625 41.984375 42.703125 
Q 37.796875 48.390625 30.609375 48.390625 
z
M 30.609375 56 
Q 42.328125 56 49.015625 48.375 
Q 55.71875 40.765625 55.71875 27.296875 
Q 55.71875 13.875 49.015625 6.21875 
Q 42.328125 -1.421875 30.609375 -1.421875 
Q 18.84375 -1.421875 12.171875 6.21875 
Q 5.515625 13.875 5.515625 27.296875 
Q 5.515625 40.765625 12.171875 48.375 
Q 18.84375 56 30.609375 56 
z
" id="DejaVuSans-1086"/>
       <path d="M 56.296875 0 
L 9.078125 0 
L 9.078125 54.6875 
L 18.109375 54.6875 
L 18.109375 7.171875 
L 47.265625 7.171875 
L 47.265625 54.6875 
L 56.296875 54.6875 
L 56.296875 7.171875 
L 63.484375 7.171875 
L 63.484375 -13.8125 
L 56.296875 -13.8125 
z
" id="DejaVuSans-1094"/>
      </defs>
      <use xlink:href="#DejaVuSans-1051"/>
      <use x="75.195312" xlink:href="#DejaVuSans-1080"/>
      <use x="140.185547" xlink:href="#DejaVuSans-1085"/>
      <use x="205.566406" xlink:href="#DejaVuSans-1077"/>
      <use x="267.089844" xlink:href="#DejaVuSans-1081"/>
      <use x="332.080078" xlink:href="#DejaVuSans-1085"/>
      <use x="397.460938" xlink:href="#DejaVuSans-1072"/>
      <use x="458.740234" xlink:href="#DejaVuSans-1103"/>
      <use x="518.896484" xlink:href="#DejaVuSans-32"/>
      <use x="550.683594" xlink:href="#DejaVuSans-1072"/>
      <use x="611.962891" xlink:href="#DejaVuSans-1087"/>
      <use x="677.34375" xlink:href="#DejaVuSans-1087"/>
      <use x="742.724609" xlink:href="#DejaVuSans-1088"/>
      <use x="806.201172" xlink:href="#DejaVuSans-1086"/>
      <use x="867.382812" xlink:href="#DejaVuSans-1082"/>
      <use x="927.783203" xlink:href="#DejaVuSans-1089"/>
      <use x="982.763672" xlink:href="#DejaVuSans-1080"/>
      <use x="1047.753906" xlink:href="#DejaVuSans-1084"/>
      <use x="1123.193359" xlink:href="#DejaVuSans-1072"/>
      <use x="1184.472656" xlink:href="#DejaVuSans-1094"/>
      <use x="1252.539062" xlink:href="#DejaVuSans-1080"/>
      <use x="1317.529297" xlink:href="#DejaVuSans-1103"/>
     </g>
    </g>
   </g>
  </g>
  <g id="axes_2">
   <g id="patch_8">
    <path d="M 449.783333 318.7 
L 809.398485 318.7 
L 809.398485 10.8 
L 449.783333 10.8 
z
" style="fill:#eeeeee;"/>
   </g>
   <g id="matplotlib.axis_3">
    <g id="xtick_9">
     <g id="line2d_39">
      <path clip-path="url(#p1bb77e6813)" d="M 466.129477 318.7 
L 466.129477 10.8 
" style="fill:none;stroke:#b2b2b2;stroke-dasharray:1.85,0.8;stroke-dashoffset:0;stroke-width:0.5;"/>
     </g>
     <g id="line2d_40">
      <g>
       <use style="stroke:#000000;stroke-width:0.8;" x="466.129477" xlink:href="#mdac5c5ef8d" y="318.7"/>
      </g>
     </g>
     <g id="text_21">
      <!-- 300 -->
      <g transform="translate(456.585727 329.798438)scale(0.1 -0.1)">
       <use xlink:href="#DejaVuSans-51"/>
       <use x="63.623047" xlink:href="#DejaVuSans-48"/>
       <use x="127.246094" xlink:href="#DejaVuSans-48"/>
      </g>
     </g>
    </g>
    <g id="xtick_10">
     <g id="line2d_41">
      <path clip-path="url(#p1bb77e6813)" d="M 512.832743 318.7 
L 512.832743 10.8 
" style="fill:none;stroke:#b2b2b2;stroke-dasharray:1.85,0.8;stroke-dashoffset:0;stroke-width:0.5;"/>
     </g>
     <g id="line2d_42">
      <g>
       <use style="stroke:#000000;stroke-width:0.8;" x="512.832743" xlink:href="#mdac5c5ef8d" y="318.7"/>
      </g>
     </g>
     <g id="text_22">
      <!-- 400 -->
      <g transform="translate(503.288993 329.798438)scale(0.1 -0.1)">
       <use xlink:href="#DejaVuSans-52"/>
       <use x="63.623047" xlink:href="#DejaVuSans-48"/>
       <use x="127.246094" xlink:href="#DejaVuSans-48"/>
      </g>
     </g>
    </g>
    <g id="xtick_11">
     <g id="line2d_43">
      <path clip-path="url(#p1bb77e6813)" d="M 559.536009 318.7 
L 559.536009 10.8 
" style="fill:none;stroke:#b2b2b2;stroke-dasharray:1.85,0.8;stroke-dashoffset:0;stroke-width:0.5;"/>
     </g>
     <g id="line2d_44">
      <g>
       <use style="stroke:#000000;stroke-width:0.8;" x="559.536009" xlink:href="#mdac5c5ef8d" y="318.7"/>
      </g>
     </g>
     <g id="text_23">
      <!-- 500 -->
      <g transform="translate(549.992259 329.798438)scale(0.1 -0.1)">
       <use xlink:href="#DejaVuSans-53"/>
       <use x="63.623047" xlink:href="#DejaVuSans-48"/>
       <use x="127.246094" xlink:href="#DejaVuSans-48"/>
      </g>
     </g>
    </g>
    <g id="xtick_12">
     <g id="line2d_45">
      <path clip-path="url(#p1bb77e6813)" d="M 606.239276 318.7 
L 606.239276 10.8 
" style="fill:none;stroke:#b2b2b2;stroke-dasharray:1.85,0.8;stroke-dashoffset:0;stroke-width:0.5;"/>
     </g>
     <g id="line2d_46">
      <g>
       <use style="stroke:#000000;stroke-width:0.8;" x="606.239276" xlink:href="#mdac5c5ef8d" y="318.7"/>
      </g>
     </g>
     <g id="text_24">
      <!-- 600 -->
      <g transform="translate(596.695526 329.798438)scale(0.1 -0.1)">
       <use xlink:href="#DejaVuSans-54"/>
       <use x="63.623047" xlink:href="#DejaVuSans-48"/>
       <use x="127.246094" xlink:href="#DejaVuSans-48"/>
      </g>
     </g>
    </g>
    <g id="xtick_13">
     <g id="line2d_47">
      <path clip-path="url(#p1bb77e6813)" d="M 652.942542 318.7 
L 652.942542 10.8 
" style="fill:none;stroke:#b2b2b2;stroke-dasharray:1.85,0.8;stroke-dashoffset:0;stroke-width:0.5;"/>
     </g>
     <g id="line2d_48">
      <g>
       <use style="stroke:#000000;stroke-width:0.8;" x="652.942542" xlink:href="#mdac5c5ef8d" y="318.7"/>
      </g>
     </g>
     <g id="text_25">
      <!-- 700 -->
      <g transform="translate(643.398792 329.798438)scale(0.1 -0.1)">
       <use xlink:href="#DejaVuSans-55"/>
       <use x="63.623047" xlink:href="#DejaVuSans-48"/>
       <use x="127.246094" xlink:href="#DejaVuSans-48"/>
      </g>
     </g>
    </g>
    <g id="xtick_14">
     <g id="line2d_49">
      <path clip-path="url(#p1bb77e6813)" d="M 699.645809 318.7 
L 699.645809 10.8 
" style="fill:none;stroke:#b2b2b2;stroke-dasharray:1.85,0.8;stroke-dashoffset:0;stroke-width:0.5;"/>
     </g>
     <g id="line2d_50">
      <g>
       <use style="stroke:#000000;stroke-width:0.8;" x="699.645809" xlink:href="#mdac5c5ef8d" y="318.7"/>
      </g>
     </g>
     <g id="text_26">
      <!-- 800 -->
      <g transform="translate(690.102059 329.798438)scale(0.1 -0.1)">
       <use xlink:href="#DejaVuSans-56"/>
       <use x="63.623047" xlink:href="#DejaVuSans-48"/>
       <use x="127.246094" xlink:href="#DejaVuSans-48"/>
      </g>
     </g>
    </g>
    <g id="xtick_15">
     <g id="line2d_51">
      <path clip-path="url(#p1bb77e6813)" d="M 746.349075 318.7 
L 746.349075 10.8 
" style="fill:none;stroke:#b2b2b2;stroke-dasharray:1.85,0.8;stroke-dashoffset:0;stroke-width:0.5;"/>
     </g>
     <g id="line2d_52">
      <g>
       <use style="stroke:#000000;stroke-width:0.8;" x="746.349075" xlink:href="#mdac5c5ef8d" y="318.7"/>
      </g>
     </g>
     <g id="text_27">
      <!-- 900 -->
      <g transform="translate(736.805325 329.798438)scale(0.1 -0.1)">
       <use xlink:href="#DejaVuSans-57"/>
       <use x="63.623047" xlink:href="#DejaVuSans-48"/>
       <use x="127.246094" xlink:href="#DejaVuSans-48"/>
      </g>
     </g>
    </g>
    <g id="xtick_16">
     <g id="line2d_53">
      <path clip-path="url(#p1bb77e6813)" d="M 793.052342 318.7 
L 793.052342 10.8 
" style="fill:none;stroke:#b2b2b2;stroke-dasharray:1.85,0.8;stroke-dashoffset:0;stroke-width:0.5;"/>
     </g>
     <g id="line2d_54">
      <g>
       <use style="stroke:#000000;stroke-width:0.8;" x="793.052342" xlink:href="#mdac5c5ef8d" y="318.7"/>
      </g>
     </g>
     <g id="text_28">
      <!-- 1000 -->
      <g transform="translate(780.327342 329.798438)scale(0.1 -0.1)">
       <use xlink:href="#DejaVuSans-49"/>
       <use x="63.623047" xlink:href="#DejaVuSans-48"/>
       <use x="127.246094" xlink:href="#DejaVuSans-48"/>
       <use x="190.869141" xlink:href="#DejaVuSans-48"/>
      </g>
     </g>
    </g>
    <g id="text_29">
     <!-- Temperature, K -->
     <g transform="translate(583.839034 344.99625)scale(0.12 -0.12)">
      <use xlink:href="#DejaVuSans-84"/>
      <use x="44.083984" xlink:href="#DejaVuSans-101"/>
      <use x="105.607422" xlink:href="#DejaVuSans-109"/>
      <use x="203.019531" xlink:href="#DejaVuSans-112"/>
      <use x="266.496094" xlink:href="#DejaVuSans-101"/>
      <use x="328.019531" xlink:href="#DejaVuSans-114"/>
      <use x="369.132812" xlink:href="#DejaVuSans-97"/>
      <use x="430.412109" xlink:href="#DejaVuSans-116"/>
      <use x="469.621094" xlink:href="#DejaVuSans-117"/>
      <use x="533" xlink:href="#DejaVuSans-114"/>
      <use x="571.863281" xlink:href="#DejaVuSans-101"/>
      <use x="633.386719" xlink:href="#DejaVuSans-44"/>
      <use x="665.173828" xlink:href="#DejaVuSans-32"/>
      <use x="696.960938" xlink:href="#DejaVuSans-75"/>
     </g>
    </g>
   </g>
   <g id="matplotlib.axis_4">
    <g id="ytick_9">
     <g id="line2d_55">
      <path clip-path="url(#p1bb77e6813)" d="M 449.783333 306.629416 
L 809.398485 306.629416 
" style="fill:none;stroke:#b2b2b2;stroke-dasharray:1.85,0.8;stroke-dashoffset:0;stroke-width:0.5;"/>
     </g>
     <g id="line2d_56">
      <g>
       <use style="stroke:#000000;stroke-width:0.8;" x="449.783333" xlink:href="#m5aaa977320" y="306.629416"/>
      </g>
     </g>
     <g id="text_30">
      <!-- 0 -->
      <g transform="translate(439.920833 310.428635)scale(0.1 -0.1)">
       <use xlink:href="#DejaVuSans-48"/>
      </g>
     </g>
    </g>
    <g id="ytick_10">
     <g id="line2d_57">
      <path clip-path="url(#p1bb77e6813)" d="M 449.783333 260.799167 
L 809.398485 260.799167 
" style="fill:none;stroke:#b2b2b2;stroke-dasharray:1.85,0.8;stroke-dashoffset:0;stroke-width:0.5;"/>
     </g>
     <g id="line2d_58">
      <g>
       <use style="stroke:#000000;stroke-width:0.8;" x="449.783333" xlink:href="#m5aaa977320" y="260.799167"/>
      </g>
     </g>
     <g id="text_31">
      <!-- 5 -->
      <g transform="translate(439.920833 264.598386)scale(0.1 -0.1)">
       <use xlink:href="#DejaVuSans-53"/>
      </g>
     </g>
    </g>
    <g id="ytick_11">
     <g id="line2d_59">
      <path clip-path="url(#p1bb77e6813)" d="M 449.783333 214.968919 
L 809.398485 214.968919 
" style="fill:none;stroke:#b2b2b2;stroke-dasharray:1.85,0.8;stroke-dashoffset:0;stroke-width:0.5;"/>
     </g>
     <g id="line2d_60">
      <g>
       <use style="stroke:#000000;stroke-width:0.8;" x="449.783333" xlink:href="#m5aaa977320" y="214.968919"/>
      </g>
     </g>
     <g id="text_32">
      <!-- 10 -->
      <g transform="translate(433.558333 218.768137)scale(0.1 -0.1)">
       <use xlink:href="#DejaVuSans-49"/>
       <use x="63.623047" xlink:href="#DejaVuSans-48"/>
      </g>
     </g>
    </g>
    <g id="ytick_12">
     <g id="line2d_61">
      <path clip-path="url(#p1bb77e6813)" d="M 449.783333 169.13867 
L 809.398485 169.13867 
" style="fill:none;stroke:#b2b2b2;stroke-dasharray:1.85,0.8;stroke-dashoffset:0;stroke-width:0.5;"/>
     </g>
     <g id="line2d_62">
      <g>
       <use style="stroke:#000000;stroke-width:0.8;" x="449.783333" xlink:href="#m5aaa977320" y="169.13867"/>
      </g>
     </g>
     <g id="text_33">
      <!-- 15 -->
      <g transform="translate(433.558333 172.937889)scale(0.1 -0.1)">
       <use xlink:href="#DejaVuSans-49"/>
       <use x="63.623047" xlink:href="#DejaVuSans-53"/>
      </g>
     </g>
    </g>
    <g id="ytick_13">
     <g id="line2d_63">
      <path clip-path="url(#p1bb77e6813)" d="M 449.783333 123.308421 
L 809.398485 123.308421 
" style="fill:none;stroke:#b2b2b2;stroke-dasharray:1.85,0.8;stroke-dashoffset:0;stroke-width:0.5;"/>
     </g>
     <g id="line2d_64">
      <g>
       <use style="stroke:#000000;stroke-width:0.8;" x="449.783333" xlink:href="#m5aaa977320" y="123.308421"/>
      </g>
     </g>
     <g id="text_34">
      <!-- 20 -->
      <g transform="translate(433.558333 127.10764)scale(0.1 -0.1)">
       <use xlink:href="#DejaVuSans-50"/>
       <use x="63.623047" xlink:href="#DejaVuSans-48"/>
      </g>
     </g>
    </g>
    <g id="ytick_14">
     <g id="line2d_65">
      <path clip-path="url(#p1bb77e6813)" d="M 449.783333 77.478173 
L 809.398485 77.478173 
" style="fill:none;stroke:#b2b2b2;stroke-dasharray:1.85,0.8;stroke-dashoffset:0;stroke-width:0.5;"/>
     </g>
     <g id="line2d_66">
      <g>
       <use style="stroke:#000000;stroke-width:0.8;" x="449.783333" xlink:href="#m5aaa977320" y="77.478173"/>
      </g>
     </g>
     <g id="text_35">
      <!-- 25 -->
      <g transform="translate(433.558333 81.277391)scale(0.1 -0.1)">
       <use xlink:href="#DejaVuSans-50"/>
       <use x="63.623047" xlink:href="#DejaVuSans-53"/>
      </g>
     </g>
    </g>
    <g id="ytick_15">
     <g id="line2d_67">
      <path clip-path="url(#p1bb77e6813)" d="M 449.783333 31.647924 
L 809.398485 31.647924 
" style="fill:none;stroke:#b2b2b2;stroke-dasharray:1.85,0.8;stroke-dashoffset:0;stroke-width:0.5;"/>
     </g>
     <g id="line2d_68">
      <g>
       <use style="stroke:#000000;stroke-width:0.8;" x="449.783333" xlink:href="#m5aaa977320" y="31.647924"/>
      </g>
     </g>
     <g id="text_36">
      <!-- 30 -->
      <g transform="translate(433.558333 35.447143)scale(0.1 -0.1)">
       <use xlink:href="#DejaVuSans-51"/>
       <use x="63.623047" xlink:href="#DejaVuSans-48"/>
      </g>
     </g>
    </g>
    <g id="text_37">
     <!-- $\Delta$ H -->
     <g transform="translate(427.062708 176.21)rotate(-90)scale(0.12 -0.12)">
      <use transform="translate(0 0.09375)" xlink:href="#Cmr10-162"/>
      <use transform="translate(83.300781 0.09375)" xlink:href="#DejaVuSans-32"/>
      <use transform="translate(115.087891 0.09375)" xlink:href="#DejaVuSans-72"/>
     </g>
    </g>
   </g>
   <g id="line2d_69">
    <g clip-path="url(#p1bb77e6813)">
     <use style="fill:#348abd;stroke:#348abd;" x="466.129477" xlink:href="#mb305780592" y="35.131023"/>
     <use style="fill:#348abd;stroke:#348abd;" x="512.832743" xlink:href="#mb305780592" y="106.076248"/>
     <use style="fill:#348abd;stroke:#348abd;" x="559.536009" xlink:href="#mb305780592" y="164.372324"/>
     <use style="fill:#348abd;stroke:#348abd;" x="606.239276" xlink:href="#mb305780592" y="211.48582"/>
     <use style="fill:#348abd;stroke:#348abd;" x="652.942542" xlink:href="#mb305780592" y="247.966698"/>
     <use style="fill:#348abd;stroke:#348abd;" x="699.645809" xlink:href="#mb305780592" y="275.923149"/>
     <use style="fill:#348abd;stroke:#348abd;" x="746.349075" xlink:href="#mb305780592" y="296.27178"/>
     <use style="fill:#348abd;stroke:#348abd;" x="793.052342" xlink:href="#mb305780592" y="304.704545"/>
    </g>
   </g>
   <g id="line2d_70">
    <path clip-path="url(#p1bb77e6813)" d="M 466.129477 24.795455 
L 489.48111 74.597712 
L 512.832743 115.599523 
L 536.184376 149.355994 
L 559.536009 177.147434 
L 582.887643 200.027909 
L 606.239276 218.865226 
L 629.590909 234.373843 
L 652.942542 247.141966 
L 676.294176 257.653862 
L 699.645809 266.308224 
L 722.997442 273.433293 
L 746.349075 279.299307 
L 769.700708 284.12875 
L 793.052342 288.104793 
" style="fill:none;stroke:#a60628;stroke-linecap:square;stroke-width:2;"/>
   </g>
   <g id="patch_9">
    <path d="M 449.783333 318.7 
L 449.783333 10.8 
" style="fill:none;stroke:#bcbcbc;stroke-linecap:square;stroke-linejoin:miter;stroke-width:0.8;"/>
   </g>
   <g id="patch_10">
    <path d="M 809.398485 318.7 
L 809.398485 10.8 
" style="fill:none;stroke:#bcbcbc;stroke-linecap:square;stroke-linejoin:miter;stroke-width:0.8;"/>
   </g>
   <g id="patch_11">
    <path d="M 449.783333 318.7 
L 809.398485 318.7 
" style="fill:none;stroke:#bcbcbc;stroke-linecap:square;stroke-linejoin:miter;stroke-width:0.8;"/>
   </g>
   <g id="patch_12">
    <path d="M 449.783333 10.8 
L 809.398485 10.8 
" style="fill:none;stroke:#bcbcbc;stroke-linecap:square;stroke-linejoin:miter;stroke-width:0.8;"/>
   </g>
   <g id="legend_2">
    <g id="patch_13">
     <path d="M 583.71411 48.15625 
L 802.398485 48.15625 
Q 804.398485 48.15625 804.398485 46.15625 
L 804.398485 17.8 
Q 804.398485 15.8 802.398485 15.8 
L 583.71411 15.8 
Q 581.71411 15.8 581.71411 17.8 
L 581.71411 46.15625 
Q 581.71411 48.15625 583.71411 48.15625 
z
" style="fill:#eeeeee;opacity:0.8;stroke:#cccccc;stroke-linejoin:miter;stroke-width:0.5;"/>
    </g>
    <g id="line2d_71"/>
    <g id="line2d_72">
     <g>
      <use style="fill:#348abd;stroke:#348abd;" x="595.71411" xlink:href="#mb305780592" y="23.898438"/>
     </g>
    </g>
    <g id="text_38">
     <!-- Экспериментальные данные -->
     <g transform="translate(613.71411 27.398438)scale(0.1 -0.1)">
      <use xlink:href="#DejaVuSans-1069"/>
      <use x="69.824219" xlink:href="#DejaVuSans-1082"/>
      <use x="130.224609" xlink:href="#DejaVuSans-1089"/>
      <use x="185.205078" xlink:href="#DejaVuSans-1087"/>
      <use x="250.585938" xlink:href="#DejaVuSans-1077"/>
      <use x="312.109375" xlink:href="#DejaVuSans-1088"/>
      <use x="375.585938" xlink:href="#DejaVuSans-1080"/>
      <use x="440.576172" xlink:href="#DejaVuSans-1084"/>
      <use x="516.015625" xlink:href="#DejaVuSans-1077"/>
      <use x="577.539062" xlink:href="#DejaVuSans-1085"/>
      <use x="642.919922" xlink:href="#DejaVuSans-1090"/>
      <use x="701.171875" xlink:href="#DejaVuSans-1072"/>
      <use x="762.451172" xlink:href="#DejaVuSans-1083"/>
      <use x="826.367188" xlink:href="#DejaVuSans-1100"/>
      <use x="885.302734" xlink:href="#DejaVuSans-1085"/>
      <use x="950.683594" xlink:href="#DejaVuSans-1099"/>
      <use x="1029.638672" xlink:href="#DejaVuSans-1077"/>
      <use x="1091.162109" xlink:href="#DejaVuSans-32"/>
      <use x="1122.949219" xlink:href="#DejaVuSans-1076"/>
      <use x="1192.089844" xlink:href="#DejaVuSans-1072"/>
      <use x="1253.369141" xlink:href="#DejaVuSans-1085"/>
      <use x="1318.75" xlink:href="#DejaVuSans-1085"/>
      <use x="1384.130859" xlink:href="#DejaVuSans-1099"/>
      <use x="1463.085938" xlink:href="#DejaVuSans-1077"/>
     </g>
    </g>
    <g id="line2d_73">
     <path d="M 585.71411 38.576563 
L 605.71411 38.576563 
" style="fill:none;stroke:#a60628;stroke-linecap:square;stroke-width:2;"/>
    </g>
    <g id="line2d_74"/>
    <g id="text_39">
     <!-- Экспоненциальная аппроксимация -->
     <g transform="translate(613.71411 42.076563)scale(0.1 -0.1)">
      <use xlink:href="#DejaVuSans-1069"/>
      <use x="69.824219" xlink:href="#DejaVuSans-1082"/>
      <use x="130.224609" xlink:href="#DejaVuSans-1089"/>
      <use x="185.205078" xlink:href="#DejaVuSans-1087"/>
      <use x="250.585938" xlink:href="#DejaVuSans-1086"/>
      <use x="311.767578" xlink:href="#DejaVuSans-1085"/>
      <use x="377.148438" xlink:href="#DejaVuSans-1077"/>
      <use x="438.671875" xlink:href="#DejaVuSans-1085"/>
      <use x="504.052734" xlink:href="#DejaVuSans-1094"/>
      <use x="572.119141" xlink:href="#DejaVuSans-1080"/>
      <use x="637.109375" xlink:href="#DejaVuSans-1072"/>
      <use x="698.388672" xlink:href="#DejaVuSans-1083"/>
      <use x="762.304688" xlink:href="#DejaVuSans-1100"/>
      <use x="821.240234" xlink:href="#DejaVuSans-1085"/>
      <use x="886.621094" xlink:href="#DejaVuSans-1072"/>
      <use x="947.900391" xlink:href="#DejaVuSans-1103"/>
      <use x="1008.056641" xlink:href="#DejaVuSans-32"/>
      <use x="1039.84375" xlink:href="#DejaVuSans-1072"/>
      <use x="1101.123047" xlink:href="#DejaVuSans-1087"/>
      <use x="1166.503906" xlink:href="#DejaVuSans-1087"/>
      <use x="1231.884766" xlink:href="#DejaVuSans-1088"/>
      <use x="1295.361328" xlink:href="#DejaVuSans-1086"/>
      <use x="1356.542969" xlink:href="#DejaVuSans-1082"/>
      <use x="1416.943359" xlink:href="#DejaVuSans-1089"/>
      <use x="1471.923828" xlink:href="#DejaVuSans-1080"/>
      <use x="1536.914062" xlink:href="#DejaVuSans-1084"/>
      <use x="1612.353516" xlink:href="#DejaVuSans-1072"/>
      <use x="1673.632812" xlink:href="#DejaVuSans-1094"/>
      <use x="1741.699219" xlink:href="#DejaVuSans-1080"/>
      <use x="1806.689453" xlink:href="#DejaVuSans-1103"/>
     </g>
    </g>
   </g>
  </g>
  <g id="axes_3">
   <g id="patch_14">
    <path d="M 853.516667 318.7 
L 1213.131818 318.7 
L 1213.131818 10.8 
L 853.516667 10.8 
z
" style="fill:#eeeeee;"/>
   </g>
   <g id="matplotlib.axis_5">
    <g id="xtick_17">
     <g id="line2d_75">
      <path clip-path="url(#p17015b64e3)" d="M 869.86281 318.7 
L 869.86281 10.8 
" style="fill:none;stroke:#b2b2b2;stroke-dasharray:1.85,0.8;stroke-dashoffset:0;stroke-width:0.5;"/>
     </g>
     <g id="line2d_76">
      <g>
       <use style="stroke:#000000;stroke-width:0.8;" x="869.86281" xlink:href="#mdac5c5ef8d" y="318.7"/>
      </g>
     </g>
     <g id="text_40">
      <!-- 300 -->
      <g transform="translate(860.31906 329.798438)scale(0.1 -0.1)">
       <use xlink:href="#DejaVuSans-51"/>
       <use x="63.623047" xlink:href="#DejaVuSans-48"/>
       <use x="127.246094" xlink:href="#DejaVuSans-48"/>
      </g>
     </g>
    </g>
    <g id="xtick_18">
     <g id="line2d_77">
      <path clip-path="url(#p17015b64e3)" d="M 916.566076 318.7 
L 916.566076 10.8 
" style="fill:none;stroke:#b2b2b2;stroke-dasharray:1.85,0.8;stroke-dashoffset:0;stroke-width:0.5;"/>
     </g>
     <g id="line2d_78">
      <g>
       <use style="stroke:#000000;stroke-width:0.8;" x="916.566076" xlink:href="#mdac5c5ef8d" y="318.7"/>
      </g>
     </g>
     <g id="text_41">
      <!-- 400 -->
      <g transform="translate(907.022326 329.798438)scale(0.1 -0.1)">
       <use xlink:href="#DejaVuSans-52"/>
       <use x="63.623047" xlink:href="#DejaVuSans-48"/>
       <use x="127.246094" xlink:href="#DejaVuSans-48"/>
      </g>
     </g>
    </g>
    <g id="xtick_19">
     <g id="line2d_79">
      <path clip-path="url(#p17015b64e3)" d="M 963.269343 318.7 
L 963.269343 10.8 
" style="fill:none;stroke:#b2b2b2;stroke-dasharray:1.85,0.8;stroke-dashoffset:0;stroke-width:0.5;"/>
     </g>
     <g id="line2d_80">
      <g>
       <use style="stroke:#000000;stroke-width:0.8;" x="963.269343" xlink:href="#mdac5c5ef8d" y="318.7"/>
      </g>
     </g>
     <g id="text_42">
      <!-- 500 -->
      <g transform="translate(953.725593 329.798438)scale(0.1 -0.1)">
       <use xlink:href="#DejaVuSans-53"/>
       <use x="63.623047" xlink:href="#DejaVuSans-48"/>
       <use x="127.246094" xlink:href="#DejaVuSans-48"/>
      </g>
     </g>
    </g>
    <g id="xtick_20">
     <g id="line2d_81">
      <path clip-path="url(#p17015b64e3)" d="M 1009.972609 318.7 
L 1009.972609 10.8 
" style="fill:none;stroke:#b2b2b2;stroke-dasharray:1.85,0.8;stroke-dashoffset:0;stroke-width:0.5;"/>
     </g>
     <g id="line2d_82">
      <g>
       <use style="stroke:#000000;stroke-width:0.8;" x="1009.972609" xlink:href="#mdac5c5ef8d" y="318.7"/>
      </g>
     </g>
     <g id="text_43">
      <!-- 600 -->
      <g transform="translate(1000.428859 329.798438)scale(0.1 -0.1)">
       <use xlink:href="#DejaVuSans-54"/>
       <use x="63.623047" xlink:href="#DejaVuSans-48"/>
       <use x="127.246094" xlink:href="#DejaVuSans-48"/>
      </g>
     </g>
    </g>
    <g id="xtick_21">
     <g id="line2d_83">
      <path clip-path="url(#p17015b64e3)" d="M 1056.675876 318.7 
L 1056.675876 10.8 
" style="fill:none;stroke:#b2b2b2;stroke-dasharray:1.85,0.8;stroke-dashoffset:0;stroke-width:0.5;"/>
     </g>
     <g id="line2d_84">
      <g>
       <use style="stroke:#000000;stroke-width:0.8;" x="1056.675876" xlink:href="#mdac5c5ef8d" y="318.7"/>
      </g>
     </g>
     <g id="text_44">
      <!-- 700 -->
      <g transform="translate(1047.132126 329.798438)scale(0.1 -0.1)">
       <use xlink:href="#DejaVuSans-55"/>
       <use x="63.623047" xlink:href="#DejaVuSans-48"/>
       <use x="127.246094" xlink:href="#DejaVuSans-48"/>
      </g>
     </g>
    </g>
    <g id="xtick_22">
     <g id="line2d_85">
      <path clip-path="url(#p17015b64e3)" d="M 1103.379142 318.7 
L 1103.379142 10.8 
" style="fill:none;stroke:#b2b2b2;stroke-dasharray:1.85,0.8;stroke-dashoffset:0;stroke-width:0.5;"/>
     </g>
     <g id="line2d_86">
      <g>
       <use style="stroke:#000000;stroke-width:0.8;" x="1103.379142" xlink:href="#mdac5c5ef8d" y="318.7"/>
      </g>
     </g>
     <g id="text_45">
      <!-- 800 -->
      <g transform="translate(1093.835392 329.798438)scale(0.1 -0.1)">
       <use xlink:href="#DejaVuSans-56"/>
       <use x="63.623047" xlink:href="#DejaVuSans-48"/>
       <use x="127.246094" xlink:href="#DejaVuSans-48"/>
      </g>
     </g>
    </g>
    <g id="xtick_23">
     <g id="line2d_87">
      <path clip-path="url(#p17015b64e3)" d="M 1150.082409 318.7 
L 1150.082409 10.8 
" style="fill:none;stroke:#b2b2b2;stroke-dasharray:1.85,0.8;stroke-dashoffset:0;stroke-width:0.5;"/>
     </g>
     <g id="line2d_88">
      <g>
       <use style="stroke:#000000;stroke-width:0.8;" x="1150.082409" xlink:href="#mdac5c5ef8d" y="318.7"/>
      </g>
     </g>
     <g id="text_46">
      <!-- 900 -->
      <g transform="translate(1140.538659 329.798438)scale(0.1 -0.1)">
       <use xlink:href="#DejaVuSans-57"/>
       <use x="63.623047" xlink:href="#DejaVuSans-48"/>
       <use x="127.246094" xlink:href="#DejaVuSans-48"/>
      </g>
     </g>
    </g>
    <g id="xtick_24">
     <g id="line2d_89">
      <path clip-path="url(#p17015b64e3)" d="M 1196.785675 318.7 
L 1196.785675 10.8 
" style="fill:none;stroke:#b2b2b2;stroke-dasharray:1.85,0.8;stroke-dashoffset:0;stroke-width:0.5;"/>
     </g>
     <g id="line2d_90">
      <g>
       <use style="stroke:#000000;stroke-width:0.8;" x="1196.785675" xlink:href="#mdac5c5ef8d" y="318.7"/>
      </g>
     </g>
     <g id="text_47">
      <!-- 1000 -->
      <g transform="translate(1184.060675 329.798438)scale(0.1 -0.1)">
       <use xlink:href="#DejaVuSans-49"/>
       <use x="63.623047" xlink:href="#DejaVuSans-48"/>
       <use x="127.246094" xlink:href="#DejaVuSans-48"/>
       <use x="190.869141" xlink:href="#DejaVuSans-48"/>
      </g>
     </g>
    </g>
    <g id="text_48">
     <!-- Temperature, K -->
     <g transform="translate(987.572367 344.99625)scale(0.12 -0.12)">
      <use xlink:href="#DejaVuSans-84"/>
      <use x="44.083984" xlink:href="#DejaVuSans-101"/>
      <use x="105.607422" xlink:href="#DejaVuSans-109"/>
      <use x="203.019531" xlink:href="#DejaVuSans-112"/>
      <use x="266.496094" xlink:href="#DejaVuSans-101"/>
      <use x="328.019531" xlink:href="#DejaVuSans-114"/>
      <use x="369.132812" xlink:href="#DejaVuSans-97"/>
      <use x="430.412109" xlink:href="#DejaVuSans-116"/>
      <use x="469.621094" xlink:href="#DejaVuSans-117"/>
      <use x="533" xlink:href="#DejaVuSans-114"/>
      <use x="571.863281" xlink:href="#DejaVuSans-101"/>
      <use x="633.386719" xlink:href="#DejaVuSans-44"/>
      <use x="665.173828" xlink:href="#DejaVuSans-32"/>
      <use x="696.960938" xlink:href="#DejaVuSans-75"/>
     </g>
    </g>
   </g>
   <g id="matplotlib.axis_6">
    <g id="ytick_16">
     <g id="line2d_91">
      <path clip-path="url(#p17015b64e3)" d="M 853.516667 306.571782 
L 1213.131818 306.571782 
" style="fill:none;stroke:#b2b2b2;stroke-dasharray:1.85,0.8;stroke-dashoffset:0;stroke-width:0.5;"/>
     </g>
     <g id="line2d_92">
      <g>
       <use style="stroke:#000000;stroke-width:0.8;" x="853.516667" xlink:href="#m5aaa977320" y="306.571782"/>
      </g>
     </g>
     <g id="text_49">
      <!-- 0 -->
      <g transform="translate(843.654167 310.371001)scale(0.1 -0.1)">
       <use xlink:href="#DejaVuSans-48"/>
      </g>
     </g>
    </g>
    <g id="ytick_17">
     <g id="line2d_93">
      <path clip-path="url(#p17015b64e3)" d="M 853.516667 262.113769 
L 1213.131818 262.113769 
" style="fill:none;stroke:#b2b2b2;stroke-dasharray:1.85,0.8;stroke-dashoffset:0;stroke-width:0.5;"/>
     </g>
     <g id="line2d_94">
      <g>
       <use style="stroke:#000000;stroke-width:0.8;" x="853.516667" xlink:href="#m5aaa977320" y="262.113769"/>
      </g>
     </g>
     <g id="text_50">
      <!-- 5 -->
      <g transform="translate(843.654167 265.912988)scale(0.1 -0.1)">
       <use xlink:href="#DejaVuSans-53"/>
      </g>
     </g>
    </g>
    <g id="ytick_18">
     <g id="line2d_95">
      <path clip-path="url(#p17015b64e3)" d="M 853.516667 217.655756 
L 1213.131818 217.655756 
" style="fill:none;stroke:#b2b2b2;stroke-dasharray:1.85,0.8;stroke-dashoffset:0;stroke-width:0.5;"/>
     </g>
     <g id="line2d_96">
      <g>
       <use style="stroke:#000000;stroke-width:0.8;" x="853.516667" xlink:href="#m5aaa977320" y="217.655756"/>
      </g>
     </g>
     <g id="text_51">
      <!-- 10 -->
      <g transform="translate(837.291667 221.454975)scale(0.1 -0.1)">
       <use xlink:href="#DejaVuSans-49"/>
       <use x="63.623047" xlink:href="#DejaVuSans-48"/>
      </g>
     </g>
    </g>
    <g id="ytick_19">
     <g id="line2d_97">
      <path clip-path="url(#p17015b64e3)" d="M 853.516667 173.197743 
L 1213.131818 173.197743 
" style="fill:none;stroke:#b2b2b2;stroke-dasharray:1.85,0.8;stroke-dashoffset:0;stroke-width:0.5;"/>
     </g>
     <g id="line2d_98">
      <g>
       <use style="stroke:#000000;stroke-width:0.8;" x="853.516667" xlink:href="#m5aaa977320" y="173.197743"/>
      </g>
     </g>
     <g id="text_52">
      <!-- 15 -->
      <g transform="translate(837.291667 176.996961)scale(0.1 -0.1)">
       <use xlink:href="#DejaVuSans-49"/>
       <use x="63.623047" xlink:href="#DejaVuSans-53"/>
      </g>
     </g>
    </g>
    <g id="ytick_20">
     <g id="line2d_99">
      <path clip-path="url(#p17015b64e3)" d="M 853.516667 128.73973 
L 1213.131818 128.73973 
" style="fill:none;stroke:#b2b2b2;stroke-dasharray:1.85,0.8;stroke-dashoffset:0;stroke-width:0.5;"/>
     </g>
     <g id="line2d_100">
      <g>
       <use style="stroke:#000000;stroke-width:0.8;" x="853.516667" xlink:href="#m5aaa977320" y="128.73973"/>
      </g>
     </g>
     <g id="text_53">
      <!-- 20 -->
      <g transform="translate(837.291667 132.538948)scale(0.1 -0.1)">
       <use xlink:href="#DejaVuSans-50"/>
       <use x="63.623047" xlink:href="#DejaVuSans-48"/>
      </g>
     </g>
    </g>
    <g id="ytick_21">
     <g id="line2d_101">
      <path clip-path="url(#p17015b64e3)" d="M 853.516667 84.281716 
L 1213.131818 84.281716 
" style="fill:none;stroke:#b2b2b2;stroke-dasharray:1.85,0.8;stroke-dashoffset:0;stroke-width:0.5;"/>
     </g>
     <g id="line2d_102">
      <g>
       <use style="stroke:#000000;stroke-width:0.8;" x="853.516667" xlink:href="#m5aaa977320" y="84.281716"/>
      </g>
     </g>
     <g id="text_54">
      <!-- 25 -->
      <g transform="translate(837.291667 88.080935)scale(0.1 -0.1)">
       <use xlink:href="#DejaVuSans-50"/>
       <use x="63.623047" xlink:href="#DejaVuSans-53"/>
      </g>
     </g>
    </g>
    <g id="ytick_22">
     <g id="line2d_103">
      <path clip-path="url(#p17015b64e3)" d="M 853.516667 39.823703 
L 1213.131818 39.823703 
" style="fill:none;stroke:#b2b2b2;stroke-dasharray:1.85,0.8;stroke-dashoffset:0;stroke-width:0.5;"/>
     </g>
     <g id="line2d_104">
      <g>
       <use style="stroke:#000000;stroke-width:0.8;" x="853.516667" xlink:href="#m5aaa977320" y="39.823703"/>
      </g>
     </g>
     <g id="text_55">
      <!-- 30 -->
      <g transform="translate(837.291667 43.622922)scale(0.1 -0.1)">
       <use xlink:href="#DejaVuSans-51"/>
       <use x="63.623047" xlink:href="#DejaVuSans-48"/>
      </g>
     </g>
    </g>
    <g id="text_56">
     <!-- $\Delta$ H -->
     <g transform="translate(830.796042 176.21)rotate(-90)scale(0.12 -0.12)">
      <use transform="translate(0 0.09375)" xlink:href="#Cmr10-162"/>
      <use transform="translate(83.300781 0.09375)" xlink:href="#DejaVuSans-32"/>
      <use transform="translate(115.087891 0.09375)" xlink:href="#DejaVuSans-72"/>
     </g>
    </g>
   </g>
   <g id="line2d_105">
    <g clip-path="url(#p17015b64e3)">
     <use style="fill:#348abd;stroke:#348abd;" x="869.86281" xlink:href="#mb305780592" y="43.202512"/>
     <use style="fill:#348abd;stroke:#348abd;" x="916.566076" xlink:href="#mb305780592" y="112.023517"/>
     <use style="fill:#348abd;stroke:#348abd;" x="963.269343" xlink:href="#mb305780592" y="168.574109"/>
     <use style="fill:#348abd;stroke:#348abd;" x="1009.972609" xlink:href="#mb305780592" y="214.276947"/>
     <use style="fill:#348abd;stroke:#348abd;" x="1056.675876" xlink:href="#mb305780592" y="249.665525"/>
     <use style="fill:#348abd;stroke:#348abd;" x="1103.379142" xlink:href="#mb305780592" y="276.784913"/>
     <use style="fill:#348abd;stroke:#348abd;" x="1150.082409" xlink:href="#mb305780592" y="296.524271"/>
     <use style="fill:#348abd;stroke:#348abd;" x="1196.785675" xlink:href="#mb305780592" y="304.704545"/>
    </g>
   </g>
   <g id="line2d_106">
    <path clip-path="url(#p17015b64e3)" d="M 869.86281 24.795455 
L 893.214443 93.28285 
L 916.566076 138.997013 
L 939.91771 171.113976 
L 963.269343 194.590532 
L 986.620976 212.30224 
L 1009.972609 226.013877 
L 1033.324242 236.859055 
L 1056.675876 245.593951 
L 1080.027509 252.739246 
L 1103.379142 258.663314 
L 1126.730775 263.632941 
L 1150.082409 267.845332 
L 1173.434042 271.448895 
L 1196.785675 274.557117 
" style="fill:none;stroke:#a60628;stroke-linecap:square;stroke-width:2;"/>
   </g>
   <g id="patch_15">
    <path d="M 853.516667 318.7 
L 853.516667 10.8 
" style="fill:none;stroke:#bcbcbc;stroke-linecap:square;stroke-linejoin:miter;stroke-width:0.8;"/>
   </g>
   <g id="patch_16">
    <path d="M 1213.131818 318.7 
L 1213.131818 10.8 
" style="fill:none;stroke:#bcbcbc;stroke-linecap:square;stroke-linejoin:miter;stroke-width:0.8;"/>
   </g>
   <g id="patch_17">
    <path d="M 853.516667 318.7 
L 1213.131818 318.7 
" style="fill:none;stroke:#bcbcbc;stroke-linecap:square;stroke-linejoin:miter;stroke-width:0.8;"/>
   </g>
   <g id="patch_18">
    <path d="M 853.516667 10.8 
L 1213.131818 10.8 
" style="fill:none;stroke:#bcbcbc;stroke-linecap:square;stroke-linejoin:miter;stroke-width:0.8;"/>
   </g>
   <g id="legend_3">
    <g id="patch_19">
     <path d="M 1021.669318 48.15625 
L 1206.131818 48.15625 
Q 1208.131818 48.15625 1208.131818 46.15625 
L 1208.131818 17.8 
Q 1208.131818 15.8 1206.131818 15.8 
L 1021.669318 15.8 
Q 1019.669318 15.8 1019.669318 17.8 
L 1019.669318 46.15625 
Q 1019.669318 48.15625 1021.669318 48.15625 
z
" style="fill:#eeeeee;opacity:0.8;stroke:#cccccc;stroke-linejoin:miter;stroke-width:0.5;"/>
    </g>
    <g id="line2d_107"/>
    <g id="line2d_108">
     <g>
      <use style="fill:#348abd;stroke:#348abd;" x="1033.669318" xlink:href="#mb305780592" y="23.898438"/>
     </g>
    </g>
    <g id="text_57">
     <!-- Экспериментальные данные -->
     <g transform="translate(1051.669318 27.398438)scale(0.1 -0.1)">
      <use xlink:href="#DejaVuSans-1069"/>
      <use x="69.824219" xlink:href="#DejaVuSans-1082"/>
      <use x="130.224609" xlink:href="#DejaVuSans-1089"/>
      <use x="185.205078" xlink:href="#DejaVuSans-1087"/>
      <use x="250.585938" xlink:href="#DejaVuSans-1077"/>
      <use x="312.109375" xlink:href="#DejaVuSans-1088"/>
      <use x="375.585938" xlink:href="#DejaVuSans-1080"/>
      <use x="440.576172" xlink:href="#DejaVuSans-1084"/>
      <use x="516.015625" xlink:href="#DejaVuSans-1077"/>
      <use x="577.539062" xlink:href="#DejaVuSans-1085"/>
      <use x="642.919922" xlink:href="#DejaVuSans-1090"/>
      <use x="701.171875" xlink:href="#DejaVuSans-1072"/>
      <use x="762.451172" xlink:href="#DejaVuSans-1083"/>
      <use x="826.367188" xlink:href="#DejaVuSans-1100"/>
      <use x="885.302734" xlink:href="#DejaVuSans-1085"/>
      <use x="950.683594" xlink:href="#DejaVuSans-1099"/>
      <use x="1029.638672" xlink:href="#DejaVuSans-1077"/>
      <use x="1091.162109" xlink:href="#DejaVuSans-32"/>
      <use x="1122.949219" xlink:href="#DejaVuSans-1076"/>
      <use x="1192.089844" xlink:href="#DejaVuSans-1072"/>
      <use x="1253.369141" xlink:href="#DejaVuSans-1085"/>
      <use x="1318.75" xlink:href="#DejaVuSans-1085"/>
      <use x="1384.130859" xlink:href="#DejaVuSans-1099"/>
      <use x="1463.085938" xlink:href="#DejaVuSans-1077"/>
     </g>
    </g>
    <g id="line2d_109">
     <path d="M 1023.669318 38.576563 
L 1043.669318 38.576563 
" style="fill:none;stroke:#a60628;stroke-linecap:square;stroke-width:2;"/>
    </g>
    <g id="line2d_110"/>
    <g id="text_58">
     <!-- Степенная аппроксимация -->
     <g transform="translate(1051.669318 42.076563)scale(0.1 -0.1)">
      <defs>
       <path d="M 64.40625 67.28125 
L 64.40625 56.890625 
Q 59.421875 61.53125 53.78125 63.8125 
Q 48.140625 66.109375 41.796875 66.109375 
Q 29.296875 66.109375 22.65625 58.46875 
Q 16.015625 50.828125 16.015625 36.375 
Q 16.015625 21.96875 22.65625 14.328125 
Q 29.296875 6.6875 41.796875 6.6875 
Q 48.140625 6.6875 53.78125 8.984375 
Q 59.421875 11.28125 64.40625 15.921875 
L 64.40625 5.609375 
Q 59.234375 2.09375 53.4375 0.328125 
Q 47.65625 -1.421875 41.21875 -1.421875 
Q 24.65625 -1.421875 15.125 8.703125 
Q 5.609375 18.84375 5.609375 36.375 
Q 5.609375 53.953125 15.125 64.078125 
Q 24.65625 74.21875 41.21875 74.21875 
Q 47.75 74.21875 53.53125 72.484375 
Q 59.328125 70.75 64.40625 67.28125 
z
" id="DejaVuSans-1057"/>
      </defs>
      <use xlink:href="#DejaVuSans-1057"/>
      <use x="69.824219" xlink:href="#DejaVuSans-1090"/>
      <use x="128.076172" xlink:href="#DejaVuSans-1077"/>
      <use x="189.599609" xlink:href="#DejaVuSans-1087"/>
      <use x="254.980469" xlink:href="#DejaVuSans-1077"/>
      <use x="316.503906" xlink:href="#DejaVuSans-1085"/>
      <use x="381.884766" xlink:href="#DejaVuSans-1085"/>
      <use x="447.265625" xlink:href="#DejaVuSans-1072"/>
      <use x="508.544922" xlink:href="#DejaVuSans-1103"/>
      <use x="568.701172" xlink:href="#DejaVuSans-32"/>
      <use x="600.488281" xlink:href="#DejaVuSans-1072"/>
      <use x="661.767578" xlink:href="#DejaVuSans-1087"/>
      <use x="727.148438" xlink:href="#DejaVuSans-1087"/>
      <use x="792.529297" xlink:href="#DejaVuSans-1088"/>
      <use x="856.005859" xlink:href="#DejaVuSans-1086"/>
      <use x="917.1875" xlink:href="#DejaVuSans-1082"/>
      <use x="977.587891" xlink:href="#DejaVuSans-1089"/>
      <use x="1032.568359" xlink:href="#DejaVuSans-1080"/>
      <use x="1097.558594" xlink:href="#DejaVuSans-1084"/>
      <use x="1172.998047" xlink:href="#DejaVuSans-1072"/>
      <use x="1234.277344" xlink:href="#DejaVuSans-1094"/>
      <use x="1302.34375" xlink:href="#DejaVuSans-1080"/>
      <use x="1367.333984" xlink:href="#DejaVuSans-1103"/>
     </g>
    </g>
   </g>
  </g>
 </g>
 <defs>
  <clipPath id="pda03a83a44">
   <rect height="307.9" width="359.615152" x="46.05" y="10.8"/>
  </clipPath>
  <clipPath id="p1bb77e6813">
   <rect height="307.9" width="359.615152" x="449.783333" y="10.8"/>
  </clipPath>
  <clipPath id="p17015b64e3">
   <rect height="307.9" width="359.615152" x="853.516667" y="10.8"/>
  </clipPath>
 </defs>
</svg>
