<?xml version="1.0" encoding="utf-8" standalone="no"?>
<!DOCTYPE svg PUBLIC "-//W3C//DTD SVG 1.1//EN"
  "http://www.w3.org/Graphics/SVG/1.1/DTD/svg11.dtd">
<!-- Created with matplotlib (https://matplotlib.org/) -->
<svg height="504pt" version="1.1" viewBox="0 0 720 504" width="720pt" xmlns="http://www.w3.org/2000/svg" xmlns:xlink="http://www.w3.org/1999/xlink">
 <metadata>
  <rdf:RDF xmlns:cc="http://creativecommons.org/ns#" xmlns:dc="http://purl.org/dc/elements/1.1/" xmlns:rdf="http://www.w3.org/1999/02/22-rdf-syntax-ns#">
   <cc:Work>
    <dc:type rdf:resource="http://purl.org/dc/dcmitype/StillImage"/>
    <dc:date>2021-05-01T15:34:11.321371</dc:date>
    <dc:format>image/svg+xml</dc:format>
    <dc:creator>
     <cc:Agent>
      <dc:title>Matplotlib v3.3.2, https://matplotlib.org/</dc:title>
     </cc:Agent>
    </dc:creator>
   </cc:Work>
  </rdf:RDF>
 </metadata>
 <defs>
  <style type="text/css">*{stroke-linecap:butt;stroke-linejoin:round;}</style>
 </defs>
 <g id="figure_1">
  <g id="patch_1">
   <path d="M 0 504 
L 720 504 
L 720 0 
L 0 0 
z
" style="fill:#ffffff;"/>
  </g>
  <g id="axes_1">
   <g id="patch_2">
    <path d="M 47.55 227.85 
L 709.2 227.85 
L 709.2 10.8 
L 47.55 10.8 
z
" style="fill:#e5e5e5;"/>
   </g>
   <g id="matplotlib.axis_1">
    <g id="xtick_1">
     <g id="line2d_1">
      <path clip-path="url(#p4f88cbeca2)" d="M 77.625 227.85 
L 77.625 10.8 
" style="fill:none;stroke:#ffffff;stroke-linecap:square;stroke-width:0.8;"/>
     </g>
     <g id="line2d_2">
      <defs>
       <path d="M 0 0 
L 0 3.5 
" id="mb9c02d78db" style="stroke:#555555;stroke-width:0.8;"/>
      </defs>
      <g>
       <use style="fill:#555555;stroke:#555555;stroke-width:0.8;" x="77.625" xlink:href="#mb9c02d78db" y="227.85"/>
      </g>
     </g>
    </g>
    <g id="xtick_2">
     <g id="line2d_3">
      <path clip-path="url(#p4f88cbeca2)" d="M 197.925 227.85 
L 197.925 10.8 
" style="fill:none;stroke:#ffffff;stroke-linecap:square;stroke-width:0.8;"/>
     </g>
     <g id="line2d_4">
      <g>
       <use style="fill:#555555;stroke:#555555;stroke-width:0.8;" x="197.925" xlink:href="#mb9c02d78db" y="227.85"/>
      </g>
     </g>
    </g>
    <g id="xtick_3">
     <g id="line2d_5">
      <path clip-path="url(#p4f88cbeca2)" d="M 318.225 227.85 
L 318.225 10.8 
" style="fill:none;stroke:#ffffff;stroke-linecap:square;stroke-width:0.8;"/>
     </g>
     <g id="line2d_6">
      <g>
       <use style="fill:#555555;stroke:#555555;stroke-width:0.8;" x="318.225" xlink:href="#mb9c02d78db" y="227.85"/>
      </g>
     </g>
    </g>
    <g id="xtick_4">
     <g id="line2d_7">
      <path clip-path="url(#p4f88cbeca2)" d="M 438.525 227.85 
L 438.525 10.8 
" style="fill:none;stroke:#ffffff;stroke-linecap:square;stroke-width:0.8;"/>
     </g>
     <g id="line2d_8">
      <g>
       <use style="fill:#555555;stroke:#555555;stroke-width:0.8;" x="438.525" xlink:href="#mb9c02d78db" y="227.85"/>
      </g>
     </g>
    </g>
    <g id="xtick_5">
     <g id="line2d_9">
      <path clip-path="url(#p4f88cbeca2)" d="M 558.825 227.85 
L 558.825 10.8 
" style="fill:none;stroke:#ffffff;stroke-linecap:square;stroke-width:0.8;"/>
     </g>
     <g id="line2d_10">
      <g>
       <use style="fill:#555555;stroke:#555555;stroke-width:0.8;" x="558.825" xlink:href="#mb9c02d78db" y="227.85"/>
      </g>
     </g>
    </g>
    <g id="xtick_6">
     <g id="line2d_11">
      <path clip-path="url(#p4f88cbeca2)" d="M 679.125 227.85 
L 679.125 10.8 
" style="fill:none;stroke:#ffffff;stroke-linecap:square;stroke-width:0.8;"/>
     </g>
     <g id="line2d_12">
      <g>
       <use style="fill:#555555;stroke:#555555;stroke-width:0.8;" x="679.125" xlink:href="#mb9c02d78db" y="227.85"/>
      </g>
     </g>
    </g>
   </g>
   <g id="matplotlib.axis_2">
    <g id="ytick_1">
     <g id="line2d_13">
      <path clip-path="url(#p4f88cbeca2)" d="M 47.55 193.150512 
L 709.2 193.150512 
" style="fill:none;stroke:#ffffff;stroke-linecap:square;stroke-width:0.8;"/>
     </g>
     <g id="line2d_14">
      <defs>
       <path d="M 0 0 
L -3.5 0 
" id="m15392fce79" style="stroke:#555555;stroke-width:0.8;"/>
      </defs>
      <g>
       <use style="fill:#555555;stroke:#555555;stroke-width:0.8;" x="47.55" xlink:href="#m15392fce79" y="193.150512"/>
      </g>
     </g>
     <g id="text_1">
      <!-- 4 -->
      <g style="fill:#555555;" transform="translate(34.1875 196.949731)scale(0.1 -0.1)">
       <defs>
        <path d="M 37.796875 64.3125 
L 12.890625 25.390625 
L 37.796875 25.390625 
z
M 35.203125 72.90625 
L 47.609375 72.90625 
L 47.609375 25.390625 
L 58.015625 25.390625 
L 58.015625 17.1875 
L 47.609375 17.1875 
L 47.609375 0 
L 37.796875 0 
L 37.796875 17.1875 
L 4.890625 17.1875 
L 4.890625 26.703125 
z
" id="DejaVuSans-52"/>
       </defs>
       <use xlink:href="#DejaVuSans-52"/>
      </g>
     </g>
    </g>
    <g id="ytick_2">
     <g id="line2d_15">
      <path clip-path="url(#p4f88cbeca2)" d="M 47.55 154.400061 
L 709.2 154.400061 
" style="fill:none;stroke:#ffffff;stroke-linecap:square;stroke-width:0.8;"/>
     </g>
     <g id="line2d_16">
      <g>
       <use style="fill:#555555;stroke:#555555;stroke-width:0.8;" x="47.55" xlink:href="#m15392fce79" y="154.400061"/>
      </g>
     </g>
     <g id="text_2">
      <!-- 6 -->
      <g style="fill:#555555;" transform="translate(34.1875 158.19928)scale(0.1 -0.1)">
       <defs>
        <path d="M 33.015625 40.375 
Q 26.375 40.375 22.484375 35.828125 
Q 18.609375 31.296875 18.609375 23.390625 
Q 18.609375 15.53125 22.484375 10.953125 
Q 26.375 6.390625 33.015625 6.390625 
Q 39.65625 6.390625 43.53125 10.953125 
Q 47.40625 15.53125 47.40625 23.390625 
Q 47.40625 31.296875 43.53125 35.828125 
Q 39.65625 40.375 33.015625 40.375 
z
M 52.59375 71.296875 
L 52.59375 62.3125 
Q 48.875 64.0625 45.09375 64.984375 
Q 41.3125 65.921875 37.59375 65.921875 
Q 27.828125 65.921875 22.671875 59.328125 
Q 17.53125 52.734375 16.796875 39.40625 
Q 19.671875 43.65625 24.015625 45.921875 
Q 28.375 48.1875 33.59375 48.1875 
Q 44.578125 48.1875 50.953125 41.515625 
Q 57.328125 34.859375 57.328125 23.390625 
Q 57.328125 12.15625 50.6875 5.359375 
Q 44.046875 -1.421875 33.015625 -1.421875 
Q 20.359375 -1.421875 13.671875 8.265625 
Q 6.984375 17.96875 6.984375 36.375 
Q 6.984375 53.65625 15.1875 63.9375 
Q 23.390625 74.21875 37.203125 74.21875 
Q 40.921875 74.21875 44.703125 73.484375 
Q 48.484375 72.75 52.59375 71.296875 
z
" id="DejaVuSans-54"/>
       </defs>
       <use xlink:href="#DejaVuSans-54"/>
      </g>
     </g>
    </g>
    <g id="ytick_3">
     <g id="line2d_17">
      <path clip-path="url(#p4f88cbeca2)" d="M 47.55 115.649611 
L 709.2 115.649611 
" style="fill:none;stroke:#ffffff;stroke-linecap:square;stroke-width:0.8;"/>
     </g>
     <g id="line2d_18">
      <g>
       <use style="fill:#555555;stroke:#555555;stroke-width:0.8;" x="47.55" xlink:href="#m15392fce79" y="115.649611"/>
      </g>
     </g>
     <g id="text_3">
      <!-- 8 -->
      <g style="fill:#555555;" transform="translate(34.1875 119.448829)scale(0.1 -0.1)">
       <defs>
        <path d="M 31.78125 34.625 
Q 24.75 34.625 20.71875 30.859375 
Q 16.703125 27.09375 16.703125 20.515625 
Q 16.703125 13.921875 20.71875 10.15625 
Q 24.75 6.390625 31.78125 6.390625 
Q 38.8125 6.390625 42.859375 10.171875 
Q 46.921875 13.96875 46.921875 20.515625 
Q 46.921875 27.09375 42.890625 30.859375 
Q 38.875 34.625 31.78125 34.625 
z
M 21.921875 38.8125 
Q 15.578125 40.375 12.03125 44.71875 
Q 8.5 49.078125 8.5 55.328125 
Q 8.5 64.0625 14.71875 69.140625 
Q 20.953125 74.21875 31.78125 74.21875 
Q 42.671875 74.21875 48.875 69.140625 
Q 55.078125 64.0625 55.078125 55.328125 
Q 55.078125 49.078125 51.53125 44.71875 
Q 48 40.375 41.703125 38.8125 
Q 48.828125 37.15625 52.796875 32.3125 
Q 56.78125 27.484375 56.78125 20.515625 
Q 56.78125 9.90625 50.3125 4.234375 
Q 43.84375 -1.421875 31.78125 -1.421875 
Q 19.734375 -1.421875 13.25 4.234375 
Q 6.78125 9.90625 6.78125 20.515625 
Q 6.78125 27.484375 10.78125 32.3125 
Q 14.796875 37.15625 21.921875 38.8125 
z
M 18.3125 54.390625 
Q 18.3125 48.734375 21.84375 45.5625 
Q 25.390625 42.390625 31.78125 42.390625 
Q 38.140625 42.390625 41.71875 45.5625 
Q 45.3125 48.734375 45.3125 54.390625 
Q 45.3125 60.0625 41.71875 63.234375 
Q 38.140625 66.40625 31.78125 66.40625 
Q 25.390625 66.40625 21.84375 63.234375 
Q 18.3125 60.0625 18.3125 54.390625 
z
" id="DejaVuSans-56"/>
       </defs>
       <use xlink:href="#DejaVuSans-56"/>
      </g>
     </g>
    </g>
    <g id="ytick_4">
     <g id="line2d_19">
      <path clip-path="url(#p4f88cbeca2)" d="M 47.55 76.89916 
L 709.2 76.89916 
" style="fill:none;stroke:#ffffff;stroke-linecap:square;stroke-width:0.8;"/>
     </g>
     <g id="line2d_20">
      <g>
       <use style="fill:#555555;stroke:#555555;stroke-width:0.8;" x="47.55" xlink:href="#m15392fce79" y="76.89916"/>
      </g>
     </g>
     <g id="text_4">
      <!-- 10 -->
      <g style="fill:#555555;" transform="translate(27.825 80.698378)scale(0.1 -0.1)">
       <defs>
        <path d="M 12.40625 8.296875 
L 28.515625 8.296875 
L 28.515625 63.921875 
L 10.984375 60.40625 
L 10.984375 69.390625 
L 28.421875 72.90625 
L 38.28125 72.90625 
L 38.28125 8.296875 
L 54.390625 8.296875 
L 54.390625 0 
L 12.40625 0 
z
" id="DejaVuSans-49"/>
        <path d="M 31.78125 66.40625 
Q 24.171875 66.40625 20.328125 58.90625 
Q 16.5 51.421875 16.5 36.375 
Q 16.5 21.390625 20.328125 13.890625 
Q 24.171875 6.390625 31.78125 6.390625 
Q 39.453125 6.390625 43.28125 13.890625 
Q 47.125 21.390625 47.125 36.375 
Q 47.125 51.421875 43.28125 58.90625 
Q 39.453125 66.40625 31.78125 66.40625 
z
M 31.78125 74.21875 
Q 44.046875 74.21875 50.515625 64.515625 
Q 56.984375 54.828125 56.984375 36.375 
Q 56.984375 17.96875 50.515625 8.265625 
Q 44.046875 -1.421875 31.78125 -1.421875 
Q 19.53125 -1.421875 13.0625 8.265625 
Q 6.59375 17.96875 6.59375 36.375 
Q 6.59375 54.828125 13.0625 64.515625 
Q 19.53125 74.21875 31.78125 74.21875 
z
" id="DejaVuSans-48"/>
       </defs>
       <use xlink:href="#DejaVuSans-49"/>
       <use x="63.623047" xlink:href="#DejaVuSans-48"/>
      </g>
     </g>
    </g>
    <g id="ytick_5">
     <g id="line2d_21">
      <path clip-path="url(#p4f88cbeca2)" d="M 47.55 38.148709 
L 709.2 38.148709 
" style="fill:none;stroke:#ffffff;stroke-linecap:square;stroke-width:0.8;"/>
     </g>
     <g id="line2d_22">
      <g>
       <use style="fill:#555555;stroke:#555555;stroke-width:0.8;" x="47.55" xlink:href="#m15392fce79" y="38.148709"/>
      </g>
     </g>
     <g id="text_5">
      <!-- 12 -->
      <g style="fill:#555555;" transform="translate(27.825 41.947927)scale(0.1 -0.1)">
       <defs>
        <path d="M 19.1875 8.296875 
L 53.609375 8.296875 
L 53.609375 0 
L 7.328125 0 
L 7.328125 8.296875 
Q 12.9375 14.109375 22.625 23.890625 
Q 32.328125 33.6875 34.8125 36.53125 
Q 39.546875 41.84375 41.421875 45.53125 
Q 43.3125 49.21875 43.3125 52.78125 
Q 43.3125 58.59375 39.234375 62.25 
Q 35.15625 65.921875 28.609375 65.921875 
Q 23.96875 65.921875 18.8125 64.3125 
Q 13.671875 62.703125 7.8125 59.421875 
L 7.8125 69.390625 
Q 13.765625 71.78125 18.9375 73 
Q 24.125 74.21875 28.421875 74.21875 
Q 39.75 74.21875 46.484375 68.546875 
Q 53.21875 62.890625 53.21875 53.421875 
Q 53.21875 48.921875 51.53125 44.890625 
Q 49.859375 40.875 45.40625 35.40625 
Q 44.1875 33.984375 37.640625 27.21875 
Q 31.109375 20.453125 19.1875 8.296875 
z
" id="DejaVuSans-50"/>
       </defs>
       <use xlink:href="#DejaVuSans-49"/>
       <use x="63.623047" xlink:href="#DejaVuSans-50"/>
      </g>
     </g>
    </g>
    <g id="text_6">
     <!-- Y -->
     <g style="fill:#555555;" transform="translate(21.329375 122.989688)rotate(-90)scale(0.12 -0.12)">
      <defs>
       <path d="M -0.203125 72.90625 
L 10.40625 72.90625 
L 30.609375 42.921875 
L 50.6875 72.90625 
L 61.28125 72.90625 
L 35.5 34.71875 
L 35.5 0 
L 25.59375 0 
L 25.59375 34.71875 
z
" id="DejaVuSans-89"/>
      </defs>
      <use xlink:href="#DejaVuSans-89"/>
     </g>
    </g>
   </g>
   <g id="line2d_23">
    <path clip-path="url(#p4f88cbeca2)" d="M 77.625 217.984091 
L 115.557432 214.551067 
L 149.877252 211.227519 
L 181.788664 207.916352 
L 211.291667 204.631981 
L 238.386261 201.395156 
L 263.67455 198.153244 
L 287.156532 194.923026 
L 309.434309 191.634181 
L 329.905781 188.392516 
L 349.173048 185.123597 
L 367.236111 181.842189 
L 384.697072 178.445492 
L 400.953829 175.060049 
L 416.608483 171.572152 
L 431.058934 168.130935 
L 444.907282 164.610675 
L 458.153529 161.01716 
L 470.797673 157.358023 
L 482.839715 153.642937 
L 494.279655 149.883781 
L 505.117492 146.094792 
L 515.353228 142.29268 
L 525.588964 138.251994 
L 535.222598 134.209946 
L 544.254129 130.189937 
L 553.285661 125.925885 
L 561.71509 121.70573 
L 570.14452 117.232176 
L 577.971847 112.830937 
L 585.799174 108.170319 
L 593.024399 103.61798 
L 600.249625 98.80462 
L 607.47485 93.70773 
L 614.097973 88.765174 
L 620.721096 83.541964 
L 627.344219 78.014398 
L 633.36524 72.703149 
L 639.386261 67.096791 
L 645.407282 61.171183 
L 650.826201 55.543164 
L 656.24512 49.613501 
L 661.664039 43.358608 
L 667.082958 36.752518 
L 672.501877 29.76658 
L 677.318694 23.212448 
L 679.125 20.665909 
L 679.125 20.665909 
" style="fill:none;stroke:#e24a33;stroke-linecap:square;stroke-width:1.5;"/>
   </g>
   <g id="line2d_24">
    <path clip-path="url(#p4f88cbeca2)" d="M 77.625 217.983739 
L 197.925 207.450204 
L 318.225 194.290557 
L 438.525 176.288422 
L 558.825 148.582633 
L 679.125 98.286497 
" style="fill:none;stroke:#348abd;stroke-linecap:square;stroke-width:1.5;"/>
    <defs>
     <path d="M 0 3 
C 0.795609 3 1.55874 2.683901 2.12132 2.12132 
C 2.683901 1.55874 3 0.795609 3 0 
C 3 -0.795609 2.683901 -1.55874 2.12132 -2.12132 
C 1.55874 -2.683901 0.795609 -3 0 -3 
C -0.795609 -3 -1.55874 -2.683901 -2.12132 -2.12132 
C -2.683901 -1.55874 -3 -0.795609 -3 0 
C -3 0.795609 -2.683901 1.55874 -2.12132 2.12132 
C -1.55874 2.683901 -0.795609 3 0 3 
z
" id="m0e187bf3ed" style="stroke:#348abd;"/>
    </defs>
    <g clip-path="url(#p4f88cbeca2)">
     <use style="fill:#348abd;stroke:#348abd;" x="77.625" xlink:href="#m0e187bf3ed" y="217.983739"/>
     <use style="fill:#348abd;stroke:#348abd;" x="197.925" xlink:href="#m0e187bf3ed" y="207.450204"/>
     <use style="fill:#348abd;stroke:#348abd;" x="318.225" xlink:href="#m0e187bf3ed" y="194.290557"/>
     <use style="fill:#348abd;stroke:#348abd;" x="438.525" xlink:href="#m0e187bf3ed" y="176.288422"/>
     <use style="fill:#348abd;stroke:#348abd;" x="558.825" xlink:href="#m0e187bf3ed" y="148.582633"/>
     <use style="fill:#348abd;stroke:#348abd;" x="679.125" xlink:href="#m0e187bf3ed" y="98.286497"/>
    </g>
   </g>
   <g id="line2d_25">
    <path clip-path="url(#p4f88cbeca2)" d="M 77.625 217.983739 
L 137.775 212.716971 
L 197.925 206.865204 
L 258.075 200.224477 
L 318.225 192.507875 
L 378.375 183.296674 
L 438.525 171.954129 
L 498.675 157.464941 
L 558.825 138.116283 
L 618.975 110.811984 
L 679.125 69.44556 
" style="fill:none;stroke:#988ed5;stroke-linecap:square;stroke-width:1.5;"/>
    <defs>
     <path d="M 0 3 
C 0.795609 3 1.55874 2.683901 2.12132 2.12132 
C 2.683901 1.55874 3 0.795609 3 0 
C 3 -0.795609 2.683901 -1.55874 2.12132 -2.12132 
C 1.55874 -2.683901 0.795609 -3 0 -3 
C -0.795609 -3 -1.55874 -2.683901 -2.12132 -2.12132 
C -2.683901 -1.55874 -3 -0.795609 -3 0 
C -3 0.795609 -2.683901 1.55874 -2.12132 2.12132 
C -1.55874 2.683901 -0.795609 3 0 3 
z
" id="m2524d7236c" style="stroke:#988ed5;"/>
    </defs>
    <g clip-path="url(#p4f88cbeca2)">
     <use style="fill:#988ed5;stroke:#988ed5;" x="77.625" xlink:href="#m2524d7236c" y="217.983739"/>
     <use style="fill:#988ed5;stroke:#988ed5;" x="137.775" xlink:href="#m2524d7236c" y="212.716971"/>
     <use style="fill:#988ed5;stroke:#988ed5;" x="197.925" xlink:href="#m2524d7236c" y="206.865204"/>
     <use style="fill:#988ed5;stroke:#988ed5;" x="258.075" xlink:href="#m2524d7236c" y="200.224477"/>
     <use style="fill:#988ed5;stroke:#988ed5;" x="318.225" xlink:href="#m2524d7236c" y="192.507875"/>
     <use style="fill:#988ed5;stroke:#988ed5;" x="378.375" xlink:href="#m2524d7236c" y="183.296674"/>
     <use style="fill:#988ed5;stroke:#988ed5;" x="438.525" xlink:href="#m2524d7236c" y="171.954129"/>
     <use style="fill:#988ed5;stroke:#988ed5;" x="498.675" xlink:href="#m2524d7236c" y="157.464941"/>
     <use style="fill:#988ed5;stroke:#988ed5;" x="558.825" xlink:href="#m2524d7236c" y="138.116283"/>
     <use style="fill:#988ed5;stroke:#988ed5;" x="618.975" xlink:href="#m2524d7236c" y="110.811984"/>
     <use style="fill:#988ed5;stroke:#988ed5;" x="679.125" xlink:href="#m2524d7236c" y="69.44556"/>
    </g>
   </g>
   <g id="line2d_26">
    <path clip-path="url(#p4f88cbeca2)" d="M 77.625 217.983739 
L 107.7 215.350355 
L 137.775 212.578378 
L 167.85 209.645495 
L 197.925 206.525525 
L 228 203.187479 
L 258.075 199.594352 
L 288.15 195.70153 
L 318.225 191.454698 
L 348.3 186.787025 
L 378.375 181.61535 
L 408.45 175.834923 
L 438.525 169.312032 
L 468.6 161.873502 
L 498.675 153.29141 
L 528.75 143.260359 
L 558.825 131.36285 
L 588.9 117.015045 
L 618.975 99.379115 
L 649.05 77.216491 
L 679.125 48.631897 
" style="fill:none;stroke:#777777;stroke-linecap:square;stroke-width:1.5;"/>
    <defs>
     <path d="M 0 3 
C 0.795609 3 1.55874 2.683901 2.12132 2.12132 
C 2.683901 1.55874 3 0.795609 3 0 
C 3 -0.795609 2.683901 -1.55874 2.12132 -2.12132 
C 1.55874 -2.683901 0.795609 -3 0 -3 
C -0.795609 -3 -1.55874 -2.683901 -2.12132 -2.12132 
C -2.683901 -1.55874 -3 -0.795609 -3 0 
C -3 0.795609 -2.683901 1.55874 -2.12132 2.12132 
C -1.55874 2.683901 -0.795609 3 0 3 
z
" id="mab58ba819a" style="stroke:#777777;"/>
    </defs>
    <g clip-path="url(#p4f88cbeca2)">
     <use style="fill:#777777;stroke:#777777;" x="77.625" xlink:href="#mab58ba819a" y="217.983739"/>
     <use style="fill:#777777;stroke:#777777;" x="107.7" xlink:href="#mab58ba819a" y="215.350355"/>
     <use style="fill:#777777;stroke:#777777;" x="137.775" xlink:href="#mab58ba819a" y="212.578378"/>
     <use style="fill:#777777;stroke:#777777;" x="167.85" xlink:href="#mab58ba819a" y="209.645495"/>
     <use style="fill:#777777;stroke:#777777;" x="197.925" xlink:href="#mab58ba819a" y="206.525525"/>
     <use style="fill:#777777;stroke:#777777;" x="228" xlink:href="#mab58ba819a" y="203.187479"/>
     <use style="fill:#777777;stroke:#777777;" x="258.075" xlink:href="#mab58ba819a" y="199.594352"/>
     <use style="fill:#777777;stroke:#777777;" x="288.15" xlink:href="#mab58ba819a" y="195.70153"/>
     <use style="fill:#777777;stroke:#777777;" x="318.225" xlink:href="#mab58ba819a" y="191.454698"/>
     <use style="fill:#777777;stroke:#777777;" x="348.3" xlink:href="#mab58ba819a" y="186.787025"/>
     <use style="fill:#777777;stroke:#777777;" x="378.375" xlink:href="#mab58ba819a" y="181.61535"/>
     <use style="fill:#777777;stroke:#777777;" x="408.45" xlink:href="#mab58ba819a" y="175.834923"/>
     <use style="fill:#777777;stroke:#777777;" x="438.525" xlink:href="#mab58ba819a" y="169.312032"/>
     <use style="fill:#777777;stroke:#777777;" x="468.6" xlink:href="#mab58ba819a" y="161.873502"/>
     <use style="fill:#777777;stroke:#777777;" x="498.675" xlink:href="#mab58ba819a" y="153.29141"/>
     <use style="fill:#777777;stroke:#777777;" x="528.75" xlink:href="#mab58ba819a" y="143.260359"/>
     <use style="fill:#777777;stroke:#777777;" x="558.825" xlink:href="#mab58ba819a" y="131.36285"/>
     <use style="fill:#777777;stroke:#777777;" x="588.9" xlink:href="#mab58ba819a" y="117.015045"/>
     <use style="fill:#777777;stroke:#777777;" x="618.975" xlink:href="#mab58ba819a" y="99.379115"/>
     <use style="fill:#777777;stroke:#777777;" x="649.05" xlink:href="#mab58ba819a" y="77.216491"/>
     <use style="fill:#777777;stroke:#777777;" x="679.125" xlink:href="#mab58ba819a" y="48.631897"/>
    </g>
   </g>
   <g id="patch_3">
    <path d="M 47.55 227.85 
L 47.55 10.8 
" style="fill:none;stroke:#ffffff;stroke-linecap:square;stroke-linejoin:miter;"/>
   </g>
   <g id="patch_4">
    <path d="M 709.2 227.85 
L 709.2 10.8 
" style="fill:none;stroke:#ffffff;stroke-linecap:square;stroke-linejoin:miter;"/>
   </g>
   <g id="patch_5">
    <path d="M 47.55 227.85 
L 709.2 227.85 
" style="fill:none;stroke:#ffffff;stroke-linecap:square;stroke-linejoin:miter;"/>
   </g>
   <g id="patch_6">
    <path d="M 47.55 10.8 
L 709.2 10.8 
" style="fill:none;stroke:#ffffff;stroke-linecap:square;stroke-linejoin:miter;"/>
   </g>
   <g id="legend_1">
    <g id="patch_7">
     <path d="M 58.75 120.135 
L 412.19 120.135 
Q 415.39 120.135 415.39 116.935 
L 415.39 22 
Q 415.39 18.8 412.19 18.8 
L 58.75 18.8 
Q 55.55 18.8 55.55 22 
L 55.55 116.935 
Q 55.55 120.135 58.75 120.135 
z
" style="fill:#e5e5e5;opacity:0.8;stroke:#cccccc;stroke-linejoin:miter;stroke-width:0.5;"/>
    </g>
    <g id="line2d_27">
     <path d="M 61.95 34.32 
L 93.95 34.32 
" style="fill:none;stroke:#e24a33;stroke-linecap:square;stroke-width:1.5;"/>
    </g>
    <g id="line2d_28"/>
    <g id="text_7">
     <!-- Аналитическое решение $y=e^{tg(x)+1}$ -->
     <g transform="translate(106.75 39.92)scale(0.16 -0.16)">
      <defs>
       <path d="M 34.1875 63.1875 
L 20.796875 26.90625 
L 47.609375 26.90625 
z
M 28.609375 72.90625 
L 39.796875 72.90625 
L 67.578125 0 
L 57.328125 0 
L 50.6875 18.703125 
L 17.828125 18.703125 
L 11.1875 0 
L 0.78125 0 
z
" id="DejaVuSans-1040"/>
       <path d="M 9.078125 54.6875 
L 18.109375 54.6875 
L 18.109375 32.375 
L 47.265625 32.375 
L 47.265625 54.6875 
L 56.296875 54.6875 
L 56.296875 0 
L 47.265625 0 
L 47.265625 25.203125 
L 18.109375 25.203125 
L 18.109375 0 
L 9.078125 0 
z
" id="DejaVuSans-1085"/>
       <path d="M 34.28125 27.484375 
Q 23.390625 27.484375 19.1875 25 
Q 14.984375 22.515625 14.984375 16.5 
Q 14.984375 11.71875 18.140625 8.90625 
Q 21.296875 6.109375 26.703125 6.109375 
Q 34.1875 6.109375 38.703125 11.40625 
Q 43.21875 16.703125 43.21875 25.484375 
L 43.21875 27.484375 
z
M 52.203125 31.203125 
L 52.203125 0 
L 43.21875 0 
L 43.21875 8.296875 
Q 40.140625 3.328125 35.546875 0.953125 
Q 30.953125 -1.421875 24.3125 -1.421875 
Q 15.921875 -1.421875 10.953125 3.296875 
Q 6 8.015625 6 15.921875 
Q 6 25.140625 12.171875 29.828125 
Q 18.359375 34.515625 30.609375 34.515625 
L 43.21875 34.515625 
L 43.21875 35.40625 
Q 43.21875 41.609375 39.140625 45 
Q 35.0625 48.390625 27.6875 48.390625 
Q 23 48.390625 18.546875 47.265625 
Q 14.109375 46.140625 10.015625 43.890625 
L 10.015625 52.203125 
Q 14.9375 54.109375 19.578125 55.046875 
Q 24.21875 56 28.609375 56 
Q 40.484375 56 46.34375 49.84375 
Q 52.203125 43.703125 52.203125 31.203125 
z
" id="DejaVuSans-1072"/>
       <path d="M 3.71875 0 
L 3.71875 7.46875 
Q 12.59375 8.84375 15.328125 14.984375 
Q 18.65625 23.640625 18.65625 45.75 
L 18.65625 54.6875 
L 55.609375 54.6875 
L 55.609375 0 
L 46.625 0 
L 46.625 47.515625 
L 27.640625 47.515625 
L 27.640625 42.09375 
Q 27.640625 21 23.34375 11.53125 
Q 18.75 1.421875 3.71875 0 
z
" id="DejaVuSans-1083"/>
       <path d="M 55.90625 54.6875 
L 55.90625 0 
L 46.96875 0 
L 46.96875 43.890625 
L 20.609375 0 
L 9.078125 0 
L 9.078125 54.6875 
L 18.015625 54.6875 
L 18.015625 10.890625 
L 44.34375 54.6875 
z
" id="DejaVuSans-1080"/>
       <path d="M 2.9375 54.6875 
L 55.328125 54.6875 
L 55.328125 47.515625 
L 33.546875 47.515625 
L 33.546875 0 
L 24.703125 0 
L 24.703125 47.515625 
L 2.9375 47.515625 
z
" id="DejaVuSans-1090"/>
       <path d="M 41.015625 0 
L 41.015625 23 
L 24.265625 23 
Q 16.796875 23 11.8125 27.640625 
Q 7.328125 31.84375 7.328125 40.828125 
L 7.328125 54.6875 
L 16.3125 54.6875 
L 16.3125 41.65625 
Q 16.3125 35.9375 18.84375 33.0625 
Q 21.4375 30.171875 26.515625 30.171875 
L 41.015625 30.171875 
L 41.015625 54.6875 
L 50 54.6875 
L 50 0 
z
" id="DejaVuSans-1095"/>
       <path d="M 56.203125 29.59375 
L 56.203125 25.203125 
L 14.890625 25.203125 
Q 15.484375 15.921875 20.484375 11.0625 
Q 25.484375 6.203125 34.421875 6.203125 
Q 39.59375 6.203125 44.453125 7.46875 
Q 49.3125 8.734375 54.109375 11.28125 
L 54.109375 2.78125 
Q 49.265625 0.734375 44.1875 -0.34375 
Q 39.109375 -1.421875 33.890625 -1.421875 
Q 20.796875 -1.421875 13.15625 6.1875 
Q 5.515625 13.8125 5.515625 26.8125 
Q 5.515625 40.234375 12.765625 48.109375 
Q 20.015625 56 32.328125 56 
Q 43.359375 56 49.78125 48.890625 
Q 56.203125 41.796875 56.203125 29.59375 
z
M 47.21875 32.234375 
Q 47.125 39.59375 43.09375 43.984375 
Q 39.0625 48.390625 32.421875 48.390625 
Q 24.90625 48.390625 20.390625 44.140625 
Q 15.875 39.890625 15.1875 32.171875 
z
" id="DejaVuSans-1077"/>
       <path d="M 48.78125 52.59375 
L 48.78125 44.1875 
Q 44.96875 46.296875 41.140625 47.34375 
Q 37.3125 48.390625 33.40625 48.390625 
Q 24.65625 48.390625 19.8125 42.84375 
Q 14.984375 37.3125 14.984375 27.296875 
Q 14.984375 17.28125 19.8125 11.734375 
Q 24.65625 6.203125 33.40625 6.203125 
Q 37.3125 6.203125 41.140625 7.25 
Q 44.96875 8.296875 48.78125 10.40625 
L 48.78125 2.09375 
Q 45.015625 0.34375 40.984375 -0.53125 
Q 36.96875 -1.421875 32.421875 -1.421875 
Q 20.0625 -1.421875 12.78125 6.34375 
Q 5.515625 14.109375 5.515625 27.296875 
Q 5.515625 40.671875 12.859375 48.328125 
Q 20.21875 56 33.015625 56 
Q 37.15625 56 41.109375 55.140625 
Q 45.0625 54.296875 48.78125 52.59375 
z
" id="DejaVuSans-1089"/>
       <path d="M 9.078125 54.6875 
L 18.015625 54.6875 
L 18.015625 29 
L 43.359375 54.6875 
L 54.390625 54.6875 
L 33.5 33.546875 
L 57.078125 0 
L 47.015625 0 
L 27.640625 27.59375 
L 18.015625 17.828125 
L 18.015625 0 
L 9.078125 0 
z
" id="DejaVuSans-1082"/>
       <path d="M 30.609375 48.390625 
Q 23.390625 48.390625 19.1875 42.75 
Q 14.984375 37.109375 14.984375 27.296875 
Q 14.984375 17.484375 19.15625 11.84375 
Q 23.34375 6.203125 30.609375 6.203125 
Q 37.796875 6.203125 41.984375 11.859375 
Q 46.1875 17.53125 46.1875 27.296875 
Q 46.1875 37.015625 41.984375 42.703125 
Q 37.796875 48.390625 30.609375 48.390625 
z
M 30.609375 56 
Q 42.328125 56 49.015625 48.375 
Q 55.71875 40.765625 55.71875 27.296875 
Q 55.71875 13.875 49.015625 6.21875 
Q 42.328125 -1.421875 30.609375 -1.421875 
Q 18.84375 -1.421875 12.171875 6.21875 
Q 5.515625 13.875 5.515625 27.296875 
Q 5.515625 40.765625 12.171875 48.375 
Q 18.84375 56 30.609375 56 
z
" id="DejaVuSans-1086"/>
       <path id="DejaVuSans-32"/>
       <path d="M 18.109375 8.203125 
L 18.109375 -20.796875 
L 9.078125 -20.796875 
L 9.078125 54.6875 
L 18.109375 54.6875 
L 18.109375 46.390625 
Q 20.953125 51.265625 25.265625 53.625 
Q 29.59375 56 35.59375 56 
Q 45.5625 56 51.78125 48.09375 
Q 58.015625 40.1875 58.015625 27.296875 
Q 58.015625 14.40625 51.78125 6.484375 
Q 45.5625 -1.421875 35.59375 -1.421875 
Q 29.59375 -1.421875 25.265625 0.953125 
Q 20.953125 3.328125 18.109375 8.203125 
z
M 48.6875 27.296875 
Q 48.6875 37.203125 44.609375 42.84375 
Q 40.53125 48.484375 33.40625 48.484375 
Q 26.265625 48.484375 22.1875 42.84375 
Q 18.109375 37.203125 18.109375 27.296875 
Q 18.109375 17.390625 22.1875 11.75 
Q 26.265625 6.109375 33.40625 6.109375 
Q 40.53125 6.109375 44.609375 11.75 
Q 48.6875 17.390625 48.6875 27.296875 
z
" id="DejaVuSans-1088"/>
       <path d="M 50.25 7.171875 
L 73.390625 7.171875 
L 73.390625 54.6875 
L 82.421875 54.6875 
L 82.421875 0 
L 9.078125 0 
L 9.078125 54.6875 
L 18.109375 54.6875 
L 18.109375 7.171875 
L 41.21875 7.171875 
L 41.21875 54.6875 
L 50.25 54.6875 
z
" id="DejaVuSans-1096"/>
       <path d="M 24.8125 -5.078125 
Q 18.5625 -15.578125 14.625 -18.1875 
Q 10.6875 -20.796875 4.59375 -20.796875 
L -2.484375 -20.796875 
L -0.984375 -13.28125 
L 4.203125 -13.28125 
Q 7.953125 -13.28125 10.59375 -11.234375 
Q 13.234375 -9.1875 16.5 -3.21875 
L 19.28125 2 
L 7.171875 54.6875 
L 16.703125 54.6875 
L 25.78125 12.796875 
L 50.875 54.6875 
L 60.296875 54.6875 
z
" id="DejaVuSans-Oblique-121"/>
       <path d="M 10.59375 45.40625 
L 73.1875 45.40625 
L 73.1875 37.203125 
L 10.59375 37.203125 
z
M 10.59375 25.484375 
L 73.1875 25.484375 
L 73.1875 17.1875 
L 10.59375 17.1875 
z
" id="DejaVuSans-61"/>
       <path d="M 48.09375 32.234375 
Q 48.25 33.015625 48.3125 33.84375 
Q 48.390625 34.671875 48.390625 35.5 
Q 48.390625 41.453125 44.890625 44.921875 
Q 41.40625 48.390625 35.40625 48.390625 
Q 28.71875 48.390625 23.578125 44.15625 
Q 18.453125 39.9375 15.828125 32.171875 
z
M 55.90625 25.203125 
L 14.109375 25.203125 
Q 13.8125 23.34375 13.71875 22.265625 
Q 13.625 21.1875 13.625 20.40625 
Q 13.625 13.625 17.796875 9.90625 
Q 21.96875 6.203125 29.59375 6.203125 
Q 35.453125 6.203125 40.671875 7.515625 
Q 45.90625 8.84375 50.390625 11.375 
L 48.6875 2.484375 
Q 43.84375 0.53125 38.6875 -0.4375 
Q 33.546875 -1.421875 28.21875 -1.421875 
Q 16.84375 -1.421875 10.71875 4.015625 
Q 4.59375 9.46875 4.59375 19.484375 
Q 4.59375 28.03125 7.640625 35.375 
Q 10.6875 42.71875 16.609375 48.484375 
Q 20.40625 52.09375 25.65625 54.046875 
Q 30.90625 56 36.8125 56 
Q 46.09375 56 51.578125 50.4375 
Q 57.078125 44.875 57.078125 35.5 
Q 57.078125 33.25 56.78125 30.6875 
Q 56.5 28.125 55.90625 25.203125 
z
" id="DejaVuSans-Oblique-101"/>
       <path d="M 42.28125 54.6875 
L 40.921875 47.703125 
L 23 47.703125 
L 17.1875 18.015625 
Q 16.890625 16.359375 16.75 15.234375 
Q 16.609375 14.109375 16.609375 13.484375 
Q 16.609375 10.359375 18.484375 8.9375 
Q 20.359375 7.515625 24.515625 7.515625 
L 33.59375 7.515625 
L 32.078125 0 
L 23.484375 0 
Q 15.484375 0 11.546875 3.125 
Q 7.625 6.25 7.625 12.59375 
Q 7.625 13.71875 7.765625 15.0625 
Q 7.90625 16.40625 8.203125 18.015625 
L 14.015625 47.703125 
L 6.390625 47.703125 
L 7.8125 54.6875 
L 15.28125 54.6875 
L 18.3125 70.21875 
L 27.296875 70.21875 
L 24.3125 54.6875 
z
" id="DejaVuSans-Oblique-116"/>
       <path d="M 59.625 54.6875 
L 50.296875 6.78125 
Q 47.609375 -7.125 40.015625 -13.953125 
Q 32.421875 -20.796875 19.578125 -20.796875 
Q 14.84375 -20.796875 10.78125 -20.09375 
Q 6.734375 -19.390625 3.21875 -17.921875 
L 4.890625 -9.1875 
Q 8.203125 -11.328125 11.90625 -12.34375 
Q 15.625 -13.375 19.828125 -13.375 
Q 28.375 -13.375 33.859375 -8.703125 
Q 39.359375 -4.046875 41.109375 4.6875 
L 41.890625 8.796875 
Q 38.140625 4.5 33.15625 2.25 
Q 28.171875 0 22.40625 0 
Q 14.109375 0 9.34375 5.484375 
Q 4.59375 10.984375 4.59375 20.609375 
Q 4.59375 28.171875 7.46875 35.421875 
Q 10.359375 42.671875 15.578125 48.296875 
Q 19.046875 52 23.65625 54 
Q 28.265625 56 33.296875 56 
Q 38.8125 56 42.90625 53.4375 
Q 47.015625 50.875 49.03125 46.1875 
L 50.59375 54.6875 
z
M 46.09375 34.625 
Q 46.09375 41.265625 42.96875 44.875 
Q 39.84375 48.484375 34.078125 48.484375 
Q 30.515625 48.484375 27.296875 47.0625 
Q 24.078125 45.65625 21.78125 43.109375 
Q 18.0625 38.921875 15.984375 33.234375 
Q 13.921875 27.546875 13.921875 21.484375 
Q 13.921875 14.75 17.0625 11.125 
Q 20.21875 7.515625 26.125 7.515625 
Q 34.671875 7.515625 40.375 15.25 
Q 46.09375 23 46.09375 34.625 
z
" id="DejaVuSans-Oblique-103"/>
       <path d="M 31 75.875 
Q 24.46875 64.65625 21.28125 53.65625 
Q 18.109375 42.671875 18.109375 31.390625 
Q 18.109375 20.125 21.3125 9.0625 
Q 24.515625 -2 31 -13.1875 
L 23.1875 -13.1875 
Q 15.875 -1.703125 12.234375 9.375 
Q 8.59375 20.453125 8.59375 31.390625 
Q 8.59375 42.28125 12.203125 53.3125 
Q 15.828125 64.359375 23.1875 75.875 
z
" id="DejaVuSans-40"/>
       <path d="M 60.015625 54.6875 
L 34.90625 27.875 
L 50.296875 0 
L 39.984375 0 
L 28.421875 21.6875 
L 8.296875 0 
L -2.59375 0 
L 24.3125 28.8125 
L 10.015625 54.6875 
L 20.3125 54.6875 
L 30.8125 34.90625 
L 49.125 54.6875 
z
" id="DejaVuSans-Oblique-120"/>
       <path d="M 8.015625 75.875 
L 15.828125 75.875 
Q 23.140625 64.359375 26.78125 53.3125 
Q 30.421875 42.28125 30.421875 31.390625 
Q 30.421875 20.453125 26.78125 9.375 
Q 23.140625 -1.703125 15.828125 -13.1875 
L 8.015625 -13.1875 
Q 14.5 -2 17.703125 9.0625 
Q 20.90625 20.125 20.90625 31.390625 
Q 20.90625 42.671875 17.703125 53.65625 
Q 14.5 64.65625 8.015625 75.875 
z
" id="DejaVuSans-41"/>
       <path d="M 46 62.703125 
L 46 35.5 
L 73.1875 35.5 
L 73.1875 27.203125 
L 46 27.203125 
L 46 0 
L 37.796875 0 
L 37.796875 27.203125 
L 10.59375 27.203125 
L 10.59375 35.5 
L 37.796875 35.5 
L 37.796875 62.703125 
z
" id="DejaVuSans-43"/>
      </defs>
      <use transform="translate(0 0.60625)" xlink:href="#DejaVuSans-1040"/>
      <use transform="translate(68.408203 0.60625)" xlink:href="#DejaVuSans-1085"/>
      <use transform="translate(133.789062 0.60625)" xlink:href="#DejaVuSans-1072"/>
      <use transform="translate(195.068359 0.60625)" xlink:href="#DejaVuSans-1083"/>
      <use transform="translate(258.984375 0.60625)" xlink:href="#DejaVuSans-1080"/>
      <use transform="translate(323.974609 0.60625)" xlink:href="#DejaVuSans-1090"/>
      <use transform="translate(382.226562 0.60625)" xlink:href="#DejaVuSans-1080"/>
      <use transform="translate(447.216797 0.60625)" xlink:href="#DejaVuSans-1095"/>
      <use transform="translate(506.298828 0.60625)" xlink:href="#DejaVuSans-1077"/>
      <use transform="translate(567.822266 0.60625)" xlink:href="#DejaVuSans-1089"/>
      <use transform="translate(622.802734 0.60625)" xlink:href="#DejaVuSans-1082"/>
      <use transform="translate(683.203125 0.60625)" xlink:href="#DejaVuSans-1086"/>
      <use transform="translate(744.384766 0.60625)" xlink:href="#DejaVuSans-1077"/>
      <use transform="translate(805.908203 0.60625)" xlink:href="#DejaVuSans-32"/>
      <use transform="translate(837.695312 0.60625)" xlink:href="#DejaVuSans-1088"/>
      <use transform="translate(901.171875 0.60625)" xlink:href="#DejaVuSans-1077"/>
      <use transform="translate(962.695312 0.60625)" xlink:href="#DejaVuSans-1096"/>
      <use transform="translate(1054.199219 0.60625)" xlink:href="#DejaVuSans-1077"/>
      <use transform="translate(1115.722656 0.60625)" xlink:href="#DejaVuSans-1085"/>
      <use transform="translate(1181.103516 0.60625)" xlink:href="#DejaVuSans-1080"/>
      <use transform="translate(1246.09375 0.60625)" xlink:href="#DejaVuSans-1077"/>
      <use transform="translate(1307.617188 0.60625)" xlink:href="#DejaVuSans-32"/>
      <use transform="translate(1339.404297 0.60625)" xlink:href="#DejaVuSans-Oblique-121"/>
      <use transform="translate(1418.066406 0.60625)" xlink:href="#DejaVuSans-61"/>
      <use transform="translate(1521.337891 0.60625)" xlink:href="#DejaVuSans-Oblique-101"/>
      <use transform="translate(1587.511224 38.8875)scale(0.7)" xlink:href="#DejaVuSans-Oblique-116"/>
      <use transform="translate(1614.957513 38.8875)scale(0.7)" xlink:href="#DejaVuSans-Oblique-103"/>
      <use transform="translate(1659.391107 38.8875)scale(0.7)" xlink:href="#DejaVuSans-40"/>
      <use transform="translate(1686.700677 38.8875)scale(0.7)" xlink:href="#DejaVuSans-Oblique-120"/>
      <use transform="translate(1728.126458 38.8875)scale(0.7)" xlink:href="#DejaVuSans-41"/>
      <use transform="translate(1769.073724 38.8875)scale(0.7)" xlink:href="#DejaVuSans-43"/>
      <use transform="translate(1841.363763 38.8875)scale(0.7)" xlink:href="#DejaVuSans-49"/>
     </g>
    </g>
    <g id="line2d_29">
     <path d="M 61.95 57.8375 
L 93.95 57.8375 
" style="fill:none;stroke:#348abd;stroke-linecap:square;stroke-width:1.5;"/>
    </g>
    <g id="line2d_30">
     <g>
      <use style="fill:#348abd;stroke:#348abd;" x="77.95" xlink:href="#m0e187bf3ed" y="57.8375"/>
     </g>
    </g>
    <g id="text_8">
     <!-- Метод Эйлера, h = 0.2 -->
     <g transform="translate(106.75 63.4375)scale(0.16 -0.16)">
      <defs>
       <path d="M 9.8125 72.90625 
L 24.515625 72.90625 
L 43.109375 23.296875 
L 61.8125 72.90625 
L 76.515625 72.90625 
L 76.515625 0 
L 66.890625 0 
L 66.890625 64.015625 
L 48.09375 14.015625 
L 38.1875 14.015625 
L 19.390625 64.015625 
L 19.390625 0 
L 9.8125 0 
z
" id="DejaVuSans-1052"/>
       <path d="M 21.625 7.171875 
L 47.703125 7.171875 
L 47.703125 47.515625 
L 28.8125 47.515625 
L 28.8125 40.671875 
Q 28.8125 20.5625 23.046875 9.8125 
z
M 8.59375 7.171875 
Q 13.03125 9.125 14.984375 13.28125 
Q 19.78125 23.578125 19.78125 44.34375 
L 19.78125 54.6875 
L 56.734375 54.6875 
L 56.734375 7.171875 
L 63.921875 7.171875 
L 63.921875 -13.8125 
L 56.734375 -13.8125 
L 56.734375 0 
L 12.40625 0 
L 12.40625 -13.8125 
L 5.21875 -13.8125 
L 5.21875 7.171875 
z
" id="DejaVuSans-1076"/>
       <path d="M 5.421875 15.921875 
Q 15.71875 6.6875 28.21875 6.6875 
Q 41.109375 6.6875 46.921875 13.625 
Q 52.734375 20.5625 53.8125 32.234375 
L 14.84375 32.234375 
L 14.84375 40.53125 
L 53.8125 40.53125 
Q 52.734375 52.203125 46.921875 59.15625 
Q 41.109375 66.109375 28.21875 66.109375 
Q 15.71875 66.109375 5.421875 56.890625 
L 5.421875 67.28125 
Q 15.578125 74.21875 28.8125 74.21875 
Q 45.171875 74.21875 54.6875 64.078125 
Q 64.203125 53.953125 64.203125 36.421875 
Q 64.203125 18.84375 54.6875 8.703125 
Q 45.171875 -1.421875 28.8125 -1.421875 
Q 15.765625 -1.421875 5.421875 5.609375 
z
" id="DejaVuSans-1069"/>
       <path d="M 55.90625 54.6875 
L 55.90625 0 
L 46.96875 0 
L 46.96875 43.890625 
L 20.609375 0 
L 9.078125 0 
L 9.078125 54.6875 
L 18.015625 54.6875 
L 18.015625 10.890625 
L 44.34375 54.6875 
z
M 17.234375 75.96875 
L 23 75.96875 
Q 23.53125 72.3125 25.890625 70.46875 
Q 28.265625 68.640625 32.515625 68.640625 
Q 36.71875 68.640625 39.0625 70.453125 
Q 41.40625 72.265625 42.046875 75.96875 
L 47.796875 75.96875 
Q 47.3125 68.984375 43.453125 65.46875 
Q 39.59375 61.953125 32.515625 61.953125 
Q 25.4375 61.953125 21.578125 65.46875 
Q 17.71875 68.984375 17.234375 75.96875 
z
" id="DejaVuSans-1081"/>
       <path d="M 11.71875 12.40625 
L 22.015625 12.40625 
L 22.015625 4 
L 14.015625 -11.625 
L 7.71875 -11.625 
L 11.71875 4 
z
" id="DejaVuSans-44"/>
       <path d="M 54.890625 33.015625 
L 54.890625 0 
L 45.90625 0 
L 45.90625 32.71875 
Q 45.90625 40.484375 42.875 44.328125 
Q 39.84375 48.1875 33.796875 48.1875 
Q 26.515625 48.1875 22.3125 43.546875 
Q 18.109375 38.921875 18.109375 30.90625 
L 18.109375 0 
L 9.078125 0 
L 9.078125 75.984375 
L 18.109375 75.984375 
L 18.109375 46.1875 
Q 21.34375 51.125 25.703125 53.5625 
Q 30.078125 56 35.796875 56 
Q 45.21875 56 50.046875 50.171875 
Q 54.890625 44.34375 54.890625 33.015625 
z
" id="DejaVuSans-104"/>
       <path d="M 10.6875 12.40625 
L 21 12.40625 
L 21 0 
L 10.6875 0 
z
" id="DejaVuSans-46"/>
      </defs>
      <use xlink:href="#DejaVuSans-1052"/>
      <use x="86.279297" xlink:href="#DejaVuSans-1077"/>
      <use x="147.802734" xlink:href="#DejaVuSans-1090"/>
      <use x="206.054688" xlink:href="#DejaVuSans-1086"/>
      <use x="267.236328" xlink:href="#DejaVuSans-1076"/>
      <use x="336.376953" xlink:href="#DejaVuSans-32"/>
      <use x="368.164062" xlink:href="#DejaVuSans-1069"/>
      <use x="437.988281" xlink:href="#DejaVuSans-1081"/>
      <use x="502.978516" xlink:href="#DejaVuSans-1083"/>
      <use x="566.894531" xlink:href="#DejaVuSans-1077"/>
      <use x="628.417969" xlink:href="#DejaVuSans-1088"/>
      <use x="691.894531" xlink:href="#DejaVuSans-1072"/>
      <use x="753.173828" xlink:href="#DejaVuSans-44"/>
      <use x="784.960938" xlink:href="#DejaVuSans-32"/>
      <use x="816.748047" xlink:href="#DejaVuSans-104"/>
      <use x="880.126953" xlink:href="#DejaVuSans-32"/>
      <use x="911.914062" xlink:href="#DejaVuSans-61"/>
      <use x="995.703125" xlink:href="#DejaVuSans-32"/>
      <use x="1027.490234" xlink:href="#DejaVuSans-48"/>
      <use x="1091.113281" xlink:href="#DejaVuSans-46"/>
      <use x="1122.900391" xlink:href="#DejaVuSans-50"/>
     </g>
    </g>
    <g id="line2d_31">
     <path d="M 61.95 81.3225 
L 93.95 81.3225 
" style="fill:none;stroke:#988ed5;stroke-linecap:square;stroke-width:1.5;"/>
    </g>
    <g id="line2d_32">
     <g>
      <use style="fill:#988ed5;stroke:#988ed5;" x="77.95" xlink:href="#m2524d7236c" y="81.3225"/>
     </g>
    </g>
    <g id="text_9">
     <!-- Метод Эйлера, h = 0.1 -->
     <g transform="translate(106.75 86.9225)scale(0.16 -0.16)">
      <use xlink:href="#DejaVuSans-1052"/>
      <use x="86.279297" xlink:href="#DejaVuSans-1077"/>
      <use x="147.802734" xlink:href="#DejaVuSans-1090"/>
      <use x="206.054688" xlink:href="#DejaVuSans-1086"/>
      <use x="267.236328" xlink:href="#DejaVuSans-1076"/>
      <use x="336.376953" xlink:href="#DejaVuSans-32"/>
      <use x="368.164062" xlink:href="#DejaVuSans-1069"/>
      <use x="437.988281" xlink:href="#DejaVuSans-1081"/>
      <use x="502.978516" xlink:href="#DejaVuSans-1083"/>
      <use x="566.894531" xlink:href="#DejaVuSans-1077"/>
      <use x="628.417969" xlink:href="#DejaVuSans-1088"/>
      <use x="691.894531" xlink:href="#DejaVuSans-1072"/>
      <use x="753.173828" xlink:href="#DejaVuSans-44"/>
      <use x="784.960938" xlink:href="#DejaVuSans-32"/>
      <use x="816.748047" xlink:href="#DejaVuSans-104"/>
      <use x="880.126953" xlink:href="#DejaVuSans-32"/>
      <use x="911.914062" xlink:href="#DejaVuSans-61"/>
      <use x="995.703125" xlink:href="#DejaVuSans-32"/>
      <use x="1027.490234" xlink:href="#DejaVuSans-48"/>
      <use x="1091.113281" xlink:href="#DejaVuSans-46"/>
      <use x="1122.900391" xlink:href="#DejaVuSans-49"/>
     </g>
    </g>
    <g id="line2d_33">
     <path d="M 61.95 104.8075 
L 93.95 104.8075 
" style="fill:none;stroke:#777777;stroke-linecap:square;stroke-width:1.5;"/>
    </g>
    <g id="line2d_34">
     <g>
      <use style="fill:#777777;stroke:#777777;" x="77.95" xlink:href="#mab58ba819a" y="104.8075"/>
     </g>
    </g>
    <g id="text_10">
     <!-- Метод Эйлера, h = 0.05 -->
     <g transform="translate(106.75 110.4075)scale(0.16 -0.16)">
      <defs>
       <path d="M 10.796875 72.90625 
L 49.515625 72.90625 
L 49.515625 64.59375 
L 19.828125 64.59375 
L 19.828125 46.734375 
Q 21.96875 47.46875 24.109375 47.828125 
Q 26.265625 48.1875 28.421875 48.1875 
Q 40.625 48.1875 47.75 41.5 
Q 54.890625 34.8125 54.890625 23.390625 
Q 54.890625 11.625 47.5625 5.09375 
Q 40.234375 -1.421875 26.90625 -1.421875 
Q 22.3125 -1.421875 17.546875 -0.640625 
Q 12.796875 0.140625 7.71875 1.703125 
L 7.71875 11.625 
Q 12.109375 9.234375 16.796875 8.0625 
Q 21.484375 6.890625 26.703125 6.890625 
Q 35.15625 6.890625 40.078125 11.328125 
Q 45.015625 15.765625 45.015625 23.390625 
Q 45.015625 31 40.078125 35.4375 
Q 35.15625 39.890625 26.703125 39.890625 
Q 22.75 39.890625 18.8125 39.015625 
Q 14.890625 38.140625 10.796875 36.28125 
z
" id="DejaVuSans-53"/>
      </defs>
      <use xlink:href="#DejaVuSans-1052"/>
      <use x="86.279297" xlink:href="#DejaVuSans-1077"/>
      <use x="147.802734" xlink:href="#DejaVuSans-1090"/>
      <use x="206.054688" xlink:href="#DejaVuSans-1086"/>
      <use x="267.236328" xlink:href="#DejaVuSans-1076"/>
      <use x="336.376953" xlink:href="#DejaVuSans-32"/>
      <use x="368.164062" xlink:href="#DejaVuSans-1069"/>
      <use x="437.988281" xlink:href="#DejaVuSans-1081"/>
      <use x="502.978516" xlink:href="#DejaVuSans-1083"/>
      <use x="566.894531" xlink:href="#DejaVuSans-1077"/>
      <use x="628.417969" xlink:href="#DejaVuSans-1088"/>
      <use x="691.894531" xlink:href="#DejaVuSans-1072"/>
      <use x="753.173828" xlink:href="#DejaVuSans-44"/>
      <use x="784.960938" xlink:href="#DejaVuSans-32"/>
      <use x="816.748047" xlink:href="#DejaVuSans-104"/>
      <use x="880.126953" xlink:href="#DejaVuSans-32"/>
      <use x="911.914062" xlink:href="#DejaVuSans-61"/>
      <use x="995.703125" xlink:href="#DejaVuSans-32"/>
      <use x="1027.490234" xlink:href="#DejaVuSans-48"/>
      <use x="1091.113281" xlink:href="#DejaVuSans-46"/>
      <use x="1122.900391" xlink:href="#DejaVuSans-48"/>
      <use x="1186.523438" xlink:href="#DejaVuSans-53"/>
     </g>
    </g>
   </g>
  </g>
  <g id="axes_2">
   <g id="patch_8">
    <path d="M 47.55 459.2 
L 709.2 459.2 
L 709.2 242.15 
L 47.55 242.15 
z
" style="fill:#e5e5e5;"/>
   </g>
   <g id="matplotlib.axis_3">
    <g id="xtick_7">
     <g id="line2d_35">
      <path clip-path="url(#pc8ee00f3b7)" d="M 77.625 459.2 
L 77.625 242.15 
" style="fill:none;stroke:#ffffff;stroke-linecap:square;stroke-width:0.8;"/>
     </g>
     <g id="line2d_36">
      <g>
       <use style="fill:#555555;stroke:#555555;stroke-width:0.8;" x="77.625" xlink:href="#mb9c02d78db" y="459.2"/>
      </g>
     </g>
     <g id="text_11">
      <!-- 0.0 -->
      <g style="fill:#555555;" transform="translate(69.673438 473.798437)scale(0.1 -0.1)">
       <use xlink:href="#DejaVuSans-48"/>
       <use x="63.623047" xlink:href="#DejaVuSans-46"/>
       <use x="95.410156" xlink:href="#DejaVuSans-48"/>
      </g>
     </g>
    </g>
    <g id="xtick_8">
     <g id="line2d_37">
      <path clip-path="url(#pc8ee00f3b7)" d="M 197.925 459.2 
L 197.925 242.15 
" style="fill:none;stroke:#ffffff;stroke-linecap:square;stroke-width:0.8;"/>
     </g>
     <g id="line2d_38">
      <g>
       <use style="fill:#555555;stroke:#555555;stroke-width:0.8;" x="197.925" xlink:href="#mb9c02d78db" y="459.2"/>
      </g>
     </g>
     <g id="text_12">
      <!-- 0.2 -->
      <g style="fill:#555555;" transform="translate(189.973438 473.798437)scale(0.1 -0.1)">
       <use xlink:href="#DejaVuSans-48"/>
       <use x="63.623047" xlink:href="#DejaVuSans-46"/>
       <use x="95.410156" xlink:href="#DejaVuSans-50"/>
      </g>
     </g>
    </g>
    <g id="xtick_9">
     <g id="line2d_39">
      <path clip-path="url(#pc8ee00f3b7)" d="M 318.225 459.2 
L 318.225 242.15 
" style="fill:none;stroke:#ffffff;stroke-linecap:square;stroke-width:0.8;"/>
     </g>
     <g id="line2d_40">
      <g>
       <use style="fill:#555555;stroke:#555555;stroke-width:0.8;" x="318.225" xlink:href="#mb9c02d78db" y="459.2"/>
      </g>
     </g>
     <g id="text_13">
      <!-- 0.4 -->
      <g style="fill:#555555;" transform="translate(310.273438 473.798437)scale(0.1 -0.1)">
       <use xlink:href="#DejaVuSans-48"/>
       <use x="63.623047" xlink:href="#DejaVuSans-46"/>
       <use x="95.410156" xlink:href="#DejaVuSans-52"/>
      </g>
     </g>
    </g>
    <g id="xtick_10">
     <g id="line2d_41">
      <path clip-path="url(#pc8ee00f3b7)" d="M 438.525 459.2 
L 438.525 242.15 
" style="fill:none;stroke:#ffffff;stroke-linecap:square;stroke-width:0.8;"/>
     </g>
     <g id="line2d_42">
      <g>
       <use style="fill:#555555;stroke:#555555;stroke-width:0.8;" x="438.525" xlink:href="#mb9c02d78db" y="459.2"/>
      </g>
     </g>
     <g id="text_14">
      <!-- 0.6 -->
      <g style="fill:#555555;" transform="translate(430.573438 473.798437)scale(0.1 -0.1)">
       <use xlink:href="#DejaVuSans-48"/>
       <use x="63.623047" xlink:href="#DejaVuSans-46"/>
       <use x="95.410156" xlink:href="#DejaVuSans-54"/>
      </g>
     </g>
    </g>
    <g id="xtick_11">
     <g id="line2d_43">
      <path clip-path="url(#pc8ee00f3b7)" d="M 558.825 459.2 
L 558.825 242.15 
" style="fill:none;stroke:#ffffff;stroke-linecap:square;stroke-width:0.8;"/>
     </g>
     <g id="line2d_44">
      <g>
       <use style="fill:#555555;stroke:#555555;stroke-width:0.8;" x="558.825" xlink:href="#mb9c02d78db" y="459.2"/>
      </g>
     </g>
     <g id="text_15">
      <!-- 0.8 -->
      <g style="fill:#555555;" transform="translate(550.873438 473.798437)scale(0.1 -0.1)">
       <use xlink:href="#DejaVuSans-48"/>
       <use x="63.623047" xlink:href="#DejaVuSans-46"/>
       <use x="95.410156" xlink:href="#DejaVuSans-56"/>
      </g>
     </g>
    </g>
    <g id="xtick_12">
     <g id="line2d_45">
      <path clip-path="url(#pc8ee00f3b7)" d="M 679.125 459.2 
L 679.125 242.15 
" style="fill:none;stroke:#ffffff;stroke-linecap:square;stroke-width:0.8;"/>
     </g>
     <g id="line2d_46">
      <g>
       <use style="fill:#555555;stroke:#555555;stroke-width:0.8;" x="679.125" xlink:href="#mb9c02d78db" y="459.2"/>
      </g>
     </g>
     <g id="text_16">
      <!-- 1.0 -->
      <g style="fill:#555555;" transform="translate(671.173438 473.798437)scale(0.1 -0.1)">
       <use xlink:href="#DejaVuSans-49"/>
       <use x="63.623047" xlink:href="#DejaVuSans-46"/>
       <use x="95.410156" xlink:href="#DejaVuSans-48"/>
      </g>
     </g>
    </g>
    <g id="text_17">
     <!-- X -->
     <g style="fill:#555555;" transform="translate(374.265 488.99625)scale(0.12 -0.12)">
      <defs>
       <path d="M 6.296875 72.90625 
L 16.890625 72.90625 
L 35.015625 45.796875 
L 53.21875 72.90625 
L 63.8125 72.90625 
L 40.375 37.890625 
L 65.375 0 
L 54.78125 0 
L 34.28125 31 
L 13.625 0 
L 2.984375 0 
L 29 38.921875 
z
" id="DejaVuSans-88"/>
      </defs>
      <use xlink:href="#DejaVuSans-88"/>
     </g>
    </g>
   </g>
   <g id="matplotlib.axis_4">
    <g id="ytick_6">
     <g id="line2d_47">
      <path clip-path="url(#pc8ee00f3b7)" d="M 47.55 424.500692 
L 709.2 424.500692 
" style="fill:none;stroke:#ffffff;stroke-linecap:square;stroke-width:0.8;"/>
     </g>
     <g id="line2d_48">
      <g>
       <use style="fill:#555555;stroke:#555555;stroke-width:0.8;" x="47.55" xlink:href="#m15392fce79" y="424.500692"/>
      </g>
     </g>
     <g id="text_18">
      <!-- 4 -->
      <g style="fill:#555555;" transform="translate(34.1875 428.299911)scale(0.1 -0.1)">
       <use xlink:href="#DejaVuSans-52"/>
      </g>
     </g>
    </g>
    <g id="ytick_7">
     <g id="line2d_49">
      <path clip-path="url(#pc8ee00f3b7)" d="M 47.55 385.750521 
L 709.2 385.750521 
" style="fill:none;stroke:#ffffff;stroke-linecap:square;stroke-width:0.8;"/>
     </g>
     <g id="line2d_50">
      <g>
       <use style="fill:#555555;stroke:#555555;stroke-width:0.8;" x="47.55" xlink:href="#m15392fce79" y="385.750521"/>
      </g>
     </g>
     <g id="text_19">
      <!-- 6 -->
      <g style="fill:#555555;" transform="translate(34.1875 389.54974)scale(0.1 -0.1)">
       <use xlink:href="#DejaVuSans-54"/>
      </g>
     </g>
    </g>
    <g id="ytick_8">
     <g id="line2d_51">
      <path clip-path="url(#pc8ee00f3b7)" d="M 47.55 347.00035 
L 709.2 347.00035 
" style="fill:none;stroke:#ffffff;stroke-linecap:square;stroke-width:0.8;"/>
     </g>
     <g id="line2d_52">
      <g>
       <use style="fill:#555555;stroke:#555555;stroke-width:0.8;" x="47.55" xlink:href="#m15392fce79" y="347.00035"/>
      </g>
     </g>
     <g id="text_20">
      <!-- 8 -->
      <g style="fill:#555555;" transform="translate(34.1875 350.799569)scale(0.1 -0.1)">
       <use xlink:href="#DejaVuSans-56"/>
      </g>
     </g>
    </g>
    <g id="ytick_9">
     <g id="line2d_53">
      <path clip-path="url(#pc8ee00f3b7)" d="M 47.55 308.25018 
L 709.2 308.25018 
" style="fill:none;stroke:#ffffff;stroke-linecap:square;stroke-width:0.8;"/>
     </g>
     <g id="line2d_54">
      <g>
       <use style="fill:#555555;stroke:#555555;stroke-width:0.8;" x="47.55" xlink:href="#m15392fce79" y="308.25018"/>
      </g>
     </g>
     <g id="text_21">
      <!-- 10 -->
      <g style="fill:#555555;" transform="translate(27.825 312.049398)scale(0.1 -0.1)">
       <use xlink:href="#DejaVuSans-49"/>
       <use x="63.623047" xlink:href="#DejaVuSans-48"/>
      </g>
     </g>
    </g>
    <g id="ytick_10">
     <g id="line2d_55">
      <path clip-path="url(#pc8ee00f3b7)" d="M 47.55 269.500009 
L 709.2 269.500009 
" style="fill:none;stroke:#ffffff;stroke-linecap:square;stroke-width:0.8;"/>
     </g>
     <g id="line2d_56">
      <g>
       <use style="fill:#555555;stroke:#555555;stroke-width:0.8;" x="47.55" xlink:href="#m15392fce79" y="269.500009"/>
      </g>
     </g>
     <g id="text_22">
      <!-- 12 -->
      <g style="fill:#555555;" transform="translate(27.825 273.299228)scale(0.1 -0.1)">
       <use xlink:href="#DejaVuSans-49"/>
       <use x="63.623047" xlink:href="#DejaVuSans-50"/>
      </g>
     </g>
    </g>
    <g id="text_23">
     <!-- Y -->
     <g style="fill:#555555;" transform="translate(21.329375 354.339687)rotate(-90)scale(0.12 -0.12)">
      <use xlink:href="#DejaVuSans-89"/>
     </g>
    </g>
   </g>
   <g id="line2d_57">
    <path clip-path="url(#pc8ee00f3b7)" d="M 77.625 449.334091 
L 115.557432 445.901091 
L 149.877252 442.577568 
L 181.788664 439.266425 
L 211.291667 435.982077 
L 238.386261 432.745276 
L 263.67455 429.503387 
L 287.156532 426.273192 
L 309.434309 422.984371 
L 329.905781 419.742729 
L 349.173048 416.473835 
L 367.236111 413.192451 
L 384.697072 409.795778 
L 400.953829 406.410359 
L 416.608483 402.922487 
L 431.058934 399.481295 
L 444.907282 395.961061 
L 458.153529 392.367572 
L 470.797673 388.708462 
L 482.839715 384.993403 
L 494.279655 381.234274 
L 505.117492 377.445312 
L 515.353228 373.643227 
L 525.588964 369.602571 
L 535.222598 365.560551 
L 544.254129 361.540571 
L 553.285661 357.27655 
L 561.71509 353.056426 
L 570.14452 348.582905 
L 577.971847 344.181697 
L 585.799174 339.521113 
L 593.024399 334.968807 
L 600.249625 330.155482 
L 607.47485 325.058629 
L 614.097973 320.116108 
L 620.721096 314.892936 
L 627.344219 309.36541 
L 633.36524 304.054199 
L 639.386261 298.447882 
L 645.407282 292.522317 
L 650.826201 286.894339 
L 656.24512 280.964718 
L 661.664039 274.709871 
L 667.082958 268.103828 
L 672.501877 261.117941 
L 677.318694 254.563857 
L 679.125 252.017336 
L 679.125 252.017336 
" style="fill:none;stroke:#e24a33;stroke-linecap:square;stroke-width:1.5;"/>
   </g>
   <g id="line2d_58">
    <path clip-path="url(#pc8ee00f3b7)" d="M 77.625 449.333739 
L 197.925 437.498508 
L 318.225 421.619263 
L 438.525 397.611362 
L 558.825 354.531219 
L 679.125 252.059529 
" style="fill:none;stroke:#348abd;stroke-linecap:square;stroke-width:1.5;"/>
    <g clip-path="url(#pc8ee00f3b7)">
     <use style="fill:#348abd;stroke:#348abd;" x="77.625" xlink:href="#m0e187bf3ed" y="449.333739"/>
     <use style="fill:#348abd;stroke:#348abd;" x="197.925" xlink:href="#m0e187bf3ed" y="437.498508"/>
     <use style="fill:#348abd;stroke:#348abd;" x="318.225" xlink:href="#m0e187bf3ed" y="421.619263"/>
     <use style="fill:#348abd;stroke:#348abd;" x="438.525" xlink:href="#m0e187bf3ed" y="397.611362"/>
     <use style="fill:#348abd;stroke:#348abd;" x="558.825" xlink:href="#m0e187bf3ed" y="354.531219"/>
     <use style="fill:#348abd;stroke:#348abd;" x="679.125" xlink:href="#m0e187bf3ed" y="252.059529"/>
    </g>
   </g>
   <g id="line2d_59">
    <path clip-path="url(#pc8ee00f3b7)" d="M 77.625 449.333739 
L 137.775 443.775189 
L 197.925 437.498489 
L 258.075 430.240772 
L 318.225 421.61923 
L 378.375 411.052199 
L 438.525 397.611295 
L 498.675 379.724784 
L 558.825 354.529899 
L 618.975 316.297823 
L 679.125 252.019229 
" style="fill:none;stroke:#988ed5;stroke-linecap:square;stroke-width:1.5;"/>
    <g clip-path="url(#pc8ee00f3b7)">
     <use style="fill:#988ed5;stroke:#988ed5;" x="77.625" xlink:href="#m2524d7236c" y="449.333739"/>
     <use style="fill:#988ed5;stroke:#988ed5;" x="137.775" xlink:href="#m2524d7236c" y="443.775189"/>
     <use style="fill:#988ed5;stroke:#988ed5;" x="197.925" xlink:href="#m2524d7236c" y="437.498489"/>
     <use style="fill:#988ed5;stroke:#988ed5;" x="258.075" xlink:href="#m2524d7236c" y="430.240772"/>
     <use style="fill:#988ed5;stroke:#988ed5;" x="318.225" xlink:href="#m2524d7236c" y="421.61923"/>
     <use style="fill:#988ed5;stroke:#988ed5;" x="378.375" xlink:href="#m2524d7236c" y="411.052199"/>
     <use style="fill:#988ed5;stroke:#988ed5;" x="438.525" xlink:href="#m2524d7236c" y="397.611295"/>
     <use style="fill:#988ed5;stroke:#988ed5;" x="498.675" xlink:href="#m2524d7236c" y="379.724784"/>
     <use style="fill:#988ed5;stroke:#988ed5;" x="558.825" xlink:href="#m2524d7236c" y="354.529899"/>
     <use style="fill:#988ed5;stroke:#988ed5;" x="618.975" xlink:href="#m2524d7236c" y="316.297823"/>
     <use style="fill:#988ed5;stroke:#988ed5;" x="679.125" xlink:href="#m2524d7236c" y="252.019229"/>
    </g>
   </g>
   <g id="line2d_60">
    <path clip-path="url(#pc8ee00f3b7)" d="M 77.625 449.333739 
L 107.7 446.63112 
L 137.775 443.775188 
L 167.85 440.740863 
L 197.925 437.498487 
L 228 434.012669 
L 258.075 430.240768 
L 288.15 426.130896 
L 318.225 421.619226 
L 348.3 416.62634 
L 378.375 411.052193 
L 408.45 404.769034 
L 438.525 397.611286 
L 468.6 389.36079 
L 498.675 379.724759 
L 528.75 368.302021 
L 558.825 354.529794 
L 588.9 337.596957 
L 618.975 316.297281 
L 649.05 288.769878 
L 679.125 252.015909 
" style="fill:none;stroke:#777777;stroke-linecap:square;stroke-width:1.5;"/>
    <g clip-path="url(#pc8ee00f3b7)">
     <use style="fill:#777777;stroke:#777777;" x="77.625" xlink:href="#mab58ba819a" y="449.333739"/>
     <use style="fill:#777777;stroke:#777777;" x="107.7" xlink:href="#mab58ba819a" y="446.63112"/>
     <use style="fill:#777777;stroke:#777777;" x="137.775" xlink:href="#mab58ba819a" y="443.775188"/>
     <use style="fill:#777777;stroke:#777777;" x="167.85" xlink:href="#mab58ba819a" y="440.740863"/>
     <use style="fill:#777777;stroke:#777777;" x="197.925" xlink:href="#mab58ba819a" y="437.498487"/>
     <use style="fill:#777777;stroke:#777777;" x="228" xlink:href="#mab58ba819a" y="434.012669"/>
     <use style="fill:#777777;stroke:#777777;" x="258.075" xlink:href="#mab58ba819a" y="430.240768"/>
     <use style="fill:#777777;stroke:#777777;" x="288.15" xlink:href="#mab58ba819a" y="426.130896"/>
     <use style="fill:#777777;stroke:#777777;" x="318.225" xlink:href="#mab58ba819a" y="421.619226"/>
     <use style="fill:#777777;stroke:#777777;" x="348.3" xlink:href="#mab58ba819a" y="416.62634"/>
     <use style="fill:#777777;stroke:#777777;" x="378.375" xlink:href="#mab58ba819a" y="411.052193"/>
     <use style="fill:#777777;stroke:#777777;" x="408.45" xlink:href="#mab58ba819a" y="404.769034"/>
     <use style="fill:#777777;stroke:#777777;" x="438.525" xlink:href="#mab58ba819a" y="397.611286"/>
     <use style="fill:#777777;stroke:#777777;" x="468.6" xlink:href="#mab58ba819a" y="389.36079"/>
     <use style="fill:#777777;stroke:#777777;" x="498.675" xlink:href="#mab58ba819a" y="379.724759"/>
     <use style="fill:#777777;stroke:#777777;" x="528.75" xlink:href="#mab58ba819a" y="368.302021"/>
     <use style="fill:#777777;stroke:#777777;" x="558.825" xlink:href="#mab58ba819a" y="354.529794"/>
     <use style="fill:#777777;stroke:#777777;" x="588.9" xlink:href="#mab58ba819a" y="337.596957"/>
     <use style="fill:#777777;stroke:#777777;" x="618.975" xlink:href="#mab58ba819a" y="316.297281"/>
     <use style="fill:#777777;stroke:#777777;" x="649.05" xlink:href="#mab58ba819a" y="288.769878"/>
     <use style="fill:#777777;stroke:#777777;" x="679.125" xlink:href="#mab58ba819a" y="252.015909"/>
    </g>
   </g>
   <g id="patch_9">
    <path d="M 47.55 459.2 
L 47.55 242.15 
" style="fill:none;stroke:#ffffff;stroke-linecap:square;stroke-linejoin:miter;"/>
   </g>
   <g id="patch_10">
    <path d="M 709.2 459.2 
L 709.2 242.15 
" style="fill:none;stroke:#ffffff;stroke-linecap:square;stroke-linejoin:miter;"/>
   </g>
   <g id="patch_11">
    <path d="M 47.55 459.2 
L 709.2 459.2 
" style="fill:none;stroke:#ffffff;stroke-linecap:square;stroke-linejoin:miter;"/>
   </g>
   <g id="patch_12">
    <path d="M 47.55 242.15 
L 709.2 242.15 
" style="fill:none;stroke:#ffffff;stroke-linecap:square;stroke-linejoin:miter;"/>
   </g>
   <g id="legend_2">
    <g id="patch_13">
     <path d="M 58.75 351.485 
L 412.19 351.485 
Q 415.39 351.485 415.39 348.285 
L 415.39 253.35 
Q 415.39 250.15 412.19 250.15 
L 58.75 250.15 
Q 55.55 250.15 55.55 253.35 
L 55.55 348.285 
Q 55.55 351.485 58.75 351.485 
z
" style="fill:#e5e5e5;opacity:0.8;stroke:#cccccc;stroke-linejoin:miter;stroke-width:0.5;"/>
    </g>
    <g id="line2d_61">
     <path d="M 61.95 265.67 
L 93.95 265.67 
" style="fill:none;stroke:#e24a33;stroke-linecap:square;stroke-width:1.5;"/>
    </g>
    <g id="line2d_62"/>
    <g id="text_24">
     <!-- Аналитическое решение $y=e^{tg(x)+1}$ -->
     <g transform="translate(106.75 271.27)scale(0.16 -0.16)">
      <use transform="translate(0 0.60625)" xlink:href="#DejaVuSans-1040"/>
      <use transform="translate(68.408203 0.60625)" xlink:href="#DejaVuSans-1085"/>
      <use transform="translate(133.789062 0.60625)" xlink:href="#DejaVuSans-1072"/>
      <use transform="translate(195.068359 0.60625)" xlink:href="#DejaVuSans-1083"/>
      <use transform="translate(258.984375 0.60625)" xlink:href="#DejaVuSans-1080"/>
      <use transform="translate(323.974609 0.60625)" xlink:href="#DejaVuSans-1090"/>
      <use transform="translate(382.226562 0.60625)" xlink:href="#DejaVuSans-1080"/>
      <use transform="translate(447.216797 0.60625)" xlink:href="#DejaVuSans-1095"/>
      <use transform="translate(506.298828 0.60625)" xlink:href="#DejaVuSans-1077"/>
      <use transform="translate(567.822266 0.60625)" xlink:href="#DejaVuSans-1089"/>
      <use transform="translate(622.802734 0.60625)" xlink:href="#DejaVuSans-1082"/>
      <use transform="translate(683.203125 0.60625)" xlink:href="#DejaVuSans-1086"/>
      <use transform="translate(744.384766 0.60625)" xlink:href="#DejaVuSans-1077"/>
      <use transform="translate(805.908203 0.60625)" xlink:href="#DejaVuSans-32"/>
      <use transform="translate(837.695312 0.60625)" xlink:href="#DejaVuSans-1088"/>
      <use transform="translate(901.171875 0.60625)" xlink:href="#DejaVuSans-1077"/>
      <use transform="translate(962.695312 0.60625)" xlink:href="#DejaVuSans-1096"/>
      <use transform="translate(1054.199219 0.60625)" xlink:href="#DejaVuSans-1077"/>
      <use transform="translate(1115.722656 0.60625)" xlink:href="#DejaVuSans-1085"/>
      <use transform="translate(1181.103516 0.60625)" xlink:href="#DejaVuSans-1080"/>
      <use transform="translate(1246.09375 0.60625)" xlink:href="#DejaVuSans-1077"/>
      <use transform="translate(1307.617188 0.60625)" xlink:href="#DejaVuSans-32"/>
      <use transform="translate(1339.404297 0.60625)" xlink:href="#DejaVuSans-Oblique-121"/>
      <use transform="translate(1418.066406 0.60625)" xlink:href="#DejaVuSans-61"/>
      <use transform="translate(1521.337891 0.60625)" xlink:href="#DejaVuSans-Oblique-101"/>
      <use transform="translate(1587.511224 38.8875)scale(0.7)" xlink:href="#DejaVuSans-Oblique-116"/>
      <use transform="translate(1614.957513 38.8875)scale(0.7)" xlink:href="#DejaVuSans-Oblique-103"/>
      <use transform="translate(1659.391107 38.8875)scale(0.7)" xlink:href="#DejaVuSans-40"/>
      <use transform="translate(1686.700677 38.8875)scale(0.7)" xlink:href="#DejaVuSans-Oblique-120"/>
      <use transform="translate(1728.126458 38.8875)scale(0.7)" xlink:href="#DejaVuSans-41"/>
      <use transform="translate(1769.073724 38.8875)scale(0.7)" xlink:href="#DejaVuSans-43"/>
      <use transform="translate(1841.363763 38.8875)scale(0.7)" xlink:href="#DejaVuSans-49"/>
     </g>
    </g>
    <g id="line2d_63">
     <path d="M 61.95 289.1875 
L 93.95 289.1875 
" style="fill:none;stroke:#348abd;stroke-linecap:square;stroke-width:1.5;"/>
    </g>
    <g id="line2d_64">
     <g>
      <use style="fill:#348abd;stroke:#348abd;" x="77.95" xlink:href="#m0e187bf3ed" y="289.1875"/>
     </g>
    </g>
    <g id="text_25">
     <!-- Метод Рунге-Кутты, h = 0.2 -->
     <g transform="translate(106.75 294.7875)scale(0.16 -0.16)">
      <defs>
       <path d="M 19.671875 64.796875 
L 19.671875 37.40625 
L 32.078125 37.40625 
Q 38.96875 37.40625 42.71875 40.96875 
Q 46.484375 44.53125 46.484375 51.125 
Q 46.484375 57.671875 42.71875 61.234375 
Q 38.96875 64.796875 32.078125 64.796875 
z
M 9.8125 72.90625 
L 32.078125 72.90625 
Q 44.34375 72.90625 50.609375 67.359375 
Q 56.890625 61.8125 56.890625 51.125 
Q 56.890625 40.328125 50.609375 34.8125 
Q 44.34375 29.296875 32.078125 29.296875 
L 19.671875 29.296875 
L 19.671875 0 
L 9.8125 0 
z
" id="DejaVuSans-1056"/>
       <path d="M 32.171875 -5.078125 
Q 28.375 -14.84375 24.75 -17.8125 
Q 21.140625 -20.796875 15.09375 -20.796875 
L 7.90625 -20.796875 
L 7.90625 -13.28125 
L 13.1875 -13.28125 
Q 16.890625 -13.28125 18.9375 -11.515625 
Q 21 -9.765625 23.484375 -3.21875 
L 25.09375 0.875 
L 2.984375 54.6875 
L 12.5 54.6875 
L 29.59375 11.921875 
L 46.6875 54.6875 
L 56.203125 54.6875 
z
" id="DejaVuSans-1091"/>
       <path d="M 9.078125 0 
L 9.078125 54.6875 
L 47.65625 54.6875 
L 47.65625 47.515625 
L 18.109375 47.515625 
L 18.109375 0 
z
" id="DejaVuSans-1075"/>
       <path d="M 4.890625 31.390625 
L 31.203125 31.390625 
L 31.203125 23.390625 
L 4.890625 23.390625 
z
" id="DejaVuSans-45"/>
       <path d="M 9.8125 72.90625 
L 19.671875 72.90625 
L 19.671875 36.859375 
L 54.9375 72.90625 
L 67.578125 72.90625 
L 39.40625 44.09375 
L 69.046875 0 
L 58.296875 0 
L 33.015625 37.546875 
L 19.671875 23.921875 
L 19.671875 0 
L 9.8125 0 
z
" id="DejaVuSans-1050"/>
       <path d="M 61.078125 54.6875 
L 70.0625 54.6875 
L 70.0625 0 
L 61.078125 0 
z
M 65.578125 56 
z
M 43.453125 16.21875 
Q 43.453125 20.609375 40.25 22.90625 
Q 37.0625 25.203125 30.90625 25.203125 
L 18.109375 25.203125 
L 18.109375 7.171875 
L 30.90625 7.171875 
Q 37.0625 7.171875 40.25 9.484375 
Q 43.453125 11.8125 43.453125 16.21875 
z
M 9.078125 54.6875 
L 18.109375 54.6875 
L 18.109375 32.375 
L 31.296875 32.375 
Q 41.75 32.375 47.390625 28.390625 
Q 53.03125 24.421875 53.03125 16.21875 
Q 53.03125 8.015625 47.390625 4 
Q 41.75 0 31.296875 0 
L 9.078125 0 
z
" id="DejaVuSans-1099"/>
      </defs>
      <use xlink:href="#DejaVuSans-1052"/>
      <use x="86.279297" xlink:href="#DejaVuSans-1077"/>
      <use x="147.802734" xlink:href="#DejaVuSans-1090"/>
      <use x="206.054688" xlink:href="#DejaVuSans-1086"/>
      <use x="267.236328" xlink:href="#DejaVuSans-1076"/>
      <use x="336.376953" xlink:href="#DejaVuSans-32"/>
      <use x="368.164062" xlink:href="#DejaVuSans-1056"/>
      <use x="428.466797" xlink:href="#DejaVuSans-1091"/>
      <use x="487.646484" xlink:href="#DejaVuSans-1085"/>
      <use x="553.027344" xlink:href="#DejaVuSans-1075"/>
      <use x="605.566406" xlink:href="#DejaVuSans-1077"/>
      <use x="667.089844" xlink:href="#DejaVuSans-45"/>
      <use x="703.173828" xlink:href="#DejaVuSans-1050"/>
      <use x="774.169922" xlink:href="#DejaVuSans-1091"/>
      <use x="833.349609" xlink:href="#DejaVuSans-1090"/>
      <use x="891.601562" xlink:href="#DejaVuSans-1090"/>
      <use x="949.853516" xlink:href="#DejaVuSans-1099"/>
      <use x="1028.808594" xlink:href="#DejaVuSans-44"/>
      <use x="1060.595703" xlink:href="#DejaVuSans-32"/>
      <use x="1092.382812" xlink:href="#DejaVuSans-104"/>
      <use x="1155.761719" xlink:href="#DejaVuSans-32"/>
      <use x="1187.548828" xlink:href="#DejaVuSans-61"/>
      <use x="1271.337891" xlink:href="#DejaVuSans-32"/>
      <use x="1303.125" xlink:href="#DejaVuSans-48"/>
      <use x="1366.748047" xlink:href="#DejaVuSans-46"/>
      <use x="1398.535156" xlink:href="#DejaVuSans-50"/>
     </g>
    </g>
    <g id="line2d_65">
     <path d="M 61.95 312.6725 
L 93.95 312.6725 
" style="fill:none;stroke:#988ed5;stroke-linecap:square;stroke-width:1.5;"/>
    </g>
    <g id="line2d_66">
     <g>
      <use style="fill:#988ed5;stroke:#988ed5;" x="77.95" xlink:href="#m2524d7236c" y="312.6725"/>
     </g>
    </g>
    <g id="text_26">
     <!-- Метод Рунге-Кутты, h = 0.1 -->
     <g transform="translate(106.75 318.2725)scale(0.16 -0.16)">
      <use xlink:href="#DejaVuSans-1052"/>
      <use x="86.279297" xlink:href="#DejaVuSans-1077"/>
      <use x="147.802734" xlink:href="#DejaVuSans-1090"/>
      <use x="206.054688" xlink:href="#DejaVuSans-1086"/>
      <use x="267.236328" xlink:href="#DejaVuSans-1076"/>
      <use x="336.376953" xlink:href="#DejaVuSans-32"/>
      <use x="368.164062" xlink:href="#DejaVuSans-1056"/>
      <use x="428.466797" xlink:href="#DejaVuSans-1091"/>
      <use x="487.646484" xlink:href="#DejaVuSans-1085"/>
      <use x="553.027344" xlink:href="#DejaVuSans-1075"/>
      <use x="605.566406" xlink:href="#DejaVuSans-1077"/>
      <use x="667.089844" xlink:href="#DejaVuSans-45"/>
      <use x="703.173828" xlink:href="#DejaVuSans-1050"/>
      <use x="774.169922" xlink:href="#DejaVuSans-1091"/>
      <use x="833.349609" xlink:href="#DejaVuSans-1090"/>
      <use x="891.601562" xlink:href="#DejaVuSans-1090"/>
      <use x="949.853516" xlink:href="#DejaVuSans-1099"/>
      <use x="1028.808594" xlink:href="#DejaVuSans-44"/>
      <use x="1060.595703" xlink:href="#DejaVuSans-32"/>
      <use x="1092.382812" xlink:href="#DejaVuSans-104"/>
      <use x="1155.761719" xlink:href="#DejaVuSans-32"/>
      <use x="1187.548828" xlink:href="#DejaVuSans-61"/>
      <use x="1271.337891" xlink:href="#DejaVuSans-32"/>
      <use x="1303.125" xlink:href="#DejaVuSans-48"/>
      <use x="1366.748047" xlink:href="#DejaVuSans-46"/>
      <use x="1398.535156" xlink:href="#DejaVuSans-49"/>
     </g>
    </g>
    <g id="line2d_67">
     <path d="M 61.95 336.1575 
L 93.95 336.1575 
" style="fill:none;stroke:#777777;stroke-linecap:square;stroke-width:1.5;"/>
    </g>
    <g id="line2d_68">
     <g>
      <use style="fill:#777777;stroke:#777777;" x="77.95" xlink:href="#mab58ba819a" y="336.1575"/>
     </g>
    </g>
    <g id="text_27">
     <!-- Метод Рунге-Кутты, h = 0.05 -->
     <g transform="translate(106.75 341.7575)scale(0.16 -0.16)">
      <use xlink:href="#DejaVuSans-1052"/>
      <use x="86.279297" xlink:href="#DejaVuSans-1077"/>
      <use x="147.802734" xlink:href="#DejaVuSans-1090"/>
      <use x="206.054688" xlink:href="#DejaVuSans-1086"/>
      <use x="267.236328" xlink:href="#DejaVuSans-1076"/>
      <use x="336.376953" xlink:href="#DejaVuSans-32"/>
      <use x="368.164062" xlink:href="#DejaVuSans-1056"/>
      <use x="428.466797" xlink:href="#DejaVuSans-1091"/>
      <use x="487.646484" xlink:href="#DejaVuSans-1085"/>
      <use x="553.027344" xlink:href="#DejaVuSans-1075"/>
      <use x="605.566406" xlink:href="#DejaVuSans-1077"/>
      <use x="667.089844" xlink:href="#DejaVuSans-45"/>
      <use x="703.173828" xlink:href="#DejaVuSans-1050"/>
      <use x="774.169922" xlink:href="#DejaVuSans-1091"/>
      <use x="833.349609" xlink:href="#DejaVuSans-1090"/>
      <use x="891.601562" xlink:href="#DejaVuSans-1090"/>
      <use x="949.853516" xlink:href="#DejaVuSans-1099"/>
      <use x="1028.808594" xlink:href="#DejaVuSans-44"/>
      <use x="1060.595703" xlink:href="#DejaVuSans-32"/>
      <use x="1092.382812" xlink:href="#DejaVuSans-104"/>
      <use x="1155.761719" xlink:href="#DejaVuSans-32"/>
      <use x="1187.548828" xlink:href="#DejaVuSans-61"/>
      <use x="1271.337891" xlink:href="#DejaVuSans-32"/>
      <use x="1303.125" xlink:href="#DejaVuSans-48"/>
      <use x="1366.748047" xlink:href="#DejaVuSans-46"/>
      <use x="1398.535156" xlink:href="#DejaVuSans-48"/>
      <use x="1462.158203" xlink:href="#DejaVuSans-53"/>
     </g>
    </g>
   </g>
  </g>
 </g>
 <defs>
  <clipPath id="p4f88cbeca2">
   <rect height="217.05" width="661.65" x="47.55" y="10.8"/>
  </clipPath>
  <clipPath id="pc8ee00f3b7">
   <rect height="217.05" width="661.65" x="47.55" y="242.15"/>
  </clipPath>
 </defs>
</svg>
