<?xml version="1.0" encoding="utf-8" standalone="no"?>
<!DOCTYPE svg PUBLIC "-//W3C//DTD SVG 1.1//EN"
  "http://www.w3.org/Graphics/SVG/1.1/DTD/svg11.dtd">
<!-- Created with matplotlib (https://matplotlib.org/) -->
<svg height="360pt" version="1.1" viewBox="0 0 504 360" width="504pt" xmlns="http://www.w3.org/2000/svg" xmlns:xlink="http://www.w3.org/1999/xlink">
 <metadata>
  <rdf:RDF xmlns:cc="http://creativecommons.org/ns#" xmlns:dc="http://purl.org/dc/elements/1.1/" xmlns:rdf="http://www.w3.org/1999/02/22-rdf-syntax-ns#">
   <cc:Work>
    <dc:type rdf:resource="http://purl.org/dc/dcmitype/StillImage"/>
    <dc:date>2021-05-29T16:00:28.215231</dc:date>
    <dc:format>image/svg+xml</dc:format>
    <dc:creator>
     <cc:Agent>
      <dc:title>Matplotlib v3.3.2, https://matplotlib.org/</dc:title>
     </cc:Agent>
    </dc:creator>
   </cc:Work>
  </rdf:RDF>
 </metadata>
 <defs>
  <style type="text/css">*{stroke-linecap:butt;stroke-linejoin:round;}</style>
 </defs>
 <g id="figure_1">
  <g id="patch_1">
   <path d="M 0 360 
L 504 360 
L 504 0 
L 0 0 
z
" style="fill:#ffffff;"/>
  </g>
  <g id="axes_1">
   <g id="patch_2">
    <path d="M 14.3 345.7 
L 493.2 345.7 
L 493.2 10.8 
L 14.3 10.8 
z
" style="fill:#e5e5e5;"/>
   </g>
   <g id="matplotlib.axis_1">
    <g id="xtick_1">
     <g id="line2d_1">
      <path clip-path="url(#p7ae95fb413)" d="M 84.441919 345.7 
L 84.441919 10.8 
" style="fill:none;stroke:#ffffff;stroke-linecap:square;stroke-width:0.8;"/>
     </g>
     <g id="line2d_2">
      <defs>
       <path d="M 0 0 
L 0 3.5 
" id="mc47dd718ba" style="stroke:#555555;stroke-width:0.8;"/>
      </defs>
      <g>
       <use style="fill:#555555;stroke:#555555;stroke-width:0.8;" x="84.441919" xlink:href="#mc47dd718ba" y="345.7"/>
      </g>
     </g>
    </g>
    <g id="xtick_2">
     <g id="line2d_3">
      <path clip-path="url(#p7ae95fb413)" d="M 181.189394 345.7 
L 181.189394 10.8 
" style="fill:none;stroke:#ffffff;stroke-linecap:square;stroke-width:0.8;"/>
     </g>
     <g id="line2d_4">
      <g>
       <use style="fill:#555555;stroke:#555555;stroke-width:0.8;" x="181.189394" xlink:href="#mc47dd718ba" y="345.7"/>
      </g>
     </g>
    </g>
    <g id="xtick_3">
     <g id="line2d_5">
      <path clip-path="url(#p7ae95fb413)" d="M 277.936869 345.7 
L 277.936869 10.8 
" style="fill:none;stroke:#ffffff;stroke-linecap:square;stroke-width:0.8;"/>
     </g>
     <g id="line2d_6">
      <g>
       <use style="fill:#555555;stroke:#555555;stroke-width:0.8;" x="277.936869" xlink:href="#mc47dd718ba" y="345.7"/>
      </g>
     </g>
    </g>
    <g id="xtick_4">
     <g id="line2d_7">
      <path clip-path="url(#p7ae95fb413)" d="M 374.684343 345.7 
L 374.684343 10.8 
" style="fill:none;stroke:#ffffff;stroke-linecap:square;stroke-width:0.8;"/>
     </g>
     <g id="line2d_8">
      <g>
       <use style="fill:#555555;stroke:#555555;stroke-width:0.8;" x="374.684343" xlink:href="#mc47dd718ba" y="345.7"/>
      </g>
     </g>
    </g>
    <g id="xtick_5">
     <g id="line2d_9">
      <path clip-path="url(#p7ae95fb413)" d="M 471.431818 345.7 
L 471.431818 10.8 
" style="fill:none;stroke:#ffffff;stroke-linecap:square;stroke-width:0.8;"/>
     </g>
     <g id="line2d_10">
      <g>
       <use style="fill:#555555;stroke:#555555;stroke-width:0.8;" x="471.431818" xlink:href="#mc47dd718ba" y="345.7"/>
      </g>
     </g>
    </g>
   </g>
   <g id="matplotlib.axis_2">
    <g id="ytick_1">
     <g id="line2d_11">
      <path clip-path="url(#p7ae95fb413)" d="M 14.3 330.477273 
L 493.2 330.477273 
" style="fill:none;stroke:#ffffff;stroke-linecap:square;stroke-width:0.8;"/>
     </g>
     <g id="line2d_12">
      <defs>
       <path d="M 0 0 
L -3.5 0 
" id="m712ea9639b" style="stroke:#555555;stroke-width:0.8;"/>
      </defs>
      <g>
       <use style="fill:#555555;stroke:#555555;stroke-width:0.8;" x="14.3" xlink:href="#m712ea9639b" y="330.477273"/>
      </g>
     </g>
    </g>
    <g id="ytick_2">
     <g id="line2d_13">
      <path clip-path="url(#p7ae95fb413)" d="M 14.3 290.417464 
L 493.2 290.417464 
" style="fill:none;stroke:#ffffff;stroke-linecap:square;stroke-width:0.8;"/>
     </g>
     <g id="line2d_14">
      <g>
       <use style="fill:#555555;stroke:#555555;stroke-width:0.8;" x="14.3" xlink:href="#m712ea9639b" y="290.417464"/>
      </g>
     </g>
    </g>
    <g id="ytick_3">
     <g id="line2d_15">
      <path clip-path="url(#p7ae95fb413)" d="M 14.3 250.357656 
L 493.2 250.357656 
" style="fill:none;stroke:#ffffff;stroke-linecap:square;stroke-width:0.8;"/>
     </g>
     <g id="line2d_16">
      <g>
       <use style="fill:#555555;stroke:#555555;stroke-width:0.8;" x="14.3" xlink:href="#m712ea9639b" y="250.357656"/>
      </g>
     </g>
    </g>
    <g id="ytick_4">
     <g id="line2d_17">
      <path clip-path="url(#p7ae95fb413)" d="M 14.3 210.297847 
L 493.2 210.297847 
" style="fill:none;stroke:#ffffff;stroke-linecap:square;stroke-width:0.8;"/>
     </g>
     <g id="line2d_18">
      <g>
       <use style="fill:#555555;stroke:#555555;stroke-width:0.8;" x="14.3" xlink:href="#m712ea9639b" y="210.297847"/>
      </g>
     </g>
    </g>
    <g id="ytick_5">
     <g id="line2d_19">
      <path clip-path="url(#p7ae95fb413)" d="M 14.3 170.238038 
L 493.2 170.238038 
" style="fill:none;stroke:#ffffff;stroke-linecap:square;stroke-width:0.8;"/>
     </g>
     <g id="line2d_20">
      <g>
       <use style="fill:#555555;stroke:#555555;stroke-width:0.8;" x="14.3" xlink:href="#m712ea9639b" y="170.238038"/>
      </g>
     </g>
    </g>
    <g id="ytick_6">
     <g id="line2d_21">
      <path clip-path="url(#p7ae95fb413)" d="M 14.3 130.17823 
L 493.2 130.17823 
" style="fill:none;stroke:#ffffff;stroke-linecap:square;stroke-width:0.8;"/>
     </g>
     <g id="line2d_22">
      <g>
       <use style="fill:#555555;stroke:#555555;stroke-width:0.8;" x="14.3" xlink:href="#m712ea9639b" y="130.17823"/>
      </g>
     </g>
    </g>
    <g id="ytick_7">
     <g id="line2d_23">
      <path clip-path="url(#p7ae95fb413)" d="M 14.3 90.118421 
L 493.2 90.118421 
" style="fill:none;stroke:#ffffff;stroke-linecap:square;stroke-width:0.8;"/>
     </g>
     <g id="line2d_24">
      <g>
       <use style="fill:#555555;stroke:#555555;stroke-width:0.8;" x="14.3" xlink:href="#m712ea9639b" y="90.118421"/>
      </g>
     </g>
    </g>
    <g id="ytick_8">
     <g id="line2d_25">
      <path clip-path="url(#p7ae95fb413)" d="M 14.3 50.058612 
L 493.2 50.058612 
" style="fill:none;stroke:#ffffff;stroke-linecap:square;stroke-width:0.8;"/>
     </g>
     <g id="line2d_26">
      <g>
       <use style="fill:#555555;stroke:#555555;stroke-width:0.8;" x="14.3" xlink:href="#m712ea9639b" y="50.058612"/>
      </g>
     </g>
    </g>
   </g>
   <g id="patch_3">
    <path clip-path="url(#p7ae95fb413)" d="M 36.068182 330.477273 
L 36.068182 271.188756 
L 44.953154 258.877579 
L 53.838126 247.804225 
L 62.723098 237.90912 
L 71.608071 229.132689 
L 80.493043 221.415357 
L 89.378015 214.697551 
L 98.262987 208.919696 
L 107.147959 204.022218 
L 116.032931 199.945542 
L 124.917904 196.630094 
L 133.802876 194.016299 
L 142.687848 192.044584 
L 151.57282 190.655373 
L 160.457792 189.789094 
L 169.342764 189.38617 
L 178.227737 189.387028 
L 187.112709 189.732093 
L 195.997681 190.361792 
L 204.882653 191.216549 
L 213.767625 192.236791 
L 222.652597 193.362942 
L 231.53757 194.53543 
L 240.422542 195.694678 
L 249.307514 196.781113 
L 258.192486 197.735161 
L 267.077458 198.497247 
L 275.96243 199.007797 
L 284.847403 199.207236 
L 293.732375 199.035991 
L 302.617347 198.434486 
L 311.502319 197.343147 
L 320.387291 195.702401 
L 329.272263 193.452672 
L 338.157236 190.534386 
L 347.042208 186.887969 
L 355.92718 182.453847 
L 364.812152 177.172445 
L 373.697124 170.984189 
L 382.582096 163.829504 
L 391.467069 155.648816 
L 400.352041 146.382551 
L 409.237013 135.971135 
L 418.121985 124.354992 
L 427.006957 111.47455 
L 435.891929 97.270232 
L 444.776902 81.682465 
L 453.661874 64.651675 
L 462.546846 46.118287 
L 471.431818 26.022727 
L 471.431818 330.477273 
z
" style="fill:#ff0000;opacity:0.3;stroke:#ff0000;stroke-linejoin:miter;stroke-width:0.5;"/>
   </g>
   <g id="line2d_27">
    <path clip-path="url(#p7ae95fb413)" d="M 36.068182 271.188756 
L 40.421818 264.997867 
L 44.775455 259.111474 
L 49.129091 253.522568 
L 53.482727 248.224141 
L 57.836364 243.209183 
L 62.19 238.470686 
L 66.543636 234.001641 
L 70.897273 229.795039 
L 75.250909 225.843871 
L 79.604545 222.141129 
L 83.958182 218.679803 
L 88.311818 215.452884 
L 92.665455 212.453364 
L 97.019091 209.674234 
L 101.372727 207.108485 
L 105.726364 204.749108 
L 110.08 202.589095 
L 114.433636 200.621435 
L 118.787273 198.839122 
L 123.140909 197.235144 
L 127.494545 195.802495 
L 131.848182 194.534165 
L 136.201818 193.423144 
L 140.555455 192.462425 
L 144.909091 191.644999 
L 149.262727 190.963855 
L 153.616364 190.411986 
L 157.97 189.982383 
L 162.323636 189.668037 
L 166.677273 189.461939 
L 171.030909 189.35708 
L 175.384545 189.346452 
L 179.738182 189.423044 
L 184.091818 189.57985 
L 188.445455 189.809859 
L 192.799091 190.106062 
L 197.152727 190.461452 
L 201.506364 190.869019 
L 205.86 191.321754 
L 210.213636 191.812649 
L 214.567273 192.334694 
L 218.920909 192.88088 
L 223.274545 193.4442 
L 227.628182 194.017643 
L 231.981818 194.594202 
L 236.335455 195.166866 
L 240.689091 195.728628 
L 245.042727 196.272478 
L 249.396364 196.791408 
L 253.75 197.278409 
L 258.103636 197.726472 
L 262.457273 198.128587 
L 266.810909 198.477747 
L 271.164545 198.766942 
L 275.518182 198.989163 
L 279.871818 199.137402 
L 284.225455 199.20465 
L 288.579091 199.183897 
L 292.932727 199.068136 
L 297.286364 198.850356 
L 301.64 198.52355 
L 305.993636 198.080708 
L 310.347273 197.514821 
L 314.700909 196.818881 
L 319.054545 195.985879 
L 323.408182 195.008806 
L 327.761818 193.880653 
L 332.115455 192.594411 
L 336.469091 191.143072 
L 340.822727 189.519625 
L 345.176364 187.717064 
L 349.53 185.728378 
L 353.883636 183.546559 
L 358.237273 181.164598 
L 362.590909 178.575486 
L 366.944545 175.772214 
L 371.298182 172.747774 
L 375.651818 169.495156 
L 380.005455 166.007352 
L 384.359091 162.277353 
L 388.712727 158.29815 
L 393.066364 154.062734 
L 397.42 149.564096 
L 401.773636 144.795227 
L 406.127273 139.749119 
L 410.480909 134.418762 
L 414.834545 128.797149 
L 419.188182 122.877269 
L 423.541818 116.652114 
L 427.895455 110.114675 
L 432.249091 103.257944 
L 436.602727 96.074911 
L 440.956364 88.558567 
L 445.31 80.701905 
L 449.663636 72.497914 
L 454.017273 63.939586 
L 458.370909 55.019912 
L 462.724545 45.731884 
L 467.078182 36.068492 
L 471.431818 26.022727 
" style="fill:none;stroke:#000000;stroke-linecap:square;stroke-width:2;"/>
   </g>
   <g id="patch_4">
    <path d="M 14.3 345.7 
L 14.3 10.8 
" style="fill:none;stroke:#ffffff;stroke-linecap:square;stroke-linejoin:miter;"/>
   </g>
   <g id="patch_5">
    <path d="M 493.2 345.7 
L 493.2 10.8 
" style="fill:none;stroke:#ffffff;stroke-linecap:square;stroke-linejoin:miter;"/>
   </g>
   <g id="patch_6">
    <path d="M 14.3 345.7 
L 493.2 345.7 
" style="fill:none;stroke:#ffffff;stroke-linecap:square;stroke-linejoin:miter;"/>
   </g>
   <g id="patch_7">
    <path d="M 14.3 10.8 
L 493.2 10.8 
" style="fill:none;stroke:#ffffff;stroke-linecap:square;stroke-linejoin:miter;"/>
   </g>
   <g id="text_1">
    <!-- $\int_a^b f(x)\mathrm{d}x$ -->
    <g transform="translate(211.05 282.405502)scale(0.2 -0.2)">
     <defs>
      <path d="M 33.34375 86.328125 
Q 33.9375 97.859375 39.5 102.4375 
Q 45.0625 107.03125 50.28125 107.03125 
Q 55.515625 107.03125 59.890625 102.734375 
Q 64.265625 98.4375 65.625 88.71875 
L 55.375 87.703125 
Q 54.203125 96.6875 50.296875 96.6875 
Q 45.40625 96.6875 44.828125 84.578125 
L 40.328125 -9.328125 
Q 39.796875 -20.84375 34.171875 -25.4375 
Q 28.5625 -30.03125 23.390625 -30.03125 
Q 18.171875 -30.03125 13.796875 -25.734375 
Q 9.421875 -21.4375 8.0625 -11.71875 
L 18.3125 -10.6875 
Q 19.484375 -19.671875 23.390625 -19.671875 
Q 28.265625 -19.671875 28.859375 -7.625 
z
" id="DejaVuSansDisplay-8747"/>
      <path d="M 49.515625 33.40625 
Q 49.515625 40.484375 46.265625 44.484375 
Q 43.015625 48.484375 37.3125 48.484375 
Q 33.15625 48.484375 29.515625 46.453125 
Q 25.875 44.4375 23.1875 40.578125 
Q 20.359375 36.53125 18.71875 31.171875 
Q 17.09375 25.828125 17.09375 20.515625 
Q 17.09375 13.765625 20.28125 9.9375 
Q 23.484375 6.109375 29.109375 6.109375 
Q 33.34375 6.109375 36.953125 8.078125 
Q 40.578125 10.0625 43.3125 13.921875 
Q 46.09375 17.921875 47.796875 23.234375 
Q 49.515625 28.5625 49.515625 33.40625 
z
M 21.578125 46.390625 
Q 24.90625 50.875 29.90625 53.4375 
Q 34.90625 56 40.375 56 
Q 48.78125 56 53.734375 50.328125 
Q 58.6875 44.671875 58.6875 35.015625 
Q 58.6875 27.09375 55.78125 19.671875 
Q 52.875 12.25 47.515625 6.5 
Q 44 2.6875 39.40625 0.625 
Q 34.8125 -1.421875 29.78125 -1.421875 
Q 24.46875 -1.421875 20.5625 1.015625 
Q 16.65625 3.46875 14.203125 8.296875 
L 12.59375 0 
L 3.609375 0 
L 18.40625 75.984375 
L 27.390625 75.984375 
z
" id="DejaVuSans-Oblique-98"/>
      <path d="M 53.71875 31.203125 
L 47.609375 0 
L 38.625 0 
L 40.28125 8.296875 
Q 36.328125 3.421875 31.265625 1 
Q 26.21875 -1.421875 20.015625 -1.421875 
Q 13.03125 -1.421875 8.5625 2.84375 
Q 4.109375 7.125 4.109375 13.8125 
Q 4.109375 23.390625 11.75 28.953125 
Q 19.390625 34.515625 32.8125 34.515625 
L 45.3125 34.515625 
L 45.796875 36.921875 
Q 45.90625 37.3125 45.953125 37.765625 
Q 46 38.234375 46 39.203125 
Q 46 43.5625 42.453125 45.96875 
Q 38.921875 48.390625 32.515625 48.390625 
Q 28.125 48.390625 23.5 47.265625 
Q 18.890625 46.140625 14.015625 43.890625 
L 15.578125 52.203125 
Q 20.65625 54.109375 25.515625 55.046875 
Q 30.375 56 34.90625 56 
Q 44.578125 56 49.625 51.796875 
Q 54.6875 47.609375 54.6875 39.59375 
Q 54.6875 37.984375 54.4375 35.8125 
Q 54.203125 33.640625 53.71875 31.203125 
z
M 44 27.484375 
L 35.015625 27.484375 
Q 23.96875 27.484375 18.671875 24.53125 
Q 13.375 21.578125 13.375 15.375 
Q 13.375 11.078125 16.078125 8.640625 
Q 18.796875 6.203125 23.578125 6.203125 
Q 30.90625 6.203125 36.375 11.453125 
Q 41.84375 16.703125 43.609375 25.484375 
z
" id="DejaVuSans-Oblique-97"/>
      <path d="M 47.796875 75.984375 
L 46.390625 68.5 
L 37.796875 68.5 
Q 32.90625 68.5 30.6875 66.578125 
Q 28.46875 64.65625 27.390625 59.515625 
L 26.421875 54.6875 
L 41.21875 54.6875 
L 39.890625 47.703125 
L 25.09375 47.703125 
L 15.828125 0 
L 6.78125 0 
L 16.109375 47.703125 
L 7.515625 47.703125 
L 8.796875 54.6875 
L 17.390625 54.6875 
L 18.109375 58.5 
Q 19.96875 68.171875 24.625 72.078125 
Q 29.296875 75.984375 39.3125 75.984375 
z
" id="DejaVuSans-Oblique-102"/>
      <path d="M 31 75.875 
Q 24.46875 64.65625 21.28125 53.65625 
Q 18.109375 42.671875 18.109375 31.390625 
Q 18.109375 20.125 21.3125 9.0625 
Q 24.515625 -2 31 -13.1875 
L 23.1875 -13.1875 
Q 15.875 -1.703125 12.234375 9.375 
Q 8.59375 20.453125 8.59375 31.390625 
Q 8.59375 42.28125 12.203125 53.3125 
Q 15.828125 64.359375 23.1875 75.875 
z
" id="DejaVuSans-40"/>
      <path d="M 60.015625 54.6875 
L 34.90625 27.875 
L 50.296875 0 
L 39.984375 0 
L 28.421875 21.6875 
L 8.296875 0 
L -2.59375 0 
L 24.3125 28.8125 
L 10.015625 54.6875 
L 20.3125 54.6875 
L 30.8125 34.90625 
L 49.125 54.6875 
z
" id="DejaVuSans-Oblique-120"/>
      <path d="M 8.015625 75.875 
L 15.828125 75.875 
Q 23.140625 64.359375 26.78125 53.3125 
Q 30.421875 42.28125 30.421875 31.390625 
Q 30.421875 20.453125 26.78125 9.375 
Q 23.140625 -1.703125 15.828125 -13.1875 
L 8.015625 -13.1875 
Q 14.5 -2 17.703125 9.0625 
Q 20.90625 20.125 20.90625 31.390625 
Q 20.90625 42.671875 17.703125 53.65625 
Q 14.5 64.65625 8.015625 75.875 
z
" id="DejaVuSans-41"/>
      <path d="M 45.40625 46.390625 
L 45.40625 75.984375 
L 54.390625 75.984375 
L 54.390625 0 
L 45.40625 0 
L 45.40625 8.203125 
Q 42.578125 3.328125 38.25 0.953125 
Q 33.9375 -1.421875 27.875 -1.421875 
Q 17.96875 -1.421875 11.734375 6.484375 
Q 5.515625 14.40625 5.515625 27.296875 
Q 5.515625 40.1875 11.734375 48.09375 
Q 17.96875 56 27.875 56 
Q 33.9375 56 38.25 53.625 
Q 42.578125 51.265625 45.40625 46.390625 
z
M 14.796875 27.296875 
Q 14.796875 17.390625 18.875 11.75 
Q 22.953125 6.109375 30.078125 6.109375 
Q 37.203125 6.109375 41.296875 11.75 
Q 45.40625 17.390625 45.40625 27.296875 
Q 45.40625 37.203125 41.296875 42.84375 
Q 37.203125 48.484375 30.078125 48.484375 
Q 22.953125 48.484375 18.875 42.84375 
Q 14.796875 37.203125 14.796875 27.296875 
z
" id="DejaVuSans-100"/>
     </defs>
     <use transform="translate(0 0.654688)" xlink:href="#DejaVuSansDisplay-8747"/>
     <use transform="translate(86.744141 85.810937)scale(0.7)" xlink:href="#DejaVuSans-Oblique-98"/>
     <use transform="translate(71.759766 -51.251563)scale(0.7)" xlink:href="#DejaVuSans-Oblique-97"/>
     <use transform="translate(131.177734 0.654688)" xlink:href="#DejaVuSans-Oblique-102"/>
     <use transform="translate(166.382812 0.654688)" xlink:href="#DejaVuSans-40"/>
     <use transform="translate(205.396484 0.654688)" xlink:href="#DejaVuSans-Oblique-120"/>
     <use transform="translate(264.576172 0.654688)" xlink:href="#DejaVuSans-41"/>
     <use transform="translate(303.589844 0.654688)" xlink:href="#DejaVuSans-100"/>
     <use transform="translate(367.066406 0.654688)" xlink:href="#DejaVuSans-Oblique-120"/>
    </g>
   </g>
   <g id="text_2">
    <!-- $a$ -->
    <g transform="translate(36.068182 338.489234)scale(0.1 -0.1)">
     <use xlink:href="#DejaVuSans-Oblique-97"/>
    </g>
   </g>
   <g id="text_3">
    <!-- $b$ -->
    <g transform="translate(471.431818 338.489234)scale(0.1 -0.1)">
     <use transform="translate(0 0.015625)" xlink:href="#DejaVuSans-Oblique-98"/>
    </g>
   </g>
  </g>
  <g id="text_4">
   <!-- $x$ -->
   <g transform="translate(453.6 356.4)scale(0.1 -0.1)">
    <use transform="translate(0 0.3125)" xlink:href="#DejaVuSans-Oblique-120"/>
   </g>
  </g>
  <g id="text_5">
   <!-- $y$ -->
   <g transform="translate(5.04 36)scale(0.1 -0.1)">
    <defs>
     <path d="M 24.8125 -5.078125 
Q 18.5625 -15.578125 14.625 -18.1875 
Q 10.6875 -20.796875 4.59375 -20.796875 
L -2.484375 -20.796875 
L -0.984375 -13.28125 
L 4.203125 -13.28125 
Q 7.953125 -13.28125 10.59375 -11.234375 
Q 13.234375 -9.1875 16.5 -3.21875 
L 19.28125 2 
L 7.171875 54.6875 
L 16.703125 54.6875 
L 25.78125 12.796875 
L 50.875 54.6875 
L 60.296875 54.6875 
z
" id="DejaVuSans-Oblique-121"/>
    </defs>
    <use transform="translate(0 0.3125)" xlink:href="#DejaVuSans-Oblique-121"/>
   </g>
  </g>
 </g>
 <defs>
  <clipPath id="p7ae95fb413">
   <rect height="334.9" width="478.9" x="14.3" y="10.8"/>
  </clipPath>
 </defs>
</svg>
