<?xml version="1.0" encoding="utf-8" standalone="no"?>
<!DOCTYPE svg PUBLIC "-//W3C//DTD SVG 1.1//EN"
  "http://www.w3.org/Graphics/SVG/1.1/DTD/svg11.dtd">
<!-- Created with matplotlib (https://matplotlib.org/) -->
<svg height="360pt" version="1.1" viewBox="0 0 504 360" width="504pt" xmlns="http://www.w3.org/2000/svg" xmlns:xlink="http://www.w3.org/1999/xlink">
 <metadata>
  <rdf:RDF xmlns:cc="http://creativecommons.org/ns#" xmlns:dc="http://purl.org/dc/elements/1.1/" xmlns:rdf="http://www.w3.org/1999/02/22-rdf-syntax-ns#">
   <cc:Work>
    <dc:type rdf:resource="http://purl.org/dc/dcmitype/StillImage"/>
    <dc:date>2021-05-29T16:25:53.182593</dc:date>
    <dc:format>image/svg+xml</dc:format>
    <dc:creator>
     <cc:Agent>
      <dc:title>Matplotlib v3.3.2, https://matplotlib.org/</dc:title>
     </cc:Agent>
    </dc:creator>
   </cc:Work>
  </rdf:RDF>
 </metadata>
 <defs>
  <style type="text/css">*{stroke-linecap:butt;stroke-linejoin:round;}</style>
 </defs>
 <g id="figure_1">
  <g id="patch_1">
   <path d="M 0 360 
L 504 360 
L 504 0 
L 0 0 
z
" style="fill:#ffffff;"/>
  </g>
  <g id="axes_1">
   <g id="patch_2">
    <path d="M 14.3 345.7 
L 493.2 345.7 
L 493.2 10.8 
L 14.3 10.8 
z
" style="fill:#e5e5e5;"/>
   </g>
   <g id="matplotlib.axis_1">
    <g id="xtick_1">
     <g id="line2d_1">
      <path clip-path="url(#p42ade316e2)" d="M 84.441919 345.7 
L 84.441919 10.8 
" style="fill:none;stroke:#ffffff;stroke-linecap:square;stroke-width:0.8;"/>
     </g>
     <g id="line2d_2">
      <defs>
       <path d="M 0 0 
L 0 3.5 
" id="m6fa5800089" style="stroke:#555555;stroke-width:0.8;"/>
      </defs>
      <g>
       <use style="fill:#555555;stroke:#555555;stroke-width:0.8;" x="84.441919" xlink:href="#m6fa5800089" y="345.7"/>
      </g>
     </g>
    </g>
    <g id="xtick_2">
     <g id="line2d_3">
      <path clip-path="url(#p42ade316e2)" d="M 181.189394 345.7 
L 181.189394 10.8 
" style="fill:none;stroke:#ffffff;stroke-linecap:square;stroke-width:0.8;"/>
     </g>
     <g id="line2d_4">
      <g>
       <use style="fill:#555555;stroke:#555555;stroke-width:0.8;" x="181.189394" xlink:href="#m6fa5800089" y="345.7"/>
      </g>
     </g>
    </g>
    <g id="xtick_3">
     <g id="line2d_5">
      <path clip-path="url(#p42ade316e2)" d="M 277.936869 345.7 
L 277.936869 10.8 
" style="fill:none;stroke:#ffffff;stroke-linecap:square;stroke-width:0.8;"/>
     </g>
     <g id="line2d_6">
      <g>
       <use style="fill:#555555;stroke:#555555;stroke-width:0.8;" x="277.936869" xlink:href="#m6fa5800089" y="345.7"/>
      </g>
     </g>
    </g>
    <g id="xtick_4">
     <g id="line2d_7">
      <path clip-path="url(#p42ade316e2)" d="M 374.684343 345.7 
L 374.684343 10.8 
" style="fill:none;stroke:#ffffff;stroke-linecap:square;stroke-width:0.8;"/>
     </g>
     <g id="line2d_8">
      <g>
       <use style="fill:#555555;stroke:#555555;stroke-width:0.8;" x="374.684343" xlink:href="#m6fa5800089" y="345.7"/>
      </g>
     </g>
    </g>
    <g id="xtick_5">
     <g id="line2d_9">
      <path clip-path="url(#p42ade316e2)" d="M 471.431818 345.7 
L 471.431818 10.8 
" style="fill:none;stroke:#ffffff;stroke-linecap:square;stroke-width:0.8;"/>
     </g>
     <g id="line2d_10">
      <g>
       <use style="fill:#555555;stroke:#555555;stroke-width:0.8;" x="471.431818" xlink:href="#m6fa5800089" y="345.7"/>
      </g>
     </g>
    </g>
   </g>
   <g id="matplotlib.axis_2">
    <g id="ytick_1">
     <g id="line2d_11">
      <path clip-path="url(#p42ade316e2)" d="M 14.3 330.477273 
L 493.2 330.477273 
" style="fill:none;stroke:#ffffff;stroke-linecap:square;stroke-width:0.8;"/>
     </g>
     <g id="line2d_12">
      <defs>
       <path d="M 0 0 
L -3.5 0 
" id="m364be74c25" style="stroke:#555555;stroke-width:0.8;"/>
      </defs>
      <g>
       <use style="fill:#555555;stroke:#555555;stroke-width:0.8;" x="14.3" xlink:href="#m364be74c25" y="330.477273"/>
      </g>
     </g>
    </g>
    <g id="ytick_2">
     <g id="line2d_13">
      <path clip-path="url(#p42ade316e2)" d="M 14.3 290.417464 
L 493.2 290.417464 
" style="fill:none;stroke:#ffffff;stroke-linecap:square;stroke-width:0.8;"/>
     </g>
     <g id="line2d_14">
      <g>
       <use style="fill:#555555;stroke:#555555;stroke-width:0.8;" x="14.3" xlink:href="#m364be74c25" y="290.417464"/>
      </g>
     </g>
    </g>
    <g id="ytick_3">
     <g id="line2d_15">
      <path clip-path="url(#p42ade316e2)" d="M 14.3 250.357656 
L 493.2 250.357656 
" style="fill:none;stroke:#ffffff;stroke-linecap:square;stroke-width:0.8;"/>
     </g>
     <g id="line2d_16">
      <g>
       <use style="fill:#555555;stroke:#555555;stroke-width:0.8;" x="14.3" xlink:href="#m364be74c25" y="250.357656"/>
      </g>
     </g>
    </g>
    <g id="ytick_4">
     <g id="line2d_17">
      <path clip-path="url(#p42ade316e2)" d="M 14.3 210.297847 
L 493.2 210.297847 
" style="fill:none;stroke:#ffffff;stroke-linecap:square;stroke-width:0.8;"/>
     </g>
     <g id="line2d_18">
      <g>
       <use style="fill:#555555;stroke:#555555;stroke-width:0.8;" x="14.3" xlink:href="#m364be74c25" y="210.297847"/>
      </g>
     </g>
    </g>
    <g id="ytick_5">
     <g id="line2d_19">
      <path clip-path="url(#p42ade316e2)" d="M 14.3 170.238038 
L 493.2 170.238038 
" style="fill:none;stroke:#ffffff;stroke-linecap:square;stroke-width:0.8;"/>
     </g>
     <g id="line2d_20">
      <g>
       <use style="fill:#555555;stroke:#555555;stroke-width:0.8;" x="14.3" xlink:href="#m364be74c25" y="170.238038"/>
      </g>
     </g>
    </g>
    <g id="ytick_6">
     <g id="line2d_21">
      <path clip-path="url(#p42ade316e2)" d="M 14.3 130.17823 
L 493.2 130.17823 
" style="fill:none;stroke:#ffffff;stroke-linecap:square;stroke-width:0.8;"/>
     </g>
     <g id="line2d_22">
      <g>
       <use style="fill:#555555;stroke:#555555;stroke-width:0.8;" x="14.3" xlink:href="#m364be74c25" y="130.17823"/>
      </g>
     </g>
    </g>
    <g id="ytick_7">
     <g id="line2d_23">
      <path clip-path="url(#p42ade316e2)" d="M 14.3 90.118421 
L 493.2 90.118421 
" style="fill:none;stroke:#ffffff;stroke-linecap:square;stroke-width:0.8;"/>
     </g>
     <g id="line2d_24">
      <g>
       <use style="fill:#555555;stroke:#555555;stroke-width:0.8;" x="14.3" xlink:href="#m364be74c25" y="90.118421"/>
      </g>
     </g>
    </g>
    <g id="ytick_8">
     <g id="line2d_25">
      <path clip-path="url(#p42ade316e2)" d="M 14.3 50.058612 
L 493.2 50.058612 
" style="fill:none;stroke:#ffffff;stroke-linecap:square;stroke-width:0.8;"/>
     </g>
     <g id="line2d_26">
      <g>
       <use style="fill:#555555;stroke:#555555;stroke-width:0.8;" x="14.3" xlink:href="#m364be74c25" y="50.058612"/>
      </g>
     </g>
    </g>
   </g>
   <g id="PathCollection_1">
    <defs>
     <path d="M 0 3 
C 0.795609 3 1.55874 2.683901 2.12132 2.12132 
C 2.683901 1.55874 3 0.795609 3 0 
C 3 -0.795609 2.683901 -1.55874 2.12132 -2.12132 
C 1.55874 -2.683901 0.795609 -3 0 -3 
C -0.795609 -3 -1.55874 -2.683901 -2.12132 -2.12132 
C -2.683901 -1.55874 -3 -0.795609 -3 0 
C -3 0.795609 -2.683901 1.55874 -2.12132 2.12132 
C -1.55874 2.683901 -0.795609 3 0 3 
z
" id="m65616cbb76" style="stroke:#e24a33;stroke-opacity:0.5;stroke-width:0.5;"/>
    </defs>
    <g clip-path="url(#p42ade316e2)">
     <use style="fill:#e24a33;fill-opacity:0.5;stroke:#e24a33;stroke-opacity:0.5;stroke-width:0.5;" x="36.068182" xlink:href="#m65616cbb76" y="271.188756"/>
     <use style="fill:#e24a33;fill-opacity:0.5;stroke:#e24a33;stroke-opacity:0.5;stroke-width:0.5;" x="84.441919" xlink:href="#m65616cbb76" y="218.309809"/>
     <use style="fill:#e24a33;fill-opacity:0.5;stroke:#e24a33;stroke-opacity:0.5;stroke-width:0.5;" x="132.815657" xlink:href="#m65616cbb76" y="194.273923"/>
     <use style="fill:#e24a33;fill-opacity:0.5;stroke:#e24a33;stroke-opacity:0.5;stroke-width:0.5;" x="181.189394" xlink:href="#m65616cbb76" y="189.466746"/>
     <use style="fill:#e24a33;fill-opacity:0.5;stroke:#e24a33;stroke-opacity:0.5;stroke-width:0.5;" x="229.563131" xlink:href="#m65616cbb76" y="194.273923"/>
     <use style="fill:#e24a33;fill-opacity:0.5;stroke:#e24a33;stroke-opacity:0.5;stroke-width:0.5;" x="277.936869" xlink:href="#m65616cbb76" y="199.0811"/>
     <use style="fill:#e24a33;fill-opacity:0.5;stroke:#e24a33;stroke-opacity:0.5;stroke-width:0.5;" x="326.310606" xlink:href="#m65616cbb76" y="194.273923"/>
     <use style="fill:#e24a33;fill-opacity:0.5;stroke:#e24a33;stroke-opacity:0.5;stroke-width:0.5;" x="374.684343" xlink:href="#m65616cbb76" y="170.238038"/>
     <use style="fill:#e24a33;fill-opacity:0.5;stroke:#e24a33;stroke-opacity:0.5;stroke-width:0.5;" x="423.058081" xlink:href="#m65616cbb76" y="117.359091"/>
     <use style="fill:#e24a33;fill-opacity:0.5;stroke:#e24a33;stroke-opacity:0.5;stroke-width:0.5;" x="471.431818" xlink:href="#m65616cbb76" y="26.022727"/>
    </g>
   </g>
   <g id="patch_3">
    <path clip-path="url(#p42ade316e2)" d="M 36.068182 330.477273 
L 36.068182 271.188756 
L 84.441919 218.309809 
L 84.441919 330.477273 
z
" style="fill:#ffc0cb;opacity:0.5;stroke:#ff0000;stroke-linejoin:miter;stroke-width:0.5;"/>
   </g>
   <g id="patch_4">
    <path clip-path="url(#p42ade316e2)" d="M 84.441919 330.477273 
L 84.441919 218.309809 
L 132.815657 194.273923 
L 132.815657 330.477273 
z
" style="fill:#ffc0cb;opacity:0.5;stroke:#ff0000;stroke-linejoin:miter;stroke-width:0.5;"/>
   </g>
   <g id="patch_5">
    <path clip-path="url(#p42ade316e2)" d="M 132.815657 330.477273 
L 132.815657 194.273923 
L 181.189394 189.466746 
L 181.189394 330.477273 
z
" style="fill:#ffc0cb;opacity:0.5;stroke:#ff0000;stroke-linejoin:miter;stroke-width:0.5;"/>
   </g>
   <g id="patch_6">
    <path clip-path="url(#p42ade316e2)" d="M 181.189394 330.477273 
L 181.189394 189.466746 
L 229.563131 194.273923 
L 229.563131 330.477273 
z
" style="fill:#ffc0cb;opacity:0.5;stroke:#ff0000;stroke-linejoin:miter;stroke-width:0.5;"/>
   </g>
   <g id="patch_7">
    <path clip-path="url(#p42ade316e2)" d="M 229.563131 330.477273 
L 229.563131 194.273923 
L 277.936869 199.0811 
L 277.936869 330.477273 
z
" style="fill:#ffc0cb;opacity:0.5;stroke:#ff0000;stroke-linejoin:miter;stroke-width:0.5;"/>
   </g>
   <g id="patch_8">
    <path clip-path="url(#p42ade316e2)" d="M 277.936869 330.477273 
L 277.936869 199.0811 
L 326.310606 194.273923 
L 326.310606 330.477273 
z
" style="fill:#ffc0cb;opacity:0.5;stroke:#ff0000;stroke-linejoin:miter;stroke-width:0.5;"/>
   </g>
   <g id="patch_9">
    <path clip-path="url(#p42ade316e2)" d="M 326.310606 330.477273 
L 326.310606 194.273923 
L 374.684343 170.238038 
L 374.684343 330.477273 
z
" style="fill:#ffc0cb;opacity:0.5;stroke:#ff0000;stroke-linejoin:miter;stroke-width:0.5;"/>
   </g>
   <g id="patch_10">
    <path clip-path="url(#p42ade316e2)" d="M 374.684343 330.477273 
L 374.684343 170.238038 
L 423.058081 117.359091 
L 423.058081 330.477273 
z
" style="fill:#ffc0cb;opacity:0.5;stroke:#ff0000;stroke-linejoin:miter;stroke-width:0.5;"/>
   </g>
   <g id="patch_11">
    <path clip-path="url(#p42ade316e2)" d="M 423.058081 330.477273 
L 423.058081 117.359091 
L 471.431818 26.022727 
L 471.431818 330.477273 
z
" style="fill:#ffc0cb;opacity:0.5;stroke:#ff0000;stroke-linejoin:miter;stroke-width:0.5;"/>
   </g>
   <g id="patch_12">
    <path clip-path="url(#p42ade316e2)" d="M 36.068182 330.477273 
L 36.068182 271.188756 
L 84.441919 218.309809 
L 84.441919 330.477273 
z
" style="fill:#ffc0cb;opacity:0.5;stroke:#ff0000;stroke-linejoin:miter;stroke-width:0.5;"/>
   </g>
   <g id="patch_13">
    <path clip-path="url(#p42ade316e2)" d="M 84.441919 330.477273 
L 84.441919 218.309809 
L 132.815657 194.273923 
L 132.815657 330.477273 
z
" style="fill:#ffc0cb;opacity:0.5;stroke:#ff0000;stroke-linejoin:miter;stroke-width:0.5;"/>
   </g>
   <g id="patch_14">
    <path clip-path="url(#p42ade316e2)" d="M 132.815657 330.477273 
L 132.815657 194.273923 
L 181.189394 189.466746 
L 181.189394 330.477273 
z
" style="fill:#ffc0cb;opacity:0.5;stroke:#ff0000;stroke-linejoin:miter;stroke-width:0.5;"/>
   </g>
   <g id="patch_15">
    <path clip-path="url(#p42ade316e2)" d="M 181.189394 330.477273 
L 181.189394 189.466746 
L 229.563131 194.273923 
L 229.563131 330.477273 
z
" style="fill:#ffc0cb;opacity:0.5;stroke:#ff0000;stroke-linejoin:miter;stroke-width:0.5;"/>
   </g>
   <g id="patch_16">
    <path clip-path="url(#p42ade316e2)" d="M 229.563131 330.477273 
L 229.563131 194.273923 
L 277.936869 199.0811 
L 277.936869 330.477273 
z
" style="fill:#ffc0cb;opacity:0.5;stroke:#ff0000;stroke-linejoin:miter;stroke-width:0.5;"/>
   </g>
   <g id="patch_17">
    <path clip-path="url(#p42ade316e2)" d="M 277.936869 330.477273 
L 277.936869 199.0811 
L 326.310606 194.273923 
L 326.310606 330.477273 
z
" style="fill:#ffc0cb;opacity:0.5;stroke:#ff0000;stroke-linejoin:miter;stroke-width:0.5;"/>
   </g>
   <g id="patch_18">
    <path clip-path="url(#p42ade316e2)" d="M 326.310606 330.477273 
L 326.310606 194.273923 
L 374.684343 170.238038 
L 374.684343 330.477273 
z
" style="fill:#ffc0cb;opacity:0.5;stroke:#ff0000;stroke-linejoin:miter;stroke-width:0.5;"/>
   </g>
   <g id="patch_19">
    <path clip-path="url(#p42ade316e2)" d="M 374.684343 330.477273 
L 374.684343 170.238038 
L 423.058081 117.359091 
L 423.058081 330.477273 
z
" style="fill:#ffc0cb;opacity:0.5;stroke:#ff0000;stroke-linejoin:miter;stroke-width:0.5;"/>
   </g>
   <g id="patch_20">
    <path clip-path="url(#p42ade316e2)" d="M 423.058081 330.477273 
L 423.058081 117.359091 
L 471.431818 26.022727 
L 471.431818 330.477273 
z
" style="fill:#ffc0cb;opacity:0.5;stroke:#ff0000;stroke-linejoin:miter;stroke-width:0.5;"/>
   </g>
   <g id="patch_21">
    <path clip-path="url(#p42ade316e2)" d="M 36.068182 330.477273 
L 36.068182 271.188756 
L 84.441919 218.309809 
L 84.441919 330.477273 
z
" style="fill:#ffc0cb;opacity:0.5;stroke:#ff0000;stroke-linejoin:miter;stroke-width:0.5;"/>
   </g>
   <g id="patch_22">
    <path clip-path="url(#p42ade316e2)" d="M 84.441919 330.477273 
L 84.441919 218.309809 
L 132.815657 194.273923 
L 132.815657 330.477273 
z
" style="fill:#ffc0cb;opacity:0.5;stroke:#ff0000;stroke-linejoin:miter;stroke-width:0.5;"/>
   </g>
   <g id="patch_23">
    <path clip-path="url(#p42ade316e2)" d="M 132.815657 330.477273 
L 132.815657 194.273923 
L 181.189394 189.466746 
L 181.189394 330.477273 
z
" style="fill:#ffc0cb;opacity:0.5;stroke:#ff0000;stroke-linejoin:miter;stroke-width:0.5;"/>
   </g>
   <g id="patch_24">
    <path clip-path="url(#p42ade316e2)" d="M 181.189394 330.477273 
L 181.189394 189.466746 
L 229.563131 194.273923 
L 229.563131 330.477273 
z
" style="fill:#ffc0cb;opacity:0.5;stroke:#ff0000;stroke-linejoin:miter;stroke-width:0.5;"/>
   </g>
   <g id="patch_25">
    <path clip-path="url(#p42ade316e2)" d="M 229.563131 330.477273 
L 229.563131 194.273923 
L 277.936869 199.0811 
L 277.936869 330.477273 
z
" style="fill:#ffc0cb;opacity:0.5;stroke:#ff0000;stroke-linejoin:miter;stroke-width:0.5;"/>
   </g>
   <g id="patch_26">
    <path clip-path="url(#p42ade316e2)" d="M 277.936869 330.477273 
L 277.936869 199.0811 
L 326.310606 194.273923 
L 326.310606 330.477273 
z
" style="fill:#ffc0cb;opacity:0.5;stroke:#ff0000;stroke-linejoin:miter;stroke-width:0.5;"/>
   </g>
   <g id="patch_27">
    <path clip-path="url(#p42ade316e2)" d="M 326.310606 330.477273 
L 326.310606 194.273923 
L 374.684343 170.238038 
L 374.684343 330.477273 
z
" style="fill:#ffc0cb;opacity:0.5;stroke:#ff0000;stroke-linejoin:miter;stroke-width:0.5;"/>
   </g>
   <g id="patch_28">
    <path clip-path="url(#p42ade316e2)" d="M 374.684343 330.477273 
L 374.684343 170.238038 
L 423.058081 117.359091 
L 423.058081 330.477273 
z
" style="fill:#ffc0cb;opacity:0.5;stroke:#ff0000;stroke-linejoin:miter;stroke-width:0.5;"/>
   </g>
   <g id="patch_29">
    <path clip-path="url(#p42ade316e2)" d="M 423.058081 330.477273 
L 423.058081 117.359091 
L 471.431818 26.022727 
L 471.431818 330.477273 
z
" style="fill:#ffc0cb;opacity:0.5;stroke:#ff0000;stroke-linejoin:miter;stroke-width:0.5;"/>
   </g>
   <g id="patch_30">
    <path clip-path="url(#p42ade316e2)" d="M 36.068182 330.477273 
L 36.068182 271.188756 
L 84.441919 218.309809 
L 84.441919 330.477273 
z
" style="fill:#ffc0cb;opacity:0.5;stroke:#ff0000;stroke-linejoin:miter;stroke-width:0.5;"/>
   </g>
   <g id="patch_31">
    <path clip-path="url(#p42ade316e2)" d="M 84.441919 330.477273 
L 84.441919 218.309809 
L 132.815657 194.273923 
L 132.815657 330.477273 
z
" style="fill:#ffc0cb;opacity:0.5;stroke:#ff0000;stroke-linejoin:miter;stroke-width:0.5;"/>
   </g>
   <g id="patch_32">
    <path clip-path="url(#p42ade316e2)" d="M 132.815657 330.477273 
L 132.815657 194.273923 
L 181.189394 189.466746 
L 181.189394 330.477273 
z
" style="fill:#ffc0cb;opacity:0.5;stroke:#ff0000;stroke-linejoin:miter;stroke-width:0.5;"/>
   </g>
   <g id="patch_33">
    <path clip-path="url(#p42ade316e2)" d="M 181.189394 330.477273 
L 181.189394 189.466746 
L 229.563131 194.273923 
L 229.563131 330.477273 
z
" style="fill:#ffc0cb;opacity:0.5;stroke:#ff0000;stroke-linejoin:miter;stroke-width:0.5;"/>
   </g>
   <g id="patch_34">
    <path clip-path="url(#p42ade316e2)" d="M 229.563131 330.477273 
L 229.563131 194.273923 
L 277.936869 199.0811 
L 277.936869 330.477273 
z
" style="fill:#ffc0cb;opacity:0.5;stroke:#ff0000;stroke-linejoin:miter;stroke-width:0.5;"/>
   </g>
   <g id="patch_35">
    <path clip-path="url(#p42ade316e2)" d="M 277.936869 330.477273 
L 277.936869 199.0811 
L 326.310606 194.273923 
L 326.310606 330.477273 
z
" style="fill:#ffc0cb;opacity:0.5;stroke:#ff0000;stroke-linejoin:miter;stroke-width:0.5;"/>
   </g>
   <g id="patch_36">
    <path clip-path="url(#p42ade316e2)" d="M 326.310606 330.477273 
L 326.310606 194.273923 
L 374.684343 170.238038 
L 374.684343 330.477273 
z
" style="fill:#ffc0cb;opacity:0.5;stroke:#ff0000;stroke-linejoin:miter;stroke-width:0.5;"/>
   </g>
   <g id="patch_37">
    <path clip-path="url(#p42ade316e2)" d="M 374.684343 330.477273 
L 374.684343 170.238038 
L 423.058081 117.359091 
L 423.058081 330.477273 
z
" style="fill:#ffc0cb;opacity:0.5;stroke:#ff0000;stroke-linejoin:miter;stroke-width:0.5;"/>
   </g>
   <g id="patch_38">
    <path clip-path="url(#p42ade316e2)" d="M 423.058081 330.477273 
L 423.058081 117.359091 
L 471.431818 26.022727 
L 471.431818 330.477273 
z
" style="fill:#ffc0cb;opacity:0.5;stroke:#ff0000;stroke-linejoin:miter;stroke-width:0.5;"/>
   </g>
   <g id="patch_39">
    <path clip-path="url(#p42ade316e2)" d="M 36.068182 330.477273 
L 36.068182 271.188756 
L 84.441919 218.309809 
L 84.441919 330.477273 
z
" style="fill:#ffc0cb;opacity:0.5;stroke:#ff0000;stroke-linejoin:miter;stroke-width:0.5;"/>
   </g>
   <g id="patch_40">
    <path clip-path="url(#p42ade316e2)" d="M 84.441919 330.477273 
L 84.441919 218.309809 
L 132.815657 194.273923 
L 132.815657 330.477273 
z
" style="fill:#ffc0cb;opacity:0.5;stroke:#ff0000;stroke-linejoin:miter;stroke-width:0.5;"/>
   </g>
   <g id="patch_41">
    <path clip-path="url(#p42ade316e2)" d="M 132.815657 330.477273 
L 132.815657 194.273923 
L 181.189394 189.466746 
L 181.189394 330.477273 
z
" style="fill:#ffc0cb;opacity:0.5;stroke:#ff0000;stroke-linejoin:miter;stroke-width:0.5;"/>
   </g>
   <g id="patch_42">
    <path clip-path="url(#p42ade316e2)" d="M 181.189394 330.477273 
L 181.189394 189.466746 
L 229.563131 194.273923 
L 229.563131 330.477273 
z
" style="fill:#ffc0cb;opacity:0.5;stroke:#ff0000;stroke-linejoin:miter;stroke-width:0.5;"/>
   </g>
   <g id="patch_43">
    <path clip-path="url(#p42ade316e2)" d="M 229.563131 330.477273 
L 229.563131 194.273923 
L 277.936869 199.0811 
L 277.936869 330.477273 
z
" style="fill:#ffc0cb;opacity:0.5;stroke:#ff0000;stroke-linejoin:miter;stroke-width:0.5;"/>
   </g>
   <g id="patch_44">
    <path clip-path="url(#p42ade316e2)" d="M 277.936869 330.477273 
L 277.936869 199.0811 
L 326.310606 194.273923 
L 326.310606 330.477273 
z
" style="fill:#ffc0cb;opacity:0.5;stroke:#ff0000;stroke-linejoin:miter;stroke-width:0.5;"/>
   </g>
   <g id="patch_45">
    <path clip-path="url(#p42ade316e2)" d="M 326.310606 330.477273 
L 326.310606 194.273923 
L 374.684343 170.238038 
L 374.684343 330.477273 
z
" style="fill:#ffc0cb;opacity:0.5;stroke:#ff0000;stroke-linejoin:miter;stroke-width:0.5;"/>
   </g>
   <g id="patch_46">
    <path clip-path="url(#p42ade316e2)" d="M 374.684343 330.477273 
L 374.684343 170.238038 
L 423.058081 117.359091 
L 423.058081 330.477273 
z
" style="fill:#ffc0cb;opacity:0.5;stroke:#ff0000;stroke-linejoin:miter;stroke-width:0.5;"/>
   </g>
   <g id="patch_47">
    <path clip-path="url(#p42ade316e2)" d="M 423.058081 330.477273 
L 423.058081 117.359091 
L 471.431818 26.022727 
L 471.431818 330.477273 
z
" style="fill:#ffc0cb;opacity:0.5;stroke:#ff0000;stroke-linejoin:miter;stroke-width:0.5;"/>
   </g>
   <g id="patch_48">
    <path clip-path="url(#p42ade316e2)" d="M 36.068182 330.477273 
L 36.068182 271.188756 
L 84.441919 218.309809 
L 84.441919 330.477273 
z
" style="fill:#ffc0cb;opacity:0.5;stroke:#ff0000;stroke-linejoin:miter;stroke-width:0.5;"/>
   </g>
   <g id="patch_49">
    <path clip-path="url(#p42ade316e2)" d="M 84.441919 330.477273 
L 84.441919 218.309809 
L 132.815657 194.273923 
L 132.815657 330.477273 
z
" style="fill:#ffc0cb;opacity:0.5;stroke:#ff0000;stroke-linejoin:miter;stroke-width:0.5;"/>
   </g>
   <g id="patch_50">
    <path clip-path="url(#p42ade316e2)" d="M 132.815657 330.477273 
L 132.815657 194.273923 
L 181.189394 189.466746 
L 181.189394 330.477273 
z
" style="fill:#ffc0cb;opacity:0.5;stroke:#ff0000;stroke-linejoin:miter;stroke-width:0.5;"/>
   </g>
   <g id="patch_51">
    <path clip-path="url(#p42ade316e2)" d="M 181.189394 330.477273 
L 181.189394 189.466746 
L 229.563131 194.273923 
L 229.563131 330.477273 
z
" style="fill:#ffc0cb;opacity:0.5;stroke:#ff0000;stroke-linejoin:miter;stroke-width:0.5;"/>
   </g>
   <g id="patch_52">
    <path clip-path="url(#p42ade316e2)" d="M 229.563131 330.477273 
L 229.563131 194.273923 
L 277.936869 199.0811 
L 277.936869 330.477273 
z
" style="fill:#ffc0cb;opacity:0.5;stroke:#ff0000;stroke-linejoin:miter;stroke-width:0.5;"/>
   </g>
   <g id="patch_53">
    <path clip-path="url(#p42ade316e2)" d="M 277.936869 330.477273 
L 277.936869 199.0811 
L 326.310606 194.273923 
L 326.310606 330.477273 
z
" style="fill:#ffc0cb;opacity:0.5;stroke:#ff0000;stroke-linejoin:miter;stroke-width:0.5;"/>
   </g>
   <g id="patch_54">
    <path clip-path="url(#p42ade316e2)" d="M 326.310606 330.477273 
L 326.310606 194.273923 
L 374.684343 170.238038 
L 374.684343 330.477273 
z
" style="fill:#ffc0cb;opacity:0.5;stroke:#ff0000;stroke-linejoin:miter;stroke-width:0.5;"/>
   </g>
   <g id="patch_55">
    <path clip-path="url(#p42ade316e2)" d="M 374.684343 330.477273 
L 374.684343 170.238038 
L 423.058081 117.359091 
L 423.058081 330.477273 
z
" style="fill:#ffc0cb;opacity:0.5;stroke:#ff0000;stroke-linejoin:miter;stroke-width:0.5;"/>
   </g>
   <g id="patch_56">
    <path clip-path="url(#p42ade316e2)" d="M 423.058081 330.477273 
L 423.058081 117.359091 
L 471.431818 26.022727 
L 471.431818 330.477273 
z
" style="fill:#ffc0cb;opacity:0.5;stroke:#ff0000;stroke-linejoin:miter;stroke-width:0.5;"/>
   </g>
   <g id="patch_57">
    <path clip-path="url(#p42ade316e2)" d="M 36.068182 330.477273 
L 36.068182 271.188756 
L 84.441919 218.309809 
L 84.441919 330.477273 
z
" style="fill:#ffc0cb;opacity:0.5;stroke:#ff0000;stroke-linejoin:miter;stroke-width:0.5;"/>
   </g>
   <g id="patch_58">
    <path clip-path="url(#p42ade316e2)" d="M 84.441919 330.477273 
L 84.441919 218.309809 
L 132.815657 194.273923 
L 132.815657 330.477273 
z
" style="fill:#ffc0cb;opacity:0.5;stroke:#ff0000;stroke-linejoin:miter;stroke-width:0.5;"/>
   </g>
   <g id="patch_59">
    <path clip-path="url(#p42ade316e2)" d="M 132.815657 330.477273 
L 132.815657 194.273923 
L 181.189394 189.466746 
L 181.189394 330.477273 
z
" style="fill:#ffc0cb;opacity:0.5;stroke:#ff0000;stroke-linejoin:miter;stroke-width:0.5;"/>
   </g>
   <g id="patch_60">
    <path clip-path="url(#p42ade316e2)" d="M 181.189394 330.477273 
L 181.189394 189.466746 
L 229.563131 194.273923 
L 229.563131 330.477273 
z
" style="fill:#ffc0cb;opacity:0.5;stroke:#ff0000;stroke-linejoin:miter;stroke-width:0.5;"/>
   </g>
   <g id="patch_61">
    <path clip-path="url(#p42ade316e2)" d="M 229.563131 330.477273 
L 229.563131 194.273923 
L 277.936869 199.0811 
L 277.936869 330.477273 
z
" style="fill:#ffc0cb;opacity:0.5;stroke:#ff0000;stroke-linejoin:miter;stroke-width:0.5;"/>
   </g>
   <g id="patch_62">
    <path clip-path="url(#p42ade316e2)" d="M 277.936869 330.477273 
L 277.936869 199.0811 
L 326.310606 194.273923 
L 326.310606 330.477273 
z
" style="fill:#ffc0cb;opacity:0.5;stroke:#ff0000;stroke-linejoin:miter;stroke-width:0.5;"/>
   </g>
   <g id="patch_63">
    <path clip-path="url(#p42ade316e2)" d="M 326.310606 330.477273 
L 326.310606 194.273923 
L 374.684343 170.238038 
L 374.684343 330.477273 
z
" style="fill:#ffc0cb;opacity:0.5;stroke:#ff0000;stroke-linejoin:miter;stroke-width:0.5;"/>
   </g>
   <g id="patch_64">
    <path clip-path="url(#p42ade316e2)" d="M 374.684343 330.477273 
L 374.684343 170.238038 
L 423.058081 117.359091 
L 423.058081 330.477273 
z
" style="fill:#ffc0cb;opacity:0.5;stroke:#ff0000;stroke-linejoin:miter;stroke-width:0.5;"/>
   </g>
   <g id="patch_65">
    <path clip-path="url(#p42ade316e2)" d="M 423.058081 330.477273 
L 423.058081 117.359091 
L 471.431818 26.022727 
L 471.431818 330.477273 
z
" style="fill:#ffc0cb;opacity:0.5;stroke:#ff0000;stroke-linejoin:miter;stroke-width:0.5;"/>
   </g>
   <g id="line2d_27">
    <path clip-path="url(#p42ade316e2)" d="M 36.068182 271.188756 
L 40.421818 264.997867 
L 44.775455 259.111474 
L 49.129091 253.522568 
L 53.482727 248.224141 
L 57.836364 243.209183 
L 62.19 238.470686 
L 66.543636 234.001641 
L 70.897273 229.795039 
L 75.250909 225.843871 
L 79.604545 222.141129 
L 83.958182 218.679803 
L 88.311818 215.452884 
L 92.665455 212.453364 
L 97.019091 209.674234 
L 101.372727 207.108485 
L 105.726364 204.749108 
L 110.08 202.589095 
L 114.433636 200.621435 
L 118.787273 198.839122 
L 123.140909 197.235144 
L 127.494545 195.802495 
L 131.848182 194.534165 
L 136.201818 193.423144 
L 140.555455 192.462425 
L 144.909091 191.644999 
L 149.262727 190.963855 
L 153.616364 190.411986 
L 157.97 189.982383 
L 162.323636 189.668037 
L 166.677273 189.461939 
L 171.030909 189.35708 
L 175.384545 189.346452 
L 179.738182 189.423044 
L 184.091818 189.57985 
L 188.445455 189.809859 
L 192.799091 190.106062 
L 197.152727 190.461452 
L 201.506364 190.869019 
L 205.86 191.321754 
L 210.213636 191.812649 
L 214.567273 192.334694 
L 218.920909 192.88088 
L 223.274545 193.4442 
L 227.628182 194.017643 
L 231.981818 194.594202 
L 236.335455 195.166866 
L 240.689091 195.728628 
L 245.042727 196.272478 
L 249.396364 196.791408 
L 253.75 197.278409 
L 258.103636 197.726472 
L 262.457273 198.128587 
L 266.810909 198.477747 
L 271.164545 198.766942 
L 275.518182 198.989163 
L 279.871818 199.137402 
L 284.225455 199.20465 
L 288.579091 199.183897 
L 292.932727 199.068136 
L 297.286364 198.850356 
L 301.64 198.52355 
L 305.993636 198.080708 
L 310.347273 197.514821 
L 314.700909 196.818881 
L 319.054545 195.985879 
L 323.408182 195.008806 
L 327.761818 193.880653 
L 332.115455 192.594411 
L 336.469091 191.143072 
L 340.822727 189.519625 
L 345.176364 187.717064 
L 349.53 185.728378 
L 353.883636 183.546559 
L 358.237273 181.164598 
L 362.590909 178.575486 
L 366.944545 175.772214 
L 371.298182 172.747774 
L 375.651818 169.495156 
L 380.005455 166.007352 
L 384.359091 162.277353 
L 388.712727 158.29815 
L 393.066364 154.062734 
L 397.42 149.564096 
L 401.773636 144.795227 
L 406.127273 139.749119 
L 410.480909 134.418762 
L 414.834545 128.797149 
L 419.188182 122.877269 
L 423.541818 116.652114 
L 427.895455 110.114675 
L 432.249091 103.257944 
L 436.602727 96.074911 
L 440.956364 88.558567 
L 445.31 80.701905 
L 449.663636 72.497914 
L 454.017273 63.939586 
L 458.370909 55.019912 
L 462.724545 45.731884 
L 467.078182 36.068492 
L 471.431818 26.022727 
" style="fill:none;stroke:#000000;stroke-linecap:square;stroke-width:2;"/>
   </g>
   <g id="line2d_28">
    <path clip-path="url(#p42ade316e2)" d="M 36.068182 271.188756 
L 40.421818 265.19087 
L 44.775455 259.438017 
L 49.129091 253.930199 
L 53.482727 248.667413 
L 57.836364 243.649661 
L 62.19 238.876943 
L 66.543636 234.349258 
L 70.897273 230.066607 
L 75.250909 226.02899 
L 79.604545 222.236406 
L 83.958182 218.688855 
L 88.311818 215.386338 
L 92.665455 212.328855 
L 97.019091 209.516405 
L 101.372727 206.948989 
L 105.726364 204.626607 
L 110.08 202.544189 
L 114.433636 200.635842 
L 118.787273 198.88129 
L 123.140909 197.280534 
L 127.494545 195.833573 
L 131.848182 194.540408 
L 136.201818 193.401038 
L 140.555455 192.415464 
L 144.909091 191.583685 
L 149.262727 190.905702 
L 153.616364 190.381514 
L 157.97 190.009256 
L 162.323636 189.738072 
L 166.677273 189.545103 
L 171.030909 189.430346 
L 175.384545 189.393804 
L 179.738182 189.435475 
L 184.091818 189.55536 
L 188.445455 189.753459 
L 192.799091 190.029771 
L 197.152727 190.384297 
L 201.506364 190.817037 
L 205.86 191.327507 
L 210.213636 191.868835 
L 214.567273 192.410096 
L 218.920909 192.95129 
L 223.274545 193.492416 
L 227.628182 194.033475 
L 231.981818 194.574466 
L 236.335455 195.115389 
L 240.689091 195.656246 
L 245.042727 196.197034 
L 249.396364 196.737755 
L 253.75 197.278409 
L 258.103636 197.780125 
L 262.457273 198.204031 
L 266.810909 198.550129 
L 271.164545 198.818419 
L 275.518182 199.008899 
L 279.871818 199.121571 
L 284.225455 199.156434 
L 288.579091 199.113488 
L 292.932727 198.992733 
L 297.286364 198.794169 
L 301.64 198.517797 
L 305.993636 198.13269 
L 310.347273 197.591977 
L 314.700909 196.895173 
L 319.054545 196.042279 
L 323.408182 195.033296 
L 327.761818 193.868222 
L 332.115455 192.547059 
L 336.469091 191.069805 
L 340.822727 189.436462 
L 345.176364 187.647029 
L 349.53 185.701505 
L 353.883636 183.577031 
L 358.237273 181.222751 
L 362.590909 178.636799 
L 366.944545 175.819176 
L 371.298182 172.769881 
L 375.651818 169.488913 
L 380.005455 165.976275 
L 384.359091 162.231964 
L 388.712727 158.255982 
L 393.066364 154.048327 
L 397.42 149.609002 
L 401.773636 144.917729 
L 406.127273 139.908615 
L 410.480909 134.576591 
L 414.834545 128.921658 
L 419.188182 122.943814 
L 423.541818 116.643061 
L 427.895455 110.019398 
L 432.249091 103.072825 
L 436.602727 95.803343 
L 440.956364 88.21095 
L 445.31 80.295648 
L 449.663636 72.057436 
L 454.017273 63.496314 
L 458.370909 54.612282 
L 462.724545 45.40534 
L 467.078182 35.875489 
L 471.431818 26.022727 
" style="fill:none;stroke:#e24a33;stroke-linecap:square;stroke-width:0.5;"/>
   </g>
   <g id="patch_66">
    <path d="M 14.3 345.7 
L 14.3 10.8 
" style="fill:none;stroke:#ffffff;stroke-linecap:square;stroke-linejoin:miter;"/>
   </g>
   <g id="patch_67">
    <path d="M 493.2 345.7 
L 493.2 10.8 
" style="fill:none;stroke:#ffffff;stroke-linecap:square;stroke-linejoin:miter;"/>
   </g>
   <g id="patch_68">
    <path d="M 14.3 345.7 
L 493.2 345.7 
" style="fill:none;stroke:#ffffff;stroke-linecap:square;stroke-linejoin:miter;"/>
   </g>
   <g id="patch_69">
    <path d="M 14.3 10.8 
L 493.2 10.8 
" style="fill:none;stroke:#ffffff;stroke-linecap:square;stroke-linejoin:miter;"/>
   </g>
   <g id="text_1">
    <!-- $a$ -->
    <g transform="translate(36.068182 338.489234)scale(0.1 -0.1)">
     <defs>
      <path d="M 53.71875 31.203125 
L 47.609375 0 
L 38.625 0 
L 40.28125 8.296875 
Q 36.328125 3.421875 31.265625 1 
Q 26.21875 -1.421875 20.015625 -1.421875 
Q 13.03125 -1.421875 8.5625 2.84375 
Q 4.109375 7.125 4.109375 13.8125 
Q 4.109375 23.390625 11.75 28.953125 
Q 19.390625 34.515625 32.8125 34.515625 
L 45.3125 34.515625 
L 45.796875 36.921875 
Q 45.90625 37.3125 45.953125 37.765625 
Q 46 38.234375 46 39.203125 
Q 46 43.5625 42.453125 45.96875 
Q 38.921875 48.390625 32.515625 48.390625 
Q 28.125 48.390625 23.5 47.265625 
Q 18.890625 46.140625 14.015625 43.890625 
L 15.578125 52.203125 
Q 20.65625 54.109375 25.515625 55.046875 
Q 30.375 56 34.90625 56 
Q 44.578125 56 49.625 51.796875 
Q 54.6875 47.609375 54.6875 39.59375 
Q 54.6875 37.984375 54.4375 35.8125 
Q 54.203125 33.640625 53.71875 31.203125 
z
M 44 27.484375 
L 35.015625 27.484375 
Q 23.96875 27.484375 18.671875 24.53125 
Q 13.375 21.578125 13.375 15.375 
Q 13.375 11.078125 16.078125 8.640625 
Q 18.796875 6.203125 23.578125 6.203125 
Q 30.90625 6.203125 36.375 11.453125 
Q 41.84375 16.703125 43.609375 25.484375 
z
" id="DejaVuSans-Oblique-97"/>
     </defs>
     <use xlink:href="#DejaVuSans-Oblique-97"/>
    </g>
   </g>
   <g id="text_2">
    <!-- $b$ -->
    <g transform="translate(471.431818 338.489234)scale(0.1 -0.1)">
     <defs>
      <path d="M 49.515625 33.40625 
Q 49.515625 40.484375 46.265625 44.484375 
Q 43.015625 48.484375 37.3125 48.484375 
Q 33.15625 48.484375 29.515625 46.453125 
Q 25.875 44.4375 23.1875 40.578125 
Q 20.359375 36.53125 18.71875 31.171875 
Q 17.09375 25.828125 17.09375 20.515625 
Q 17.09375 13.765625 20.28125 9.9375 
Q 23.484375 6.109375 29.109375 6.109375 
Q 33.34375 6.109375 36.953125 8.078125 
Q 40.578125 10.0625 43.3125 13.921875 
Q 46.09375 17.921875 47.796875 23.234375 
Q 49.515625 28.5625 49.515625 33.40625 
z
M 21.578125 46.390625 
Q 24.90625 50.875 29.90625 53.4375 
Q 34.90625 56 40.375 56 
Q 48.78125 56 53.734375 50.328125 
Q 58.6875 44.671875 58.6875 35.015625 
Q 58.6875 27.09375 55.78125 19.671875 
Q 52.875 12.25 47.515625 6.5 
Q 44 2.6875 39.40625 0.625 
Q 34.8125 -1.421875 29.78125 -1.421875 
Q 24.46875 -1.421875 20.5625 1.015625 
Q 16.65625 3.46875 14.203125 8.296875 
L 12.59375 0 
L 3.609375 0 
L 18.40625 75.984375 
L 27.390625 75.984375 
z
" id="DejaVuSans-Oblique-98"/>
     </defs>
     <use transform="translate(0 0.015625)" xlink:href="#DejaVuSans-Oblique-98"/>
    </g>
   </g>
  </g>
  <g id="text_3">
   <!-- $x$ -->
   <g transform="translate(453.6 356.4)scale(0.1 -0.1)">
    <defs>
     <path d="M 60.015625 54.6875 
L 34.90625 27.875 
L 50.296875 0 
L 39.984375 0 
L 28.421875 21.6875 
L 8.296875 0 
L -2.59375 0 
L 24.3125 28.8125 
L 10.015625 54.6875 
L 20.3125 54.6875 
L 30.8125 34.90625 
L 49.125 54.6875 
z
" id="DejaVuSans-Oblique-120"/>
    </defs>
    <use transform="translate(0 0.3125)" xlink:href="#DejaVuSans-Oblique-120"/>
   </g>
  </g>
  <g id="text_4">
   <!-- $y$ -->
   <g transform="translate(5.04 36)scale(0.1 -0.1)">
    <defs>
     <path d="M 24.8125 -5.078125 
Q 18.5625 -15.578125 14.625 -18.1875 
Q 10.6875 -20.796875 4.59375 -20.796875 
L -2.484375 -20.796875 
L -0.984375 -13.28125 
L 4.203125 -13.28125 
Q 7.953125 -13.28125 10.59375 -11.234375 
Q 13.234375 -9.1875 16.5 -3.21875 
L 19.28125 2 
L 7.171875 54.6875 
L 16.703125 54.6875 
L 25.78125 12.796875 
L 50.875 54.6875 
L 60.296875 54.6875 
z
" id="DejaVuSans-Oblique-121"/>
    </defs>
    <use transform="translate(0 0.3125)" xlink:href="#DejaVuSans-Oblique-121"/>
   </g>
  </g>
 </g>
 <defs>
  <clipPath id="p42ade316e2">
   <rect height="334.9" width="478.9" x="14.3" y="10.8"/>
  </clipPath>
 </defs>
</svg>
